<svg width="132" height="98" viewBox="0 0 132 98" fill="none" xmlns="http://www.w3.org/2000/svg">
<g id="Group" filter="url(#filter0_d_3802_117)">
<path id="Vector" d="M4 28.2803L4 61.8774C4 77.2536 31.612 89.7182 65.6711 89.7182C99.7315 89.7182 127.342 77.2536 127.342 61.8774V28.2803L4 28.2803Z" fill="#72333F"/>
<path id="Vector_2" d="M127.344 28.2793H103.13V57.7571C103.13 68.6165 97.8647 77.7088 90.8595 79.128C83.1712 80.6855 74.6489 81.5516 65.6772 81.5516C31.614 81.5516 4.00195 69.087 4.00195 53.7203V61.8812C4.00195 77.2479 31.614 89.7125 65.6772 89.7125C99.7267 89.7125 127.34 77.2479 127.34 61.8812V56.1344L127.344 56.1217V28.2793Z" fill="#632D39"/>
<path id="Vector_3" d="M127.344 28.2723C127.344 43.6596 99.732 56.1242 65.6688 56.1242C31.6057 56.1242 4.00586 43.6596 4.00586 28.2723C4.00586 26.5003 4.37391 24.7664 5.08285 23.0913C10.4434 10.1975 35.5334 0.439453 65.6688 0.439453C98.8696 0.439453 125.951 12.2811 127.294 27.1217C127.332 27.4936 127.344 27.8829 127.344 28.2723Z" fill="#D94954"/>
<path id="Vector_4" d="M65.671 50.8408C97.8648 50.8408 123.963 39.8141 123.963 26.2119C123.963 12.6097 97.8648 1.58301 65.671 1.58301C33.4772 1.58301 7.37891 12.6097 7.37891 26.2119C7.37891 39.8141 33.4772 50.8408 65.671 50.8408Z" fill="#F26176"/>
<path id="Vector_5" d="M65.6721 47.5515C96.5165 47.5515 121.521 37.4889 121.521 25.076C121.521 12.6632 96.5165 2.60059 65.6721 2.60059C34.8276 2.60059 9.82324 12.6632 9.82324 25.076C9.82324 37.4889 34.8276 47.5515 65.6721 47.5515Z" fill="#DD5263"/>
<path id="Vector_6" d="M101.678 24.371C101.678 24.7016 101.64 25.0528 101.564 25.3834C100.321 31.6944 87.4341 36.7768 70.884 37.6923C69.7812 37.7511 68.6661 37.7892 67.5253 37.8099C66.9169 37.8289 66.2962 37.8289 65.6755 37.8289C65.0549 37.8289 64.4342 37.8289 63.8258 37.8099C45.6921 37.4586 31.0936 32.1235 29.7762 25.3834C29.7001 25.0528 29.6621 24.7016 29.6621 24.371C29.6621 16.9317 45.7939 10.9131 65.6769 10.9131C85.5585 10.9115 101.678 16.9301 101.678 24.371Z" fill="#512530"/>
<path id="Vector_7" d="M101.564 25.3827C100.321 31.6937 87.4342 36.7762 70.8841 37.6916C69.7813 37.7504 68.6663 37.7885 67.5255 37.8092C66.917 37.8283 66.2964 37.8283 65.6757 37.8283C65.055 37.8283 64.4344 37.8283 63.8259 37.8092C45.6923 37.458 31.0937 32.1228 29.7764 25.3827C31.1196 19.3832 46.681 14.6504 65.6771 14.6504C84.6718 14.6504 100.221 19.3832 101.564 25.3827Z" fill="#72333F"/>
<path id="Vector_8" d="M125.279 38.3154V59.2588C125.279 61.8128 124.539 64.2284 123.244 65.8304C120.263 69.5175 113.9 75.8126 103.471 78.7814C106.455 74.1947 108.239 68.084 108.485 61.6077L108.633 50.3525L110.062 49.6549C114.89 47.8574 119.281 44.6137 123.263 40.4323L125.279 38.3154Z" fill="#542531"/>
<g id="Group_2">
<path id="Vector_9" d="M9.35547 40.9785C9.35547 40.9785 10.643 41.2217 10.643 43.96C10.643 46.6983 10.643 72.4746 10.643 72.4746L9.35547 71.2875L9.35547 40.9785Z" fill="#632D39"/>
<path id="Vector_10" d="M17.3447 47.5518C17.3447 47.5518 18.6322 47.7949 18.6322 50.5348C18.6322 53.2731 18.6322 79.0495 18.6322 79.0495L17.3447 77.8623V47.5518Z" fill="#632D39"/>
<path id="Vector_11" d="M25.3438 51.0811C25.3438 51.0811 26.6313 51.3242 26.6313 54.0641C26.6313 56.8024 26.6313 82.5788 26.6313 82.5788L25.3438 81.3916V51.0811Z" fill="#632D39"/>
<path id="Vector_12" d="M33.3428 53.9639C33.3428 53.9639 34.6303 54.207 34.6303 56.9469C34.6303 59.6852 34.6303 85.4616 34.6303 85.4616L33.3428 84.2744V53.9639Z" fill="#632D39"/>
<path id="Vector_13" d="M41.3438 55.5859C41.3438 55.5859 42.6299 55.8291 42.6299 58.569C42.6299 61.3073 42.6299 87.0837 42.6299 87.0837L41.3438 85.8965V55.5859Z" fill="#632D39"/>
<path id="Vector_14" d="M49.3418 56.8838C49.3418 56.8838 50.6293 57.1269 50.6293 59.8668C50.6293 62.6052 50.6293 88.3815 50.6293 88.3815L49.3418 87.1943V56.8838Z" fill="#632D39"/>
<path id="Vector_15" d="M57.3408 57.5752C57.3408 57.5752 58.6283 57.8184 58.6283 60.5583C58.6283 63.2966 58.6283 89.0729 58.6283 89.0729L57.3408 87.8857V57.5752Z" fill="#632D39"/>
<path id="Vector_16" d="M65.3506 58.0234C65.3506 58.0234 66.6381 58.2666 66.6381 61.0065C66.6381 63.7448 66.6381 89.5212 66.6381 89.5212L65.3506 88.334V58.0234Z" fill="#632D39"/>
<path id="Vector_17" d="M73.3389 57.5752C73.3389 57.5752 74.6264 57.8184 74.6264 60.5583C74.6264 63.2966 74.6264 89.0729 74.6264 89.0729L73.3389 87.8857V57.5752Z" fill="#632D39"/>
<path id="Vector_18" d="M81.3486 56.8838C81.3486 56.8838 82.6361 57.1269 82.6361 59.8668C82.6361 62.6052 82.6361 88.3815 82.6361 88.3815L81.3486 87.1943V56.8838Z" fill="#632D39"/>
<path id="Vector_19" d="M89.3398 55.5859C89.3398 55.5859 90.6273 55.8291 90.6273 58.569C90.6273 61.3073 90.6273 87.0837 90.6273 87.0837L89.3398 85.8965V55.5859Z" fill="#632D39"/>
<path id="Vector_20" d="M97.3389 53.8818C97.3389 53.8818 98.6264 54.125 98.6264 56.8649C98.6264 59.6032 98.6264 85.3796 98.6264 85.3796L97.3389 84.1924V53.8818Z" fill="#632D39"/>
</g>
<g id="Group_3">
<path id="Vector_21" d="M9.35592 72.1419C9.00552 72.1419 8.72168 71.7064 8.72168 71.1676L8.72168 41.9537C8.72168 41.4149 9.00552 40.9795 9.35592 40.9795C9.70631 40.9795 9.98881 41.4149 9.98881 41.9537L9.98881 71.1676C9.98881 71.7064 9.70496 72.1419 9.35592 72.1419Z" fill="#512530"/>
<path id="Vector_22" d="M17.3546 78.7151C17.0042 78.7151 16.7217 78.2796 16.7217 77.7409V48.5269C16.7217 47.9882 17.0055 47.5527 17.3546 47.5527C17.7036 47.5527 17.9888 47.9882 17.9888 48.5269V77.7409C17.9888 78.2796 17.705 78.7151 17.3546 78.7151Z" fill="#512530"/>
<path id="Vector_23" d="M25.3526 82.2454C25.0022 82.2454 24.7197 81.8099 24.7197 81.2712V52.0572C24.7197 51.5185 25.0036 51.083 25.3526 51.083C25.703 51.083 25.9869 51.5185 25.9869 52.0572V81.2728C25.9869 81.8099 25.703 82.2454 25.3526 82.2454Z" fill="#512530"/>
<path id="Vector_24" d="M33.3526 85.1259C33.0022 85.1259 32.7197 84.6904 32.7197 84.1517V54.9361C32.7197 54.3974 33.0036 53.9619 33.3526 53.9619C33.703 53.9619 33.9869 54.3974 33.9869 54.9361V84.1517C33.9869 84.6904 33.703 85.1259 33.3526 85.1259Z" fill="#512530"/>
<path id="Vector_25" d="M41.352 86.7489C41.0016 86.7489 40.7178 86.3135 40.7178 85.7747V56.5592C40.7178 56.0204 41.0016 55.585 41.352 55.585C41.7024 55.585 41.9863 56.0204 41.9863 56.5592V85.7747C41.9863 86.3135 41.7024 86.7489 41.352 86.7489Z" fill="#512530"/>
<path id="Vector_26" d="M49.352 88.0468C49.0016 88.0468 48.7178 87.6113 48.7178 87.0725V57.857C48.7178 57.3183 49.0016 56.8828 49.352 56.8828C49.7024 56.8828 49.9862 57.3183 49.9862 57.857V87.0725C49.9862 87.6113 49.7024 88.0468 49.352 88.0468Z" fill="#512530"/>
<path id="Vector_27" d="M57.3501 88.7376C56.9997 88.7376 56.7158 88.3021 56.7158 87.7633V58.5494C56.7158 58.0106 56.9997 57.5752 57.3501 57.5752C57.7005 57.5752 57.9829 58.0106 57.9829 58.5494V87.7633C57.9843 88.3037 57.7005 88.7376 57.3501 88.7376Z" fill="#512530"/>
<path id="Vector_28" d="M65.3501 89.1868C64.9997 89.1868 64.7158 88.7514 64.7158 88.2126V58.9986C64.7158 58.4599 64.9997 58.0244 65.3501 58.0244C65.7005 58.0244 65.9829 58.4599 65.9829 58.9986V88.2126C65.9843 88.7514 65.7005 89.1868 65.3501 89.1868Z" fill="#512530"/>
<path id="Vector_29" d="M73.35 88.7386C72.9996 88.7386 72.7158 88.3031 72.7158 87.7643V58.5504C72.7158 58.0116 72.9996 57.5762 73.35 57.5762C73.7004 57.5762 73.9829 58.0116 73.9829 58.5504V87.7643C73.9843 88.3047 73.7004 88.7386 73.35 88.7386Z" fill="#512530"/>
<path id="Vector_30" d="M81.3491 88.0477C80.9987 88.0477 80.7148 87.6123 80.7148 87.0735V57.858C80.7148 57.3192 80.9987 56.8838 81.3491 56.8838C81.6995 56.8838 81.982 57.3192 81.982 57.858L81.982 87.0735C81.9834 87.6123 81.6995 88.0477 81.3491 88.0477Z" fill="#512530"/>
<path id="Vector_31" d="M89.3477 86.7499C88.9973 86.7499 88.7148 86.3145 88.7148 85.7757V56.5601C88.7148 56.0214 88.9987 55.5859 89.3477 55.5859C89.6981 55.5859 89.9806 56.0214 89.9806 56.5601V85.7757C89.9819 86.3145 89.6981 86.7499 89.3477 86.7499Z" fill="#512530"/>
<path id="Vector_32" d="M97.3477 85.0458C96.9973 85.0458 96.7148 84.6103 96.7148 84.0716V54.8561C96.7148 54.3173 96.9987 53.8818 97.3477 53.8818C97.6981 53.8818 97.982 54.3173 97.982 54.8561L97.982 84.0716C97.982 84.6103 97.6981 85.0458 97.3477 85.0458Z" fill="#512530"/>
<path id="Vector_33" d="M105.348 83.0179C104.997 83.0179 104.715 82.5824 104.715 82.0436V52.8297C104.715 52.2909 104.999 51.8555 105.348 51.8555C105.698 51.8555 105.982 52.2909 105.982 52.8297V82.0436C105.982 82.5824 105.698 83.0179 105.348 83.0179Z" fill="#512530"/>
<path id="Vector_34" d="M113.346 79.1223C112.995 79.1223 112.713 78.6869 112.713 78.1481V48.9342C112.713 48.3954 112.997 47.96 113.346 47.96C113.696 47.96 113.98 48.3954 113.98 48.9342L113.98 78.1481C113.98 78.6869 113.696 79.1223 113.346 79.1223Z" fill="#512530"/>
<path id="Vector_35" d="M121.346 73.4407C120.996 73.4407 120.712 73.0052 120.712 72.4665V43.2525C120.712 42.7138 120.996 42.2783 121.346 42.2783C121.697 42.2783 121.98 42.7138 121.98 43.2525V72.4665C121.98 73.0052 121.697 73.4407 121.346 73.4407Z" fill="#512530"/>
</g>
<path id="Vector_36" d="M127.339 58.999V61.6674C127.339 77.0547 99.7271 89.5193 65.6762 89.5193C31.613 89.5193 4.00098 77.0547 4.00098 61.6674V58.999C4.00098 74.3657 31.613 86.8303 65.6762 86.8303C99.7271 86.8303 127.339 74.3657 127.339 58.999Z" fill="#512530"/>
<path id="Vector_37" opacity="0.3" d="M125.336 21.2017C126.942 23.9686 126.398 28.2803 124.268 30.0189C113.824 38.5454 92.3224 44.397 67.5067 44.397C40.3455 44.397 17.1691 37.3931 8.09956 27.5301C6.08275 25.3353 6.02436 20.763 7.97599 18.4316C16.7726 7.91855 39.2876 0.439453 65.6691 0.439453C94.3107 0.439453 118.398 9.25353 125.336 21.2017Z" fill="black"/>
</g>
<defs>
<filter id="filter0_d_3802_117" x="0" y="0.439453" width="131.344" height="97.2783" filterUnits="userSpaceOnUse" color-interpolation-filters="sRGB">
<feFlood flood-opacity="0" result="BackgroundImageFix"/>
<feColorMatrix in="SourceAlpha" type="matrix" values="0 0 0 0 0 0 0 0 0 0 0 0 0 0 0 0 0 0 127 0" result="hardAlpha"/>
<feOffset dy="4"/>
<feGaussianBlur stdDeviation="2"/>
<feComposite in2="hardAlpha" operator="out"/>
<feColorMatrix type="matrix" values="0 0 0 0 0 0 0 0 0 0 0 0 0 0 0 0 0 0 0.3 0"/>
<feBlend mode="normal" in2="BackgroundImageFix" result="effect1_dropShadow_3802_117"/>
<feBlend mode="normal" in="SourceGraphic" in2="effect1_dropShadow_3802_117" result="shape"/>
</filter>
</defs>
</svg>
