<svg width="23" height="14" viewBox="0 0 23 14" fill="none" xmlns="http://www.w3.org/2000/svg">
<path id="Vector" d="M11.4392 13.1121C11.2039 13.1123 10.9708 13.0661 10.7534 12.976C10.5359 12.8859 10.3385 12.7537 10.1723 12.587L1.21229 3.62703C1.04591 3.46065 0.91393 3.26314 0.823887 3.04575C0.733844 2.82837 0.6875 2.59538 0.6875 2.36009C0.6875 2.1248 0.733844 1.89181 0.823887 1.67442C0.91393 1.45704 1.04591 1.25952 1.21229 1.09314C1.37866 0.926767 1.57618 0.794789 1.79356 0.704747C2.01095 0.614704 2.24394 0.568359 2.47923 0.568359C2.71452 0.568359 2.94751 0.614704 3.16489 0.704747C3.38228 0.794789 3.5798 0.926767 3.74617 1.09314L11.4392 8.7862L19.1323 1.09314C19.2987 0.926767 19.4962 0.794789 19.7136 0.704747C19.9309 0.614704 20.1639 0.568359 20.3992 0.568359C20.6345 0.568359 20.8675 0.614704 21.0849 0.704747C21.3023 0.794789 21.4998 0.926767 21.6662 1.09314C21.8325 1.25952 21.9645 1.45704 22.0546 1.67442C22.1446 1.89181 22.191 2.1248 22.191 2.36009C22.191 2.59538 22.1446 2.82837 22.0546 3.04575C21.9645 3.26314 21.8325 3.46065 21.6662 3.62703L12.7062 12.587C12.54 12.7537 12.3425 12.8859 12.1251 12.976C11.9077 13.0661 11.6746 13.1123 11.4392 13.1121Z" fill="#858585"/>
</svg>
