<svg width="105" height="95" viewBox="0 0 105 95" fill="none" xmlns="http://www.w3.org/2000/svg">
<path d="M54.5876 2.38672C52.0318 3.258 49.721 4.36963 47.6123 5.67771C48.6962 7.46072 49.78 9.24258 50.8639 11.0256C52.8727 9.77875 55.0723 8.72027 57.5067 7.89059C56.5341 6.05558 55.5614 4.22057 54.5876 2.38672Z" fill="#1D1D1B"/>
<path d="M47.6125 5.67773C45.5038 6.98581 43.5959 8.4915 41.8447 10.1497C43.0205 11.8611 44.1952 13.5724 45.371 15.2838C47.0382 13.7042 48.8552 12.2701 50.8641 11.0245C49.7802 9.2426 48.6964 7.45959 47.6125 5.67773Z" fill="#EDEDED"/>
<path d="M41.8446 10.1494C40.0934 11.8076 38.4988 13.6195 37.0166 15.54C38.2684 17.1659 39.5203 18.7918 40.7733 20.4176C42.1851 18.5884 43.7037 16.8631 45.372 15.2835C44.1951 13.5721 43.0204 11.8608 41.8446 10.1494Z" fill="#1D1D1B"/>
<path d="M37.0167 15.541C35.5344 17.4627 34.1634 19.493 32.8594 21.5891C34.177 23.1191 35.4958 24.649 36.8135 26.179C38.0551 24.1833 39.3603 22.249 40.7722 20.4197C39.5203 18.7927 38.2685 17.1669 37.0167 15.541Z" fill="#EDEDED"/>
<path d="M32.8579 21.5879C31.5538 23.6841 30.3179 25.8461 29.1035 28.0289C30.4813 29.4572 31.8591 30.8843 33.237 32.3125C34.3935 30.2325 35.5715 28.1745 36.8132 26.1777C35.4944 24.6478 34.1756 23.1178 32.8579 21.5879Z" fill="#1D1D1B"/>
<path d="M29.1048 28.0293C27.8905 30.2133 26.6988 32.4181 25.4844 34.6021C26.9189 35.9252 28.3546 37.2483 29.7903 38.5725C30.9468 36.4925 32.0818 34.3929 33.2383 32.3129C31.8593 30.8847 30.4827 29.4576 29.1048 28.0293Z" fill="#EDEDED"/>
<path d="M25.4829 34.6025C24.2685 36.7865 23.0326 38.9474 21.7285 41.0436C23.2232 42.265 24.7179 43.4852 26.2127 44.7066C27.4543 42.7099 28.6324 40.6518 29.7889 38.5718C28.3532 37.2499 26.9175 35.9256 25.4829 34.6025Z" fill="#1D1D1B"/>
<path d="M21.7296 41.043C20.4255 43.1391 19.0556 45.1694 17.5723 47.0911C19.1328 48.2166 20.6934 49.341 22.255 50.4665C23.6669 48.6372 24.9732 46.7028 26.2137 44.7072C24.719 43.4858 23.2243 42.2644 21.7296 41.043Z" fill="#EDEDED"/>
<path d="M17.5722 47.0918C16.0899 49.0123 14.4954 50.8242 12.7441 52.4824C14.3819 53.5224 16.0184 54.5613 17.6562 55.6012C19.3234 54.0216 20.8419 52.2964 22.2549 50.4672C20.6933 49.3417 19.1327 48.2173 17.5722 47.0918Z" fill="#1D1D1B"/>
<path d="M12.7443 52.4824C10.9931 54.1406 9.08528 55.6463 6.97656 56.9544C8.70508 57.9227 10.4347 58.8911 12.1632 59.8594C14.1721 58.6137 15.988 57.1797 17.6563 55.6001C16.0186 54.5624 14.3809 53.5224 12.7443 52.4824Z" fill="#EDEDED"/>
<path d="M6.97632 56.9551C4.8676 58.2634 2.55686 59.3752 0.000976562 60.2466C1.84071 61.1631 3.68045 62.0795 5.52019 62.996C7.95464 62.1662 10.1553 61.1076 12.1641 59.8606C10.4333 58.8921 8.70483 57.9236 6.97632 56.9551Z" fill="#1D1D1B"/>
<path d="M57.508 7.89062C55.0736 8.72031 52.8729 9.77879 50.8652 11.0256C51.9491 12.8075 53.033 14.5905 54.1168 16.3735C56.0247 15.1891 58.1152 14.1837 60.4282 13.3956C59.4545 11.5595 58.4807 9.72563 57.508 7.89062Z" fill="#EDEDED"/>
<path d="M50.8632 11.0244C48.8544 12.2701 47.0373 13.7041 45.3701 15.2838C46.5459 16.9951 47.7206 18.7065 48.8964 20.4179C50.4808 18.9168 52.207 17.5556 54.1148 16.3711C53.031 14.5893 51.9471 12.8074 50.8632 11.0244Z" fill="#1D1D1B"/>
<path d="M45.3703 15.2832C43.703 16.8628 42.1845 18.5881 40.7715 20.4173C42.0233 22.0432 43.2763 23.669 44.5281 25.2949C45.8696 23.5569 47.3121 21.9172 48.8965 20.4173C47.7219 18.7071 46.5461 16.9957 45.3703 15.2832Z" fill="#EDEDED"/>
<path d="M40.7721 20.4189C39.3603 22.2482 38.054 24.1826 36.8135 26.1782C38.1311 27.7081 39.4499 29.2381 40.7676 30.768C41.9468 28.8718 43.1873 27.0345 44.5288 25.2965C43.2758 23.6707 42.024 22.0448 40.7721 20.4189Z" fill="#1D1D1B"/>
<path d="M36.8135 26.1787C35.5719 28.1755 34.3938 30.2335 33.2373 32.3135C34.6151 33.7406 35.9929 35.1689 37.3708 36.596C38.4694 34.62 39.5884 32.6648 40.7676 30.7685C39.45 29.2386 38.1323 27.7087 36.8135 26.1787Z" fill="#EDEDED"/>
<path d="M33.237 32.3135C32.0805 34.3935 30.9456 36.4931 29.7891 38.5731C31.2236 39.8962 32.6593 41.2193 34.0939 42.5435C35.1925 40.5675 36.2707 38.5731 37.3693 36.5971C35.9926 35.1688 34.6148 33.7406 33.237 32.3135Z" fill="#1D1D1B"/>
<path d="M29.7891 38.5723C28.6326 40.6523 27.4545 42.7103 26.2129 44.7071C27.7076 45.9285 29.2023 47.1487 30.697 48.3701C31.8762 46.4739 32.9953 44.5175 34.0939 42.5427C32.6582 41.2185 31.2237 39.8954 29.7891 38.5723Z" fill="#EDEDED"/>
<path d="M26.2145 44.707C24.9729 46.7027 23.6677 48.6371 22.2559 50.4663C23.8164 51.5918 25.3769 52.7161 26.9375 53.8416C28.279 52.1037 29.5195 50.2664 30.6987 48.3701C29.204 47.1487 27.7092 45.9273 26.2145 44.707Z" fill="#1D1D1B"/>
<path d="M22.2531 50.4668C20.8412 52.296 19.3227 54.0213 17.6543 55.6009C19.292 56.6409 20.9286 57.6797 22.5663 58.7197C24.1507 57.2187 25.5932 55.5801 26.9347 53.8421C25.3753 52.7166 23.8147 51.5911 22.2531 50.4668Z" fill="#EDEDED"/>
<path d="M17.6562 55.6006C15.989 57.1802 14.1719 58.6143 12.1631 59.8599C13.8916 60.8283 15.6212 61.7966 17.3498 62.7661C19.2576 61.5817 20.9838 60.2205 22.5682 58.7194C20.9305 57.6794 19.2928 56.6406 17.6562 55.6006Z" fill="#1D1D1B"/>
<path d="M12.1635 59.8604C10.1546 61.1062 7.95511 62.166 5.51953 62.9958C7.35927 63.9123 9.19901 64.8288 11.0387 65.7453C13.3518 64.9571 15.4423 63.9516 17.3501 62.767C15.6216 61.7985 13.892 60.83 12.1635 59.8604Z" fill="#EDEDED"/>
<path d="M60.4257 13.3945C58.1126 14.1826 56.0221 15.1879 54.1143 16.3724C55.1981 18.1542 56.282 19.9372 57.3659 21.7203C59.1738 20.5982 61.1543 19.646 63.3447 18.8995C62.3721 17.0645 61.3994 15.2295 60.4257 13.3945Z" fill="#1D1D1B"/>
<path d="M54.1149 16.3721C52.2071 17.5565 50.4809 18.9177 48.8965 20.4188C50.0723 22.1302 51.2469 23.8415 52.4227 25.5529C53.9231 24.1316 55.5586 22.8408 57.3665 21.7188C56.2827 19.9369 55.1988 18.1539 54.1149 16.3721Z" fill="#EDEDED"/>
<path d="M48.8967 20.4189C47.3123 21.92 45.8698 23.5586 44.5283 25.2965C45.7802 26.9224 47.0331 28.5482 48.285 30.1741C49.5561 28.5274 50.9226 26.9744 52.423 25.5531C51.2483 23.8417 50.0725 22.1303 48.8967 20.4189Z" fill="#1D1D1B"/>
<path d="M44.5278 25.2969C43.1863 27.0348 41.9458 28.8721 40.7666 30.7684C42.0843 32.2983 43.4031 33.8283 44.7207 35.3582C45.8386 33.5614 47.0133 31.8211 48.2844 30.1744C47.0326 28.5486 45.7808 26.9227 44.5278 25.2969Z" fill="#EDEDED"/>
<path d="M40.767 30.7686C39.5878 32.6648 38.4687 34.6211 37.3701 36.596C38.7479 38.0242 40.1258 39.4513 41.5036 40.8784C42.5443 39.0064 43.6043 37.1541 44.7223 35.3572C43.4035 33.8284 42.0858 32.2985 40.767 30.7686Z" fill="#1D1D1B"/>
<path d="M37.3702 36.5957C36.2715 38.5717 35.1933 40.5673 34.0947 42.5421C35.5293 43.8652 36.965 45.1884 38.4007 46.5126C39.4414 44.6406 40.4629 42.7501 41.5036 40.8793C40.1258 39.4511 38.748 38.024 37.3702 36.5957Z" fill="#EDEDED"/>
<path d="M34.0941 42.542C32.9955 44.518 31.8765 46.4732 30.6973 48.3694C32.192 49.5908 33.6867 50.8111 35.1814 52.0325C36.2993 50.2356 37.3594 48.3833 38.4001 46.5113C36.9644 45.1893 35.5298 43.8662 34.0941 42.542Z" fill="#1D1D1B"/>
<path d="M30.6987 48.3701C29.5195 50.2664 28.279 52.1037 26.9375 53.8416C28.498 54.9671 30.0586 56.0915 31.6203 57.217C32.8914 55.5703 34.0661 53.8301 35.184 52.0332C33.6881 50.8118 32.1934 49.5904 30.6987 48.3701Z" fill="#EDEDED"/>
<path d="M26.9367 53.8418C25.5952 55.5797 24.1527 57.2195 22.5684 58.7194C24.2061 59.7594 25.8427 60.7982 27.4804 61.8382C28.9808 60.4169 30.3484 58.8638 31.6184 57.2172C30.0578 56.0917 28.4973 54.9673 26.9367 53.8418Z" fill="#1D1D1B"/>
<path d="M22.5681 58.7197C20.9837 60.2208 19.2574 61.582 17.3496 62.7665C19.0781 63.7348 20.8078 64.7031 22.5363 65.6727C24.3442 64.5506 25.9786 63.261 27.4801 61.8386C25.8424 60.7986 24.2058 59.7597 22.5681 58.7197Z" fill="#EDEDED"/>
<path d="M17.3495 62.7666C15.4417 63.9512 13.3511 64.9567 11.0381 65.7449C12.8778 66.6614 14.7176 67.5779 16.5573 68.4943C18.7489 67.7478 20.7293 66.7943 22.5362 65.6732C20.8076 64.7036 19.078 63.7351 17.3495 62.7666Z" fill="#1D1D1B"/>
<path d="M63.346 18.8984C61.1545 19.6449 59.1751 20.5982 57.3672 21.7191C58.4511 23.5021 59.5349 25.284 60.6188 27.067C62.3257 26.0074 64.1961 25.1083 66.2662 24.4023C65.2925 22.5685 64.3187 20.7334 63.346 18.8984Z" fill="#EDEDED"/>
<path d="M57.3676 21.7197C55.5597 22.8418 53.9242 24.1313 52.4238 25.5538C53.5996 27.2652 54.7743 28.9766 55.9501 30.6879C57.3676 29.3452 58.9123 28.1261 60.6192 27.0676C59.5365 25.2834 58.4515 23.5016 57.3676 21.7197Z" fill="#1D1D1B"/>
<path d="M52.4241 25.5527C50.9226 26.9741 49.5561 28.5271 48.2861 30.1738C49.538 31.7996 50.7909 33.4255 52.0428 35.0513C53.2436 33.496 54.534 32.0296 55.9515 30.6868C54.7746 28.9755 53.5988 27.2641 52.4241 25.5527Z" fill="#EDEDED"/>
<path d="M48.2854 30.1738C47.0143 31.8205 45.8396 33.5607 44.7217 35.3576C46.0393 36.8876 47.3581 38.4175 48.6758 39.9475C49.7313 38.2511 50.8413 36.6068 52.0409 35.0514C50.7902 33.4255 49.5372 31.7997 48.2854 30.1738Z" fill="#1D1D1B"/>
<path d="M44.7216 35.3574C43.6037 37.1543 42.5437 39.0066 41.5029 40.8786C42.8807 42.3069 44.2586 43.734 45.6364 45.1611C46.6192 43.3931 47.6203 41.6436 48.6758 39.9473C47.3581 38.4173 46.0404 36.8874 44.7216 35.3574Z" fill="#EDEDED"/>
<path d="M41.5033 40.8789C40.4626 42.7509 39.4411 44.6414 38.4004 46.5122C39.835 47.8353 41.2707 49.1584 42.7052 50.4826C43.6881 48.7147 44.6528 46.9293 45.6356 45.1614C44.259 43.7343 42.8811 42.306 41.5033 40.8789Z" fill="#1D1D1B"/>
<path d="M38.4003 46.5127C37.3596 48.3847 36.2996 50.237 35.1816 52.0339C36.6764 53.2553 38.1711 54.4756 39.6658 55.697C40.7213 54.0006 41.7223 52.25 42.7052 50.4831C41.2706 49.1589 39.8349 47.8358 38.4003 46.5127Z" fill="#EDEDED"/>
<path d="M35.1829 52.0342C34.0649 53.8311 32.8903 55.5713 31.6191 57.218C33.1797 58.3435 34.7402 59.4678 36.3019 60.5933C37.5027 59.0379 38.6115 57.3948 39.667 55.6973C38.1723 54.4758 36.6776 53.2556 35.1829 52.0342Z" fill="#1D1D1B"/>
<path d="M31.6185 57.2178C30.3473 58.8644 28.9809 60.4175 27.4805 61.8388C29.1182 62.8788 30.7548 63.9176 32.3925 64.9576C33.81 63.6149 35.1005 62.1485 36.3012 60.5931C34.7407 59.4676 33.1801 58.3421 31.6185 57.2178Z" fill="#EDEDED"/>
<path d="M27.4809 61.8389C25.9794 63.2602 24.3451 64.5509 22.5371 65.673C24.2656 66.6413 25.9953 67.6097 27.7238 68.578C29.4307 67.5184 30.9754 66.3004 32.3929 64.9577C30.7552 63.9177 29.1186 62.8777 27.4809 61.8389Z" fill="#1D1D1B"/>
<path d="M22.5365 65.6719C20.7285 66.7929 18.7481 67.7464 16.5576 68.493C18.3974 69.4095 20.2371 70.326 22.0768 71.2425C24.1458 70.5375 26.0162 69.6372 27.7232 68.5774C25.9946 67.61 24.265 66.6404 22.5365 65.6719Z" fill="#EDEDED"/>
<path d="M66.2656 24.4033C64.1966 25.1082 62.3262 26.0084 60.6182 27.068C61.702 28.851 62.7859 30.6329 63.8698 32.4159C65.4768 31.4187 67.2371 30.5716 69.1847 29.9084C68.2121 28.0722 67.2394 26.2372 66.2656 24.4033Z" fill="#1D1D1B"/>
<path d="M60.6193 27.0664C58.9124 28.126 57.3677 29.344 55.9502 30.6867C57.126 32.3981 58.3007 34.1095 59.4765 35.8208C60.8111 34.5567 62.2639 33.4104 63.8709 32.4131C62.7871 30.6313 61.7032 28.8494 60.6193 27.0664Z" fill="#EDEDED"/>
<path d="M55.9497 30.6875C54.5322 32.0302 53.2418 33.4966 52.041 35.052C53.2929 36.6779 54.5458 38.3037 55.7977 39.9296C56.9269 38.4655 58.1425 37.0858 59.476 35.8216C58.3002 34.1102 57.1244 32.3989 55.9497 30.6875Z" fill="#1D1D1B"/>
<path d="M52.0409 35.0518C50.8401 36.6071 49.7313 38.2503 48.6758 39.9478C49.9934 41.4778 51.3122 43.0077 52.6299 44.5376C53.623 42.9407 54.6683 41.3934 55.7975 39.9305C54.5446 38.3035 53.2927 36.6776 52.0409 35.0518Z" fill="#EDEDED"/>
<path d="M48.6761 39.9473C47.6206 41.6436 46.6196 43.3943 45.6367 45.1611C47.0145 46.5893 48.3924 48.0164 49.7702 49.4435C50.6951 47.7796 51.6371 46.1329 52.6314 44.5359C51.3114 43.0071 49.9938 41.4772 48.6761 39.9473Z" fill="#1D1D1B"/>
<path d="M45.6374 45.1621C44.6546 46.9301 43.6899 48.7154 42.707 50.4834C44.1427 51.8065 45.5773 53.1296 47.013 54.4539C47.938 52.7899 48.8459 51.1097 49.7709 49.4457C48.3919 48.0175 47.0141 46.5904 45.6374 45.1621Z" fill="#EDEDED"/>
<path d="M42.7054 50.4834C41.7225 52.2514 40.7215 54.0009 39.666 55.6972C41.1607 56.9187 42.6554 58.1401 44.1502 59.3603C45.1432 57.7634 46.0852 56.1167 47.0113 54.4527C45.5756 53.1296 44.1411 51.8065 42.7054 50.4834Z" fill="#1D1D1B"/>
<path d="M39.6669 55.6963C38.6114 57.3938 37.5014 59.037 36.3018 60.5923C37.8623 61.7178 39.4228 62.8422 40.9845 63.9677C42.1138 62.5036 43.1591 60.9575 44.1521 59.3605C42.6563 58.1391 41.1616 56.9177 39.6669 55.6963Z" fill="#EDEDED"/>
<path d="M36.3013 60.5928C35.1005 62.1481 33.8101 63.6145 32.3926 64.9573C34.0303 65.9973 35.668 67.0361 37.3046 68.0761C38.6382 66.8119 39.8537 65.4322 40.9829 63.9681C39.4224 62.8426 37.8619 61.7171 36.3013 60.5928Z" fill="#1D1D1B"/>
<path d="M32.3918 64.957C30.9743 66.3 29.4296 67.5193 27.7227 68.5779C29.4512 69.5464 31.1808 70.5149 32.9093 71.4846C34.5164 70.4872 35.9691 69.3407 37.3038 68.0763C35.6672 67.0362 34.0295 65.996 32.3918 64.957Z" fill="#EDEDED"/>
<path d="M27.7235 68.5771C26.0165 69.6369 24.1461 70.5361 22.0771 71.2422C23.9169 72.1587 25.7566 73.0752 27.5964 73.9917C29.5439 73.3283 31.3042 72.4812 32.9113 71.4838C31.1816 70.5142 29.4531 69.5456 27.7235 68.5771Z" fill="#1D1D1B"/>
<path d="M69.186 29.9072C67.2385 30.5705 65.4782 31.4175 63.8711 32.4148C64.955 34.1966 66.0388 35.9796 67.1227 37.7626C68.6288 36.8278 70.279 36.0339 72.1051 35.4123C71.1324 33.5761 70.1587 31.7411 69.186 29.9072Z" fill="#EDEDED"/>
<path d="M63.871 32.415C62.264 33.4123 60.8113 34.5586 59.4766 35.8228C60.6524 37.5341 61.8282 39.2455 63.0028 40.9568C64.2535 39.7724 65.6166 38.6966 67.1227 37.7618C66.0388 35.9799 64.9549 34.1969 63.871 32.415Z" fill="#1D1D1B"/>
<path d="M59.4762 35.8223C58.1426 37.0853 56.9271 38.4662 55.7979 39.9302C57.0497 41.5561 58.3015 43.1819 59.5545 44.8078C60.6134 43.435 61.7529 42.1419 63.0036 40.9564C61.8267 39.245 60.652 37.5336 59.4762 35.8223Z" fill="#EDEDED"/>
<path d="M55.7985 39.9297C54.6692 41.3938 53.6239 42.9399 52.6309 44.5369C53.9485 46.0668 55.2673 47.5967 56.585 49.1267C57.5168 47.6291 58.4951 46.1789 59.554 44.8072C58.3022 43.1814 57.0503 41.5555 55.7985 39.9297Z" fill="#1D1D1B"/>
<path d="M52.6297 44.5381C51.6367 46.1351 50.6947 47.7817 49.7686 49.4457C51.1464 50.8739 52.5242 52.301 53.902 53.7281C54.7691 52.1682 55.6532 50.6243 56.5839 49.1268C55.2651 47.598 53.9474 46.068 52.6297 44.5381Z" fill="#EDEDED"/>
<path d="M49.7696 49.4453C48.8446 51.1093 47.9367 52.7895 47.0117 54.4535C48.4474 55.7766 49.882 57.0997 51.3165 58.4239C52.1836 56.8639 53.0348 55.2889 53.9031 53.7289C52.5253 52.3007 51.1474 50.8724 49.7696 49.4453Z" fill="#1D1D1B"/>
<path d="M47.0116 54.4521C46.0866 56.1161 45.1446 57.7628 44.1504 59.3598C45.6451 60.5812 47.1398 61.8014 48.6345 63.0229C49.5652 61.5253 50.4493 59.9815 51.3164 58.4215C49.8818 57.0995 48.4461 55.7753 47.0116 54.4521Z" fill="#EDEDED"/>
<path d="M44.151 59.3604C43.1579 60.9573 42.1138 62.5046 40.9834 63.9675C42.5439 65.093 44.1045 66.2174 45.6662 67.3429C46.7251 65.9701 47.7045 64.5199 48.6352 63.0234C47.1404 61.8032 45.6457 60.5818 44.151 59.3604Z" fill="#1D1D1B"/>
<path d="M40.984 63.9678C39.8547 65.4319 38.6392 66.8116 37.3057 68.0758C38.9434 69.1157 40.58 70.1546 42.2177 71.1946C43.4684 70.0101 44.6067 68.7159 45.6668 67.3443C44.1051 66.2176 42.5445 65.0921 40.984 63.9678Z" fill="#EDEDED"/>
<path d="M37.3046 68.0752C35.97 69.3384 34.5172 70.486 32.9102 71.4834C34.6387 72.4519 36.3683 73.4204 38.0968 74.3889C39.6029 73.4539 40.966 72.3791 42.2167 71.1933C40.5801 70.1555 38.9424 69.1153 37.3046 68.0752Z" fill="#1D1D1B"/>
<path d="M32.9106 71.4824C31.3036 72.4798 29.5433 73.3269 27.5957 73.9903C29.4354 74.9068 31.2752 75.8233 33.1149 76.7398C34.941 76.118 36.5912 75.324 38.0973 74.3891C36.3688 73.4206 34.6403 72.4521 32.9106 71.4824Z" fill="#EDEDED"/>
<path d="M72.1045 35.4111C70.2783 36.0328 68.6281 36.8278 67.1221 37.7615C68.2059 39.5445 69.2898 41.3264 70.3737 43.1094C71.7799 42.237 73.32 41.4962 75.0247 40.915C74.0509 39.08 73.0782 37.2461 72.1045 35.4111Z" fill="#1D1D1B"/>
<path d="M67.1228 37.7617C65.6167 38.6966 64.2536 39.7712 63.0029 40.9568C64.1787 42.6682 65.3534 44.3795 66.5292 46.0909C67.697 44.9851 68.9682 43.982 70.3744 43.1096C69.2905 41.3266 68.2066 39.5447 67.1228 37.7617Z" fill="#EDEDED"/>
<path d="M63.0028 40.9561C61.7521 42.1405 60.6126 43.4347 59.5537 44.8075C60.8055 46.4334 62.0585 48.0592 63.3104 49.6851C64.2989 48.4047 65.3623 47.196 66.529 46.0913C65.3544 44.3788 64.1786 42.6674 63.0028 40.9561Z" fill="#1D1D1B"/>
<path d="M59.554 44.8066C58.4951 46.1783 57.5156 47.6297 56.585 49.1261C57.9026 50.656 59.2214 52.186 60.5391 53.7159C61.4085 52.3189 62.3221 50.9646 63.3106 49.6842C62.0588 48.0584 60.8069 46.4325 59.554 44.8066Z" fill="#EDEDED"/>
<path d="M56.5852 49.127C55.6545 50.6245 54.7704 52.1683 53.9033 53.7283C55.2811 55.1566 56.659 56.5837 58.0368 58.0108C58.846 56.5548 59.6711 55.1138 60.5393 53.7168C59.2217 52.1868 57.9028 50.6569 56.5852 49.127Z" fill="#1D1D1B"/>
<path d="M53.9029 53.7275C53.0358 55.2875 52.1846 56.8625 51.3164 58.4225C52.7521 59.7456 54.1867 61.0687 55.6224 62.393C56.4316 60.937 57.226 59.4671 58.0364 58.0112C56.6586 56.5829 55.2808 55.1558 53.9029 53.7275Z" fill="#EDEDED"/>
<path d="M51.3157 58.4229C50.4486 59.9828 49.5656 61.5266 48.6338 63.0242C50.1285 64.2456 51.6232 65.4659 53.1179 66.6873C53.9873 65.2903 54.8113 63.8493 55.6205 62.3933C54.187 61.0691 52.7514 59.746 51.3157 58.4229Z" fill="#1D1D1B"/>
<path d="M48.636 63.0244C47.7053 64.522 46.7259 65.9722 45.667 67.3439C47.2275 68.4682 48.7881 69.5937 50.3486 70.7192C51.3372 69.4389 52.2508 68.0846 53.1201 66.6875C51.6254 65.4661 50.1296 64.2447 48.636 63.0244Z" fill="#EDEDED"/>
<path d="M45.6659 67.3438C44.607 68.7154 43.4675 70.0096 42.2168 71.194C43.8545 72.234 45.4922 73.2729 47.1288 74.3129C48.2955 73.207 49.359 71.9995 50.3475 70.7191C48.7881 69.5936 47.2264 68.4681 45.6659 67.3438Z" fill="#1D1D1B"/>
<path d="M42.2165 71.1934C40.9658 72.378 39.6027 73.4539 38.0967 74.3889C39.8252 75.3574 41.5548 76.3259 43.2834 77.2956C44.6895 76.423 45.9607 75.4187 47.1285 74.3138C45.492 73.2725 43.8542 72.2335 42.2165 71.1934Z" fill="#EDEDED"/>
<path d="M38.0976 74.3887C36.5916 75.3236 34.9414 76.1176 33.1152 76.7394C34.955 77.6559 36.7947 78.5724 38.6344 79.4889C40.3391 78.9075 41.8792 78.1667 43.2843 77.2942C41.5546 76.3257 39.8261 75.3572 38.0976 74.3887Z" fill="#1D1D1B"/>
<path d="M104.381 94.5221C104.741 94.1408 104.835 93.5537 104.575 93.0638L55.6672 1.79406C55.3449 1.18739 54.6003 0.959747 54.0045 1.28792C53.4087 1.61494 53.1862 2.37413 53.5074 2.9808L102.415 94.2517C102.737 94.8584 103.481 95.0848 104.078 94.7578C104.195 94.6931 104.296 94.6134 104.381 94.5221Z" fill="#3C3C3B"/>
<path d="M53.027 3.51496C53.7761 4.24769 54.9666 4.22342 55.6862 3.46065C56.4057 2.69787 56.3819 1.48552 55.6328 0.752793C54.8838 0.0200659 53.6932 0.0443326 52.9737 0.807108C52.2541 1.56988 52.2779 2.78224 53.027 3.51496Z" fill="#3C3C3B"/>
<path opacity="0.2" d="M0 60.2456C1.83974 61.162 3.67947 62.0783 5.51921 62.9947C7.35895 63.911 9.19869 64.8274 11.0384 65.7437C12.8782 66.6601 14.7179 67.5764 16.5576 68.4928C18.3974 69.4091 20.2371 70.3255 22.0769 71.2418C23.9166 72.1582 25.7563 73.0745 27.5961 73.9909C29.4358 74.9072 31.2755 75.8236 33.1153 76.7399C34.955 77.6563 36.7948 78.5726 38.6345 79.489C40.3392 78.9077 41.8793 78.167 43.2843 77.2946C44.3591 76.6278 45.3352 75.8628 46.267 75.0551C45.0004 73.6176 43.912 72.0542 42.9881 70.3983C41.9485 68.5355 41.1427 66.5434 40.5923 64.4403C39.5708 65.7241 38.4904 66.9524 37.3043 68.0756C38.4904 66.9524 39.5697 65.7252 40.5923 64.4403C40.3392 63.4708 40.1201 62.4874 39.9794 61.474C38.1385 45.784 41.2857 28.2323 39.2394 12.8555C38.4699 13.7233 37.7288 14.6177 37.0161 15.541C35.5338 17.4626 34.1628 19.4929 32.8588 21.5891C31.5547 23.6853 30.3188 25.8473 29.1044 28.0301C27.89 30.2141 26.6983 32.4189 25.4839 34.6029C24.2696 36.7869 23.0325 38.9477 21.7296 41.0439C20.4255 43.1401 19.0545 45.1704 17.5723 47.092C16.09 49.0126 14.4955 50.8244 12.7442 52.4827C10.993 54.1409 9.0852 55.6465 6.97648 56.9546C4.86662 58.2627 2.55702 59.3743 0 60.2456Z" fill="#1D1D1B"/>
</svg>
