<svg width="105" height="95" viewBox="0 0 105 95" fill="none" xmlns="http://www.w3.org/2000/svg">
<path d="M50.135 2.45898C52.6909 3.33027 55.0016 4.44189 57.1104 5.74997C56.0265 7.53298 54.9426 9.31484 53.8588 11.0979C51.8499 9.85102 49.6504 8.79254 47.2159 7.96286C48.1886 6.12785 49.1612 4.29284 50.135 2.45898Z" fill="#1D1D1B"/>
<path d="M57.1102 5.75C59.2189 7.05808 61.1267 8.56377 62.8779 10.222C61.7021 11.9333 60.5275 13.6447 59.3517 15.3561C57.6844 13.7764 55.8674 12.3424 53.8586 11.0967C54.9424 9.31486 56.0263 7.53185 57.1102 5.75Z" fill="#EDEDED"/>
<path d="M62.878 10.2217C64.6292 11.8799 66.2238 13.6918 67.7061 15.6123C66.4542 17.2382 65.2024 18.864 63.9494 20.4899C62.5375 18.6606 61.019 16.9354 59.3506 15.3558C60.5276 13.6444 61.7022 11.933 62.878 10.2217Z" fill="#1D1D1B"/>
<path d="M67.706 15.6133C69.1882 17.535 70.5592 19.5652 71.8633 21.6614C70.5456 23.1914 69.2268 24.7213 67.9091 26.2512C66.6675 24.2556 65.3623 22.3212 63.9505 20.492C65.2023 18.865 66.4542 17.2391 67.706 15.6133Z" fill="#EDEDED"/>
<path d="M71.8648 21.6602C73.1688 23.7563 74.4048 25.9183 75.6191 28.1012C74.2413 29.5294 72.8635 30.9565 71.4857 32.3848C70.3292 30.3048 69.1511 28.2468 67.9095 26.25C69.2283 24.72 70.5471 23.1901 71.8648 21.6602Z" fill="#1D1D1B"/>
<path d="M75.6178 28.1016C76.8322 30.2855 78.0239 32.4903 79.2383 34.6743C77.8037 35.9974 76.368 37.3205 74.9323 38.6448C73.7758 36.5648 72.6409 34.4652 71.4844 32.3852C72.8633 30.9569 74.24 29.5298 75.6178 28.1016Z" fill="#EDEDED"/>
<path d="M79.2398 34.6748C80.4541 36.8588 81.6901 39.0197 82.9941 41.1158C81.4994 42.3372 80.0047 43.5575 78.51 44.7789C77.2684 42.7821 76.0903 40.7241 74.9338 38.6441C76.3695 37.3222 77.8052 35.9979 79.2398 34.6748Z" fill="#1D1D1B"/>
<path d="M82.9931 41.1152C84.2971 43.2114 85.667 45.2417 87.1504 47.1634C85.5898 48.2889 84.0293 49.4132 82.4676 50.5387C81.0558 48.7095 79.7494 46.7751 78.509 44.7795C80.0037 43.558 81.4984 42.3366 82.9931 41.1152Z" fill="#EDEDED"/>
<path d="M87.1505 47.1641C88.6327 49.0846 90.2273 50.8965 91.9785 52.5547C90.3408 53.5947 88.7042 54.6335 87.0665 55.6735C85.3993 54.0939 83.8807 52.3687 82.4677 50.5394C84.0294 49.4139 85.5899 48.2896 87.1505 47.1641Z" fill="#1D1D1B"/>
<path d="M91.9783 52.5547C93.7295 54.2129 95.6374 55.7186 97.7461 57.0266C96.0176 57.995 94.2879 58.9633 92.5594 59.9317C90.5506 58.686 88.7347 57.252 87.0663 55.6724C88.704 54.6347 90.3417 53.5947 91.9783 52.5547Z" fill="#EDEDED"/>
<path d="M97.7463 57.0273C99.8551 58.3356 102.166 59.4474 104.722 60.3188C102.882 61.2353 101.042 62.1518 99.2025 63.0683C96.768 62.2385 94.5674 61.1799 92.5585 59.9328C94.2893 58.9643 96.0178 57.9958 97.7463 57.0273Z" fill="#1D1D1B"/>
<path d="M47.2146 7.96289C49.6491 8.79257 51.8497 9.85105 53.8574 11.0979C52.7736 12.8797 51.6897 14.6628 50.6058 16.4458C48.698 15.2613 46.6074 14.256 44.2944 13.4679C45.2682 11.6317 46.242 9.7979 47.2146 7.96289Z" fill="#EDEDED"/>
<path d="M53.8594 11.0967C55.8683 12.3424 57.6853 13.7764 59.3525 15.356C58.1767 17.0674 57.0021 18.7788 55.8263 20.4901C54.2419 18.9891 52.5157 17.6278 50.6078 16.4434C51.6917 14.6616 52.7756 12.8797 53.8594 11.0967Z" fill="#1D1D1B"/>
<path d="M59.3524 15.3555C61.0196 16.9351 62.5382 18.6603 63.9512 20.4896C62.6993 22.1154 61.4464 23.7413 60.1945 25.3671C58.853 23.6292 57.4105 21.9895 55.8261 20.4896C57.0008 18.7794 58.1766 17.068 59.3524 15.3555Z" fill="#EDEDED"/>
<path d="M63.9505 20.4912C65.3624 22.3204 66.6687 24.2548 67.9092 26.2505C66.5915 27.7804 65.2727 29.3104 63.955 30.8403C62.7758 28.944 61.5354 27.1067 60.1939 25.3688C61.4468 23.7429 62.6987 22.1171 63.9505 20.4912Z" fill="#1D1D1B"/>
<path d="M67.9092 26.251C69.1508 28.2478 70.3288 30.3058 71.4854 32.3858C70.1075 33.8129 68.7297 35.2411 67.3519 36.6682C66.2533 34.6922 65.1342 32.7371 63.955 30.8408C65.2727 29.3109 66.5904 27.7809 67.9092 26.251Z" fill="#EDEDED"/>
<path d="M71.4856 32.3857C72.6422 34.4657 73.7771 36.5654 74.9336 38.6454C73.499 39.9685 72.0633 41.2915 70.6288 42.6158C69.5301 40.6398 68.452 38.6453 67.3533 36.6694C68.73 35.2411 70.1078 33.8128 71.4856 32.3857Z" fill="#1D1D1B"/>
<path d="M74.9336 38.6445C76.0901 40.7245 77.2681 42.7825 78.5098 44.7793C77.015 46.0007 75.5203 47.221 74.0256 48.4424C72.8464 46.5462 71.7274 44.5898 70.6287 42.615C72.0644 41.2907 73.499 39.9676 74.9336 38.6445Z" fill="#EDEDED"/>
<path d="M78.5081 44.7793C79.7498 46.7749 81.0549 48.7093 82.4668 50.5386C80.9063 51.6641 79.3457 52.7884 77.7852 53.9139C76.4437 52.176 75.2032 50.3386 74.024 48.4424C75.5187 47.221 77.0134 45.9996 78.5081 44.7793Z" fill="#1D1D1B"/>
<path d="M82.4696 50.5391C83.8814 52.3683 85.4 54.0935 87.0684 55.6732C85.4306 56.7131 83.7941 57.752 82.1563 58.792C80.572 57.2909 79.1295 55.6523 77.788 53.9144C79.3474 52.7889 80.9079 51.6634 82.4696 50.5391Z" fill="#EDEDED"/>
<path d="M87.0665 55.6729C88.7337 57.2525 90.5507 58.6865 92.5596 59.9322C90.8311 60.9006 89.1014 61.8689 87.3729 62.8384C85.4651 61.654 83.7388 60.2927 82.1544 58.7917C83.7922 57.7517 85.4299 56.7128 87.0665 55.6729Z" fill="#1D1D1B"/>
<path d="M92.5592 59.9326C94.568 61.1785 96.7675 62.2383 99.2031 63.0681C97.3634 63.9846 95.5236 64.9011 93.6839 65.8175C91.3709 65.0293 89.2803 64.0239 87.3725 62.8393C89.101 61.8708 90.8307 60.9023 92.5592 59.9326Z" fill="#EDEDED"/>
<path d="M44.297 13.4668C46.61 14.2549 48.7006 15.2602 50.6084 16.4446C49.5245 18.2265 48.4407 20.0095 47.3568 21.7925C45.5488 20.6705 43.5684 19.7183 41.3779 18.9718C42.3506 17.1368 43.3232 15.3018 44.297 13.4668Z" fill="#1D1D1B"/>
<path d="M50.6077 16.4443C52.5155 17.6288 54.2418 18.99 55.8262 20.4911C54.6504 22.2024 53.4757 23.9138 52.2999 25.6252C50.7995 24.2038 49.1641 22.9131 47.3561 21.7911C48.44 20.0092 49.5238 18.2262 50.6077 16.4443Z" fill="#EDEDED"/>
<path d="M55.826 20.4912C57.4103 21.9923 58.8528 23.6308 60.1943 25.3688C58.9425 26.9946 57.6895 28.6205 56.4377 30.2463C55.1666 28.5997 53.8001 27.0466 52.2997 25.6253C53.4744 23.914 54.6502 22.2026 55.826 20.4912Z" fill="#1D1D1B"/>
<path d="M60.1949 25.3691C61.5364 27.1071 62.7769 28.9444 63.9561 30.8407C62.6384 32.3706 61.3196 33.9005 60.0019 35.4305C58.884 33.6336 57.7093 31.8934 56.4382 30.2467C57.6901 28.6208 58.9419 26.995 60.1949 25.3691Z" fill="#EDEDED"/>
<path d="M63.9557 30.8408C65.1349 32.7371 66.2539 34.6934 67.3525 36.6682C65.9747 38.0965 64.5969 39.5236 63.2191 40.9507C62.1783 39.0787 61.1183 37.2264 60.0004 35.4295C61.3192 33.9007 62.6369 32.3708 63.9557 30.8408Z" fill="#1D1D1B"/>
<path d="M67.3525 36.668C68.4511 38.644 69.5293 40.6396 70.6279 42.6144C69.1934 43.9375 67.7577 45.2606 66.322 46.5849C65.2812 44.7129 64.2598 42.8224 63.219 40.9516C64.5969 39.5233 65.9747 38.0962 67.3525 36.668Z" fill="#EDEDED"/>
<path d="M70.6285 42.6143C71.7271 44.5902 72.8462 46.5454 74.0254 48.4417C72.5307 49.6631 71.036 50.8834 69.5412 52.1048C68.4233 50.3079 67.3633 48.4555 66.3226 46.5836C67.7583 45.2616 69.1928 43.9385 70.6285 42.6143Z" fill="#1D1D1B"/>
<path d="M74.024 48.4424C75.2032 50.3386 76.4437 52.176 77.7852 53.9139C76.2246 55.0394 74.6641 56.1638 73.1024 57.2893C71.8313 55.6426 70.6566 53.9024 69.5387 52.1055C71.0345 50.8841 72.5292 49.6626 74.024 48.4424Z" fill="#EDEDED"/>
<path d="M77.7859 53.9141C79.1274 55.652 80.5699 57.2917 82.1543 58.7916C80.5166 59.8316 78.88 60.8705 77.2423 61.9105C75.7419 60.4891 74.3743 58.9361 73.1043 57.2894C74.6648 56.1639 76.2254 55.0396 77.7859 53.9141Z" fill="#1D1D1B"/>
<path d="M82.1546 58.792C83.739 60.293 85.4652 61.6543 87.373 62.8387C85.6445 63.8071 83.9149 64.7754 82.1864 65.7449C80.3784 64.6229 78.7441 63.3333 77.2426 61.9108C78.8803 60.8708 80.5169 59.832 82.1546 58.792Z" fill="#EDEDED"/>
<path d="M87.3732 62.8389C89.281 64.0235 91.3716 65.029 93.6846 65.8172C91.8448 66.7336 90.0051 67.6501 88.1654 68.5666C85.9738 67.82 83.9933 66.8666 82.1865 65.7455C83.915 64.7759 85.6447 63.8074 87.3732 62.8389Z" fill="#1D1D1B"/>
<path d="M41.3766 18.9707C43.5682 19.7172 45.5475 20.6705 47.3555 21.7914C46.2716 23.5744 45.1877 25.3563 44.1039 27.1393C42.3969 26.0796 40.5265 25.1806 38.4564 24.4746C39.4302 22.6407 40.404 20.8057 41.3766 18.9707Z" fill="#EDEDED"/>
<path d="M47.355 21.792C49.163 22.914 50.7984 24.2036 52.2988 25.6261C51.123 27.3375 49.9484 29.0488 48.7726 30.7602C47.355 29.4175 45.8104 28.1983 44.1034 27.1399C45.1862 25.3557 46.2712 23.5738 47.355 21.792Z" fill="#1D1D1B"/>
<path d="M52.2985 25.625C53.8001 27.0463 55.1665 28.5994 56.4365 30.246C55.1847 31.8719 53.9317 33.4977 52.6799 35.1236C51.4791 33.5682 50.1887 32.1018 48.7711 30.7591C49.9481 29.0477 51.1239 27.3364 52.2985 25.625Z" fill="#EDEDED"/>
<path d="M56.4373 30.2461C57.7084 31.8927 58.8831 33.633 60.001 35.4299C58.6833 36.9598 57.3645 38.4898 56.0468 40.0197C54.9914 38.3234 53.8814 36.679 52.6817 35.1237C53.9325 33.4978 55.1854 31.8719 56.4373 30.2461Z" fill="#1D1D1B"/>
<path d="M60.001 35.4297C61.119 37.2266 62.179 39.0789 63.2197 40.9509C61.8419 42.3791 60.4641 43.8062 59.0863 45.2333C58.1034 43.4654 57.1024 41.7159 56.0469 40.0195C57.3646 38.4896 58.6822 36.9596 60.001 35.4297Z" fill="#EDEDED"/>
<path d="M63.2193 40.9512C64.2601 42.8232 65.2815 44.7136 66.3223 46.5845C64.8877 47.9076 63.452 49.2307 62.0174 50.5549C61.0346 48.7869 60.0699 47.0016 59.087 45.2336C60.4637 43.8065 61.8415 42.3783 63.2193 40.9512Z" fill="#1D1D1B"/>
<path d="M66.3223 46.585C67.3631 48.4569 68.4231 50.3093 69.541 52.1062C68.0463 53.3276 66.5516 54.5478 65.0569 55.7692C64.0014 54.0729 63.0004 52.3222 62.0175 50.5554C63.4521 49.2312 64.8878 47.9081 66.3223 46.585Z" fill="#EDEDED"/>
<path d="M69.5398 52.1064C70.6577 53.9033 71.8324 55.6436 73.1035 57.2902C71.543 58.4157 69.9824 59.5401 68.4208 60.6656C67.22 59.1102 66.1111 57.467 65.0557 55.7695C66.5504 54.5481 68.0451 53.3279 69.5398 52.1064Z" fill="#1D1D1B"/>
<path d="M73.1042 57.29C74.3753 58.9367 75.7418 60.4898 77.2422 61.9111C75.6045 62.9511 73.9679 63.9899 72.3302 65.0299C70.9126 63.6871 69.6222 62.2208 68.4214 60.6654C69.982 59.5399 71.5425 58.4144 73.1042 57.29Z" fill="#EDEDED"/>
<path d="M77.2417 61.9111C78.7433 63.3325 80.3776 64.6232 82.1855 65.7452C80.457 66.7136 78.7274 67.6819 76.9989 68.6503C75.2919 67.5906 73.7473 66.3727 72.3297 65.0299C73.9674 63.99 75.604 62.95 77.2417 61.9111Z" fill="#1D1D1B"/>
<path d="M82.1862 65.7441C83.9941 66.8652 85.9746 67.8187 88.165 68.5653C86.3253 69.4818 84.4856 70.3982 82.6458 71.3147C80.5768 70.6097 78.7065 69.7094 76.9995 68.6496C78.728 67.6823 80.4577 66.7126 82.1862 65.7441Z" fill="#EDEDED"/>
<path d="M38.457 24.4756C40.526 25.1805 42.3964 26.0806 44.1045 27.1403C43.0206 28.9233 41.9368 30.7051 40.8529 32.4882C39.2458 31.4909 37.4855 30.6439 35.538 29.9806C36.5106 28.1445 37.4833 26.3094 38.457 24.4756Z" fill="#1D1D1B"/>
<path d="M44.1033 27.1387C45.8103 28.1983 47.3549 29.4163 48.7725 30.759C47.5967 32.4704 46.422 34.1817 45.2462 35.8931C43.9115 34.6289 42.4588 33.4826 40.8517 32.4854C41.9356 30.7035 43.0195 28.9217 44.1033 27.1387Z" fill="#EDEDED"/>
<path d="M48.7729 30.7598C50.1904 32.1025 51.4809 33.5689 52.6816 35.1243C51.4298 36.7501 50.1768 38.376 48.925 40.0018C47.7957 38.5378 46.5802 37.158 45.2466 35.8939C46.4224 34.1825 47.5982 32.4711 48.7729 30.7598Z" fill="#1D1D1B"/>
<path d="M52.6818 35.124C53.8825 36.6794 54.9914 38.3226 56.0469 40.0201C54.7292 41.55 53.4104 43.08 52.0927 44.6099C51.0997 43.0129 50.0544 41.4657 48.9251 40.0027C50.1781 38.3757 51.4299 36.7499 52.6818 35.124Z" fill="#EDEDED"/>
<path d="M56.0466 40.0195C57.1021 41.7159 58.1031 43.4665 59.0859 45.2334C57.7081 46.6616 56.3303 48.0887 54.9525 49.5158C54.0275 47.8518 53.0855 46.2052 52.0913 44.6082C53.4112 43.0794 54.7289 41.5495 56.0466 40.0195Z" fill="#1D1D1B"/>
<path d="M59.0852 45.2344C60.0681 47.0024 61.0328 48.7877 62.0156 50.5557C60.5799 51.8788 59.1454 53.2019 57.7097 54.5261C56.7847 52.8621 55.8767 51.182 54.9518 49.518C56.3307 48.0897 57.7085 46.6626 59.0852 45.2344Z" fill="#EDEDED"/>
<path d="M62.0173 50.5557C63.0001 52.3237 64.0011 54.0732 65.0566 55.7695C63.5619 56.9909 62.0672 58.2123 60.5725 59.4326C59.5794 57.8356 58.6374 56.189 57.7113 54.525C59.147 53.2019 60.5816 51.8788 62.0173 50.5557Z" fill="#1D1D1B"/>
<path d="M65.0558 55.7686C66.1113 57.4661 67.2213 59.1092 68.4209 60.6646C66.8604 61.7901 65.2998 62.9144 63.7381 64.0399C62.6089 62.5759 61.5636 61.0297 60.5705 59.4328C62.0664 58.2114 63.5611 56.99 65.0558 55.7686Z" fill="#EDEDED"/>
<path d="M68.4213 60.665C69.6221 62.2204 70.9125 63.6868 72.3301 65.0295C70.6924 66.0695 69.0546 67.1084 67.4181 68.1484C66.0845 66.8842 64.869 65.5045 63.7397 64.0404C65.3003 62.9149 66.8608 61.7894 68.4213 60.665Z" fill="#1D1D1B"/>
<path d="M72.3309 65.0293C73.7484 66.3722 75.2931 67.5915 77 68.6502C75.2715 69.6187 73.5418 70.5872 71.8133 71.5568C70.2062 70.5594 68.7535 69.413 67.4188 68.1486C69.0554 67.1084 70.6931 66.0683 72.3309 65.0293Z" fill="#EDEDED"/>
<path d="M76.9992 68.6494C78.7061 69.7092 80.5765 70.6084 82.6455 71.3145C80.8058 72.231 78.966 73.1475 77.1263 74.064C75.1787 73.4006 73.4184 72.5535 71.8114 71.5561C73.541 70.5864 75.2695 69.6179 76.9992 68.6494Z" fill="#1D1D1B"/>
<path d="M35.5366 29.9795C37.4842 30.6428 39.2445 31.4898 40.8516 32.487C39.7677 34.2689 38.6838 36.0519 37.6 37.8349C36.0939 36.9001 34.4437 36.1062 32.6176 35.4845C33.5902 33.6484 34.564 31.8133 35.5366 29.9795Z" fill="#EDEDED"/>
<path d="M40.8516 32.4873C42.4587 33.4845 43.9114 34.6309 45.2461 35.895C44.0703 37.6064 42.8945 39.3177 41.7198 41.0291C40.4691 39.8447 39.1061 38.7689 37.6 37.834C38.6839 36.0522 39.7677 34.2692 40.8516 32.4873Z" fill="#1D1D1B"/>
<path d="M45.2465 35.8945C46.58 37.1575 47.7955 38.5384 48.9248 40.0025C47.673 41.6284 46.4211 43.2542 45.1681 44.8801C44.1092 43.5073 42.9698 42.2142 41.7191 41.0286C42.896 39.3173 44.0707 37.6059 45.2465 35.8945Z" fill="#EDEDED"/>
<path d="M48.9242 40.002C50.0534 41.466 51.0987 43.0122 52.0918 44.6091C50.7741 46.1391 49.4553 47.669 48.1377 49.199C47.2059 47.7014 46.2276 46.2511 45.1687 44.8795C46.4205 43.2537 47.6723 41.6278 48.9242 40.002Z" fill="#1D1D1B"/>
<path d="M52.0929 44.6104C53.086 46.2073 54.028 47.854 54.9541 49.518C53.5763 50.9462 52.1985 52.3733 50.8207 53.8004C49.9536 52.2404 49.0694 50.6966 48.1388 49.199C49.4576 47.6702 50.7753 46.1403 52.0929 44.6104Z" fill="#EDEDED"/>
<path d="M54.953 49.5176C55.878 51.1816 56.786 52.8617 57.7109 54.5257C56.2752 55.8488 54.8407 57.1719 53.4061 58.4962C52.539 56.9362 51.6878 55.3612 50.8196 53.8012C52.1974 52.3729 53.5752 50.9447 54.953 49.5176Z" fill="#1D1D1B"/>
<path d="M57.7111 54.5244C58.6361 56.1884 59.5781 57.8351 60.5723 59.432C59.0775 60.6534 57.5828 61.8737 56.0881 63.0951C55.1575 61.5975 54.2733 60.0537 53.4063 58.4937C54.8408 57.1718 56.2765 55.8475 57.7111 54.5244Z" fill="#EDEDED"/>
<path d="M60.5716 59.4326C61.5647 61.0296 62.6089 62.5769 63.7393 64.0398C62.1787 65.1653 60.6182 66.2896 59.0565 67.4151C57.9976 66.0423 57.0181 64.5921 56.0875 63.0957C57.5822 61.8754 59.0769 60.654 60.5716 59.4326Z" fill="#1D1D1B"/>
<path d="M63.7387 64.04C64.8679 65.5041 66.0834 66.8839 67.417 68.148C65.7793 69.188 64.1427 70.2269 62.505 71.2668C61.2543 70.0824 60.1159 68.7882 59.0559 67.4166C60.6176 66.2899 62.1781 65.1644 63.7387 64.04Z" fill="#EDEDED"/>
<path d="M67.418 68.1475C68.7527 69.4107 70.2054 70.5583 71.8125 71.5557C70.084 72.5242 68.3543 73.4927 66.6258 74.4612C65.1198 73.5262 63.7567 72.4514 62.506 71.2656C64.1426 70.2278 65.7803 69.1876 67.418 68.1475Z" fill="#1D1D1B"/>
<path d="M71.812 71.5547C73.4191 72.5521 75.1794 73.3992 77.127 74.0626C75.2872 74.9791 73.4475 75.8956 71.6077 76.8121C69.7816 76.1903 68.1314 75.3963 66.6253 74.4613C68.3539 73.4928 70.0824 72.5243 71.812 71.5547Z" fill="#EDEDED"/>
<path d="M32.6182 35.4834C34.4443 36.1051 36.0945 36.9001 37.6006 37.8338C36.5167 39.6168 35.4329 41.3986 34.349 43.1817C32.9428 42.3092 31.4027 41.5685 29.698 40.9873C30.6718 39.1523 31.6444 37.3184 32.6182 35.4834Z" fill="#1D1D1B"/>
<path d="M37.5999 37.834C39.106 38.7688 40.469 39.8435 41.7197 41.0291C40.5439 42.7404 39.3693 44.4518 38.1935 46.1632C37.0256 45.0573 35.7545 44.0543 34.3483 43.1819C35.4322 41.3989 36.516 39.617 37.5999 37.834Z" fill="#EDEDED"/>
<path d="M41.7199 41.0283C42.9706 42.2128 44.11 43.507 45.1689 44.8798C43.9171 46.5056 42.6641 48.1315 41.4123 49.7573C40.4238 48.477 39.3603 47.2683 38.1936 46.1636C39.3683 44.4511 40.5441 42.7397 41.7199 41.0283Z" fill="#1D1D1B"/>
<path d="M45.1687 44.8789C46.2276 46.2505 47.207 47.7019 48.1377 49.1983C46.82 50.7283 45.5012 52.2582 44.1836 53.7882C43.3142 52.3911 42.4006 51.0368 41.412 49.7565C42.6639 48.1306 43.9157 46.5048 45.1687 44.8789Z" fill="#EDEDED"/>
<path d="M48.1375 49.1992C49.0681 50.6968 49.9522 52.2406 50.8193 53.8006C49.4415 55.2289 48.0637 56.656 46.6859 58.0831C45.8767 56.6271 45.0516 55.1861 44.1833 53.7891C45.501 52.2591 46.8198 50.7292 48.1375 49.1992Z" fill="#1D1D1B"/>
<path d="M50.8197 53.7998C51.6868 55.3598 52.538 56.9348 53.4062 58.4948C51.9706 59.8179 50.536 61.141 49.1003 62.4653C48.2911 61.0093 47.4966 59.5394 46.6863 58.0834C48.0641 56.6552 49.4419 55.2281 50.8197 53.7998Z" fill="#EDEDED"/>
<path d="M53.407 58.4951C54.2741 60.0551 55.1571 61.5989 56.0889 63.0965C54.5942 64.3179 53.0994 65.5382 51.6047 66.7596C50.7354 65.3625 49.9114 63.9216 49.1022 62.4656C50.5356 61.1413 51.9713 59.8182 53.407 58.4951Z" fill="#1D1D1B"/>
<path d="M56.0867 63.0967C57.0173 64.5943 57.9968 66.0445 59.0557 67.4161C57.4951 68.5405 55.9346 69.666 54.374 70.7915C53.3855 69.5111 52.4719 68.1568 51.6025 66.7598C53.0972 65.5384 54.5931 64.3169 56.0867 63.0967Z" fill="#EDEDED"/>
<path d="M59.0568 67.416C60.1157 68.7877 61.2552 70.0819 62.5059 71.2663C60.8681 72.3063 59.2304 73.3451 57.5938 74.3851C56.4271 73.2793 55.3637 72.0717 54.3751 70.7914C55.9346 69.6659 57.4962 68.5404 59.0568 67.416Z" fill="#1D1D1B"/>
<path d="M62.5061 71.2656C63.7569 72.4502 65.1199 73.5262 66.626 74.4612C64.8975 75.4297 63.1678 76.3982 61.4393 77.3678C60.0331 76.4953 58.762 75.4909 57.5941 74.3861C59.2307 73.3448 60.8684 72.3058 62.5061 71.2656Z" fill="#EDEDED"/>
<path d="M66.625 74.4609C68.1311 75.3959 69.7813 76.1899 71.6074 76.8117C69.7677 77.7282 67.9279 78.6446 66.0882 79.5611C64.3835 78.9798 62.8434 78.239 61.4384 77.3664C63.168 76.3979 64.8965 75.4294 66.625 74.4609Z" fill="#1D1D1B"/>
<path d="M0.341572 94.5944C-0.0182037 94.213 -0.112411 93.626 0.147491 93.1361L49.0555 1.86632C49.3778 1.25966 50.1223 1.03201 50.7182 1.36019C51.314 1.68721 51.5364 2.4464 51.2153 3.05306L2.30728 94.324C1.98609 94.9306 1.24158 95.1571 0.644596 94.8301C0.527699 94.7654 0.426689 94.6856 0.341572 94.5944Z" fill="#3C3C3B"/>
<path d="M51.6957 3.58723C50.9466 4.31996 49.756 4.29569 49.0365 3.53291C48.3169 2.77014 48.3408 1.55779 49.0898 0.825058C49.8389 0.0923315 51.0294 0.116598 51.749 0.879374C52.4685 1.64215 52.4447 2.8545 51.6957 3.58723Z" fill="#3C3C3B"/>
<path opacity="0.2" d="M104.723 60.3179C102.883 61.2342 101.043 62.1506 99.2034 63.0669C97.3637 63.9833 95.524 64.8996 93.6842 65.816C91.8445 66.7323 90.0048 67.6487 88.165 68.565C86.3253 69.4814 84.4855 70.3977 82.6458 71.3141C80.8061 72.2304 78.9663 73.1468 77.1266 74.0631C75.2868 74.9795 73.4471 75.8958 71.6074 76.8122C69.7676 77.7285 67.9279 78.6449 66.0882 79.5612C64.3835 78.98 62.8434 78.2393 61.4383 77.3668C60.3635 76.7001 59.3875 75.9351 58.4557 75.1274C59.7223 73.6899 60.8107 72.1264 61.7345 70.4705C62.7741 68.6078 63.5799 66.6156 64.1304 64.5125C65.1518 65.7963 66.2323 67.0247 67.4183 68.1479C66.2323 67.0247 65.153 65.7975 64.1304 64.5125C64.3835 63.543 64.6025 62.5597 64.7433 61.5462C66.5841 45.8562 63.4369 28.3046 65.4832 12.9277C66.2527 13.7956 66.9938 14.6899 67.7066 15.6132C69.1888 17.5349 70.5598 19.5652 71.8639 21.6614C73.1679 23.7575 74.4039 25.9196 75.6182 28.1024C76.8326 30.2864 78.0243 32.4912 79.2387 34.6751C80.4531 36.8591 81.6902 39.02 82.9931 41.1162C84.2971 43.2123 85.6681 45.2426 87.1504 47.1643C88.6326 49.0848 90.2272 50.8967 91.9784 52.5549C93.7296 54.2131 95.6375 55.7188 97.7462 57.0269C99.856 58.335 102.166 59.4466 104.723 60.3179Z" fill="#1D1D1B"/>
</svg>
