<svg width="1266" height="115" viewBox="0 0 1266 115" fill="none" xmlns="http://www.w3.org/2000/svg">
<g clip-path="url(#clip0_3723_30)">
<rect width="1266" height="115" fill="white"/>
<g style="mix-blend-mode:multiply">
<path d="M57.5524 0H0V57.5126H57.5524V0Z" fill="#4D4D4D"/>
<path d="M115.105 57.5127H57.5527V115.025H115.105V57.5127Z" fill="#4D4D4D"/>
<path d="M172.631 0H115.079V57.5126H172.631V0Z" fill="#4D4D4D"/>
<path d="M230.184 57.5127H172.632V115.025H230.184V57.5127Z" fill="#4D4D4D"/>
<path d="M287.737 0H230.185V57.5126H287.737V0Z" fill="#4D4D4D"/>
<path d="M345.289 57.5127H287.736V115.025H345.289V57.5127Z" fill="#4D4D4D"/>
<path d="M402.816 0H345.264V57.5126H402.816V0Z" fill="#4D4D4D"/>
<path d="M460.369 57.5127H402.816V115.025H460.369V57.5127Z" fill="#4D4D4D"/>
<path d="M517.921 0H460.368V57.5126H517.921V0Z" fill="#4D4D4D"/>
<path d="M575.473 57.5127H517.921V115.025H575.473V57.5127Z" fill="#4D4D4D"/>
<path d="M633 0H575.447V57.5126H633V0Z" fill="#4D4D4D"/>
<path d="M690.552 57.5127H633V115.025H690.552V57.5127Z" fill="#4D4D4D"/>
<path d="M748.105 0H690.553V57.5126H748.105V0Z" fill="#4D4D4D"/>
<path d="M805.631 57.5127H748.079V115.025H805.631V57.5127Z" fill="#4D4D4D"/>
<path d="M863.184 0H805.632V57.5126H863.184V0Z" fill="#4D4D4D"/>
<path d="M920.736 57.5127H863.184V115.025H920.736V57.5127Z" fill="#4D4D4D"/>
<path d="M978.289 0H920.736V57.5126H978.289V0Z" fill="#4D4D4D"/>
<path d="M1035.82 57.5127H978.264V115.025H1035.82V57.5127Z" fill="#4D4D4D"/>
<path d="M1093.37 0H1035.82V57.5126H1093.37V0Z" fill="#4D4D4D"/>
<path d="M1150.92 57.5127H1093.37V115.025H1150.92V57.5127Z" fill="#4D4D4D"/>
<path d="M1208.47 0H1150.92V57.5126H1208.47V0Z" fill="#4D4D4D"/>
<path d="M1266 57.5127H1208.45V115.025H1266V57.5127Z" fill="#4D4D4D"/>
</g>
</g>
<defs>
<clipPath id="clip0_3723_30">
<rect width="1266" height="115" fill="white"/>
</clipPath>
</defs>
</svg>
