<svg width="70" height="81" viewBox="0 0 70 81" fill="none" xmlns="http://www.w3.org/2000/svg">
<path d="M69.6145 34.3126C68.9753 39.8893 67.5794 44.9868 65.95 49.4017C65.7468 49.9613 65.5381 50.4962 65.317 51.0311C65.1199 51.535 64.9174 52.0397 64.7079 52.5251C62.6234 57.4564 60.361 61.2932 58.836 63.636C58.8113 63.6669 58.7928 63.6978 58.7742 63.7342C58.7433 63.7651 58.7186 63.8138 58.6822 63.8694C58.2517 64.4784 56.9423 66.1627 54.8701 67.3925C54.8516 67.4048 54.8392 67.4172 54.8207 67.4233C53.5175 68.1182 51.722 69.065 49.6312 70.141C42.4739 73.7993 31.8671 78.848 25.9025 79.9362C25.4472 80.0221 25.0229 80.0777 24.6295 80.1148C19.3233 80.5824 11.3112 80.2809 9.42366 79.5366C7.52997 78.7985 6.04825 78.2211 5.05815 76.0013C4.8247 75.4602 4.55418 74.8333 4.29532 74.1625C4.23353 73.9902 4.16624 73.8185 4.09895 73.64C4.03098 73.4676 3.97605 73.2898 3.90807 73.1113C3.84078 72.9389 3.78517 72.7611 3.72337 72.5764C3.44666 71.7586 3.21321 70.9285 3.03469 70.1602C2.99762 70.0064 2.96741 69.8711 2.94269 69.7235C2.88707 69.453 2.8445 69.1886 2.80742 68.9305C2.79507 68.8385 2.78889 68.7396 2.78271 68.6538C2.77035 68.5741 2.77035 68.5 2.76417 68.4327C2.75181 68.2363 2.75181 68.0454 2.75799 67.8669C2.77035 67.5408 2.80124 67.1473 2.84999 66.7168V66.7045C2.89943 66.274 2.96054 65.8009 3.02851 65.3209C3.16378 64.3741 3.32376 63.3778 3.4652 62.5477C3.25578 61.699 3.03469 60.7336 2.8136 59.6701C2.32199 57.3335 1.8235 54.5053 1.44243 51.3448C1.0181 47.8156 0.274494 44.0647 0.0836151 39.9999C0.0527174 39.4218 0.0341797 38.8374 0.0341797 38.2476C0.0341797 37.3502 0.0588971 36.4274 0.126186 35.4929C0.236731 33.9371 0.409072 32.4059 0.673419 30.8693C0.777785 30.2424 0.89451 29.621 1.03595 28.9941C1.03595 28.9879 1.03595 28.9879 1.03595 28.9879C1.17122 28.3611 1.32502 27.7335 1.49118 27.1066C5.62324 11.8699 18.4067 5.15548 28.7979 2.38841C28.7979 2.38841 28.8103 2.38841 28.8165 2.38841C29.591 2.18517 30.36 2.00116 31.1036 1.835C33.1078 1.39831 34.9836 1.10306 36.6439 0.919052H36.6624C38.8026 0.679422 40.5672 0.629987 41.7722 0.679423H41.8155C42.8488 0.72886 44.1829 0.783787 45.7079 0.931409C46.1508 0.974666 46.6115 1.02342 47.0853 1.08521C50.4366 1.49718 54.4636 2.39528 58.2084 4.44895C65.4639 8.42583 71.6249 16.7394 69.6145 34.3126Z" fill="#D94954"/>
<path d="M58.2081 4.44772C54.4632 2.39405 50.4362 1.49595 47.0849 1.08398C36.4169 4.44772 28.3128 13.3696 24.8632 20.6498C21.2598 28.2623 21.1617 36.3726 21.1617 36.3726L23.891 61.4513L16.6897 61.5818C16.6897 61.5818 16.5503 62.427 16.7041 62.6961C16.8579 62.9653 18.6637 67.8458 19.8173 69.037C20.9701 70.2283 20.5478 70.6513 23.045 70.5359C23.3897 70.5201 23.7117 70.4858 24.0118 70.4391C24.4746 70.3677 24.8989 70.7131 24.9497 71.1779L25.9027 79.9371C31.8674 78.8488 42.4735 73.8008 49.6315 70.1418C51.7223 69.0659 53.5178 68.119 54.821 67.4242C54.8395 67.418 54.8519 67.4056 54.8704 67.3933C56.9426 66.1636 58.252 64.4786 58.6825 63.8703C58.7196 63.8146 58.7443 63.7659 58.7745 63.735C58.793 63.6979 58.8116 63.6677 58.8363 63.6368C60.3613 61.2941 62.6237 57.4573 64.7083 52.526C64.9177 52.0399 65.1202 51.5359 65.3173 51.0319C65.5384 50.497 65.7478 49.9622 65.9503 49.4026C67.5797 44.9876 68.9756 39.8902 69.6148 34.3135C71.6245 16.7395 65.4635 8.42598 58.2081 4.44772Z" fill="#C43951"/>
<path d="M4.63301 58.748L4.53482 61.1093L2.84987 66.7046C2.8993 66.2741 2.96041 65.801 3.02839 65.321C3.16365 64.3742 3.32363 63.3779 3.46508 62.5478C3.25566 61.6991 3.03457 60.7337 2.81348 59.6702L4.63301 58.748Z" fill="#EF7886"/>
<path d="M8.13213 37.1375C8.13213 37.1375 4.52053 37.6504 0.0341797 38.2492C0.0341797 37.3476 0.0602703 36.4269 0.126186 35.4924C0.238104 33.94 0.409073 32.4074 0.672047 30.868C0.882838 29.6184 1.15199 28.3681 1.49461 27.1054C5.93496 10.7255 20.3814 4.18612 31.1043 1.83789C7.47367 11.4354 8.13213 37.1375 8.13213 37.1375Z" fill="#E56373"/>
<path d="M10.0984 39.2755L6.82252 39.6044C6.78956 39.2755 6.08578 31.6115 9.27649 22.5928C11.7497 15.5866 17.3415 7.87654 28.8011 2.39047C28.8011 2.39047 28.808 2.39047 28.8142 2.39047C29.5907 2.18655 30.3604 2.00254 31.1033 1.83775C33.1096 1.39694 34.9848 1.10101 36.6423 0.916992C7.61145 10.4747 10.0654 38.9926 10.0984 39.2755Z" fill="#FFCE65"/>
<path d="M45.7075 0.929615C33.781 4.94907 25.7551 12.5273 21.8476 23.4541C18.8608 31.802 19.5186 39.0973 19.5255 39.17L16.2558 39.4921C16.2228 39.17 15.5122 31.4992 18.7029 22.4804C21.413 14.8103 27.9523 6.20558 41.7732 0.679688H41.813C42.8457 0.725691 44.1812 0.784739 45.7075 0.929615Z" fill="#FFCE65"/>
<path opacity="0.66" d="M35.3221 31.1824L33.1518 40.9715L19.1633 44.2981C19.1633 44.2981 7.87396 41.7892 0.0836151 39.9999C0.0527174 39.4218 0.0341797 38.8375 0.0341797 38.2477C0.0341797 37.3503 0.0588971 36.4275 0.126186 35.493C0.236731 33.9371 0.409072 32.4059 0.673419 30.8693C0.777785 30.2424 0.89451 29.621 1.03595 28.9941C1.27558 29.9472 2.31581 31.1378 3.35534 31.9006C5.45845 33.4379 11.4032 35.8438 21.6901 34.3065C31.9708 32.7692 35.3221 31.1824 35.3221 31.1824Z" fill="#EF7886"/>
<path d="M43.1285 56.5105C41.5692 59.4712 38.5233 60.7868 35.3196 62.5163C32.1158 64.2466 28.577 65.6411 26.11 64.9834C23.643 64.3256 16.9856 61.8586 12.539 60.8719C8.10485 59.8852 7.27611 59.7204 6.37527 59.9704C5.47374 60.2134 4.89492 61.2008 4.31611 61.8586C3.74347 62.5163 3.46745 62.5493 3.46745 62.5493C3.39535 62.2534 3.32257 61.9375 3.25048 61.6148C3.25048 61.6018 3.24361 61.5949 3.24361 61.5818C2.62497 58.9439 1.50029 55.1414 1.0073 51.0629C0.428483 46.2607 -0.295211 41.3397 0.125684 35.4918C0.237603 33.9394 0.408572 32.4068 0.671546 30.8674C0.842514 31.2883 1.10549 31.7161 1.52707 32.091C2.91472 33.3214 9.03934 35.7685 15.7428 35.7094H15.8286C22.578 35.6305 30.8799 32.7494 35.3203 31.1833C39.7078 29.6439 42.6485 29.223 45.2536 30.0126C45.2865 30.0195 45.3195 30.0256 45.3524 30.0387C47.9835 30.8544 49.3787 31.9269 49.707 37.4329C50.0358 42.9464 44.694 53.5505 43.1285 56.5105Z" fill="#494949"/>
<path d="M43.129 56.5105C41.5697 59.4712 38.5238 60.7868 35.3201 62.5163C32.1163 64.2466 28.5775 65.6411 26.1105 64.9834C23.6435 64.3256 16.986 61.8586 12.5395 60.8719C8.10535 59.8852 7.27661 59.7204 6.37577 59.9704C5.47424 60.2134 4.89542 61.2008 4.3166 61.8586C3.74397 62.5163 3.46795 62.5493 3.46795 62.5493C3.39585 62.2534 3.32307 61.9375 3.25098 61.6148C5.30327 60.3253 8.14518 58.4372 8.70477 57.6942C9.36255 56.8195 11.5597 52.3784 13.8098 46.7283C15.928 41.3933 16.0989 39.63 15.744 35.7094H15.8298C22.5792 35.6305 30.8811 32.7494 35.3215 31.1833C39.7089 29.6439 42.6497 29.223 45.2547 30.0126C45.2877 30.0195 45.3207 30.0256 45.3536 30.0387C47.9847 30.8544 49.3799 31.9269 49.7081 37.4329C50.0363 42.9464 44.6945 53.5505 43.129 56.5105Z" fill="#3A3A3A"/>
<path d="M65.3178 51.0312C65.1208 51.538 64.9169 52.0378 64.7061 52.5246C64.6072 52.7547 64.509 52.9854 64.4101 53.2085C64.3181 53.4255 64.2261 53.6294 64.1341 53.8402C63.9302 54.2941 63.7263 54.7417 63.5155 55.1818C63.3836 55.4647 63.2525 55.7408 63.1207 56.0106C62.8838 56.4974 62.6469 56.9712 62.41 57.4319C62.305 57.6427 62.1992 57.8528 62.088 58.0567C62.0489 58.1288 62.009 58.2078 61.9699 58.2805C61.8649 58.4845 61.7591 58.6815 61.6541 58.8724C61.4961 59.1683 61.3382 59.4581 61.1803 59.7341C61.0553 59.958 60.9372 60.1749 60.8123 60.3919C60.7203 60.5498 60.6283 60.7139 60.5424 60.8657C60.3914 61.1225 60.2465 61.3655 60.1016 61.6024C59.9897 61.7933 59.8716 61.9773 59.7659 62.1613C59.6539 62.3453 59.542 62.5163 59.437 62.6873C59.4239 62.7072 59.4109 62.7264 59.3978 62.7463C59.2331 63.0161 59.069 63.2723 58.9179 63.5091C58.8918 63.5483 58.865 63.5943 58.8389 63.6341C58.8129 63.6671 58.7929 63.7 58.773 63.733C58.7469 63.7659 58.7201 63.8119 58.681 63.871C58.2533 64.4766 56.9446 66.1602 54.8724 67.3906C54.8524 67.4036 54.8394 67.4167 54.8195 67.4235C53.9907 67.8643 52.9642 68.4102 51.7867 69.022C51.4578 69.1998 51.109 69.377 50.754 69.5617C50.4052 69.7457 50.0372 69.9297 49.6623 70.1206C49.6493 70.1274 49.6362 70.1336 49.6294 70.1336V70.1405C41.9324 74.0741 30.2427 79.6199 24.631 80.1136C19.3221 80.5805 11.3093 80.2784 9.42178 79.5348C7.5274 78.798 6.04706 78.2192 5.06039 76.0021C4.82351 75.4624 4.55367 74.8314 4.29756 74.1599C4.23165 73.989 4.16642 73.818 4.1005 73.6402C4.03459 73.4692 3.97554 73.2914 3.90963 73.1142C3.84371 72.9364 3.78466 72.7592 3.72561 72.5745C3.44959 71.7588 3.21271 70.9301 3.03487 70.1604C3.00192 70.0093 2.96896 69.8706 2.94287 69.7264C2.91678 69.6015 2.89687 69.4765 2.87695 69.3516L4.73219 63.3979C5.10708 62.0096 5.55476 61.2007 6.58056 61.2859C7.60705 61.3648 14.7183 62.5685 15.534 62.8184C16.3628 63.0615 16.6127 64.5288 17.0274 65.6013C17.4353 66.6669 18.7907 69.8775 19.8233 70.6994C20.8498 71.5219 21.6326 71.6009 22.5334 71.686C23.4411 71.765 30.0594 69.6269 32.8553 68.2715C35.0394 67.2127 49.0251 59.9696 56.2023 56.1541C58.2217 55.0816 59.702 54.2789 60.2348 53.9631C61.95 52.9387 63.7194 52.1031 65.3178 51.0312Z" fill="#89434D"/>
<path d="M64.7049 52.5234C64.6328 52.6944 64.56 52.8654 64.4879 53.0302C64.1721 53.7738 63.8432 54.4906 63.5143 55.1813C63.3825 55.4642 63.2513 55.7402 63.1195 56.0101C62.4617 57.3716 61.804 58.622 61.1791 59.7336C61.0542 59.9574 60.9361 60.1744 60.8111 60.3914C60.6923 60.6022 60.5674 60.8123 60.4493 61.01C60.2193 61.4179 59.9885 61.7996 59.7654 62.1615C59.6535 62.3393 59.5484 62.5164 59.4365 62.6874C59.2326 63.0232 59.0287 63.3452 58.8378 63.635C58.8117 63.6679 58.7918 63.7009 58.7719 63.7338C58.7458 63.7668 58.719 63.8128 58.6799 63.8718C58.6139 63.9638 58.5281 64.0826 58.4231 64.2206H58.4162C57.8305 64.9835 56.6269 66.3519 54.8705 67.3914C54.8506 67.4045 54.8375 67.4175 54.8176 67.4244C53.9889 67.8652 52.9624 68.4111 51.7849 69.0228C51.456 69.2007 51.1072 69.3778 50.7522 69.5625C50.4034 69.7465 50.0354 69.9305 49.6605 70.1214C49.6474 70.1283 49.6344 70.1345 49.6275 70.1345V70.1413C41.9305 74.075 30.2409 79.6208 24.6292 80.1144C19.3202 80.5813 11.3074 80.2792 9.41992 79.5356C7.99245 78.9829 6.80186 78.516 5.88042 77.3714C5.87424 77.3714 5.87424 77.3714 5.87424 77.3714C5.57831 76.9965 5.3016 76.5488 5.05854 76.003C4.57173 74.9113 3.97986 73.4378 3.51914 71.9636C3.47932 71.8386 3.44705 71.7137 3.40723 71.5887C4.42685 72.0426 6.4661 72.8253 9.57785 73.3712C14.2681 74.1937 19.4912 74.3977 22.616 73.904C25.7408 73.4103 35.648 68.891 38.2791 67.6544C40.0224 66.8387 48.8839 61.7797 55.4356 58.004C58.7774 56.0767 61.5142 54.4913 62.415 53.9646C63.2774 53.4579 64.054 52.9642 64.7049 52.5234Z" fill="#72333F"/>
<path d="M64.7052 52.5234C64.6331 52.6944 64.5603 52.8654 64.4882 53.0302C63.8174 53.4449 63.0738 53.8987 62.5808 54.1878C61.6793 54.7137 58.9431 56.2998 55.6014 58.2272C51.0951 60.8253 40.4052 66.963 38.4188 67.8906C38.3 67.9496 26.2355 73.6005 22.6699 74.1663C21.5253 74.3503 20.104 74.4361 18.5385 74.4361C15.7625 74.4361 12.5189 74.1601 9.51978 73.6335C6.71701 73.1398 4.59262 72.39 3.52012 71.9622C3.4803 71.8373 3.44803 71.7123 3.4082 71.5873C4.42783 72.0412 6.46708 72.8239 9.57882 73.3698C14.2691 74.1924 19.4922 74.3963 22.617 73.9026C25.7418 73.4089 35.649 68.8896 38.2801 67.653C40.0234 66.8373 48.8849 61.7783 55.4366 58.0026C58.7783 56.0753 61.5152 54.4899 62.416 53.9633C63.2777 53.4579 64.0543 52.9642 64.7052 52.5234Z" fill="#B7586A"/>
<path opacity="0.36" d="M69.6136 34.3151C68.9757 39.887 67.5812 44.9851 65.9491 49.3994C65.7452 49.9583 65.5344 50.4979 65.3174 51.0308C65.1203 51.5375 64.9164 52.0373 64.7056 52.5242C64.6068 52.7542 64.5086 52.9849 64.4097 53.208C64.3177 53.425 64.2257 53.6289 64.1337 53.8397C63.9298 54.2936 63.7258 54.7412 63.515 55.1814C63.3832 55.4642 63.2521 55.7403 63.1202 56.0101C62.8833 56.4969 62.6465 56.9707 62.4096 57.4314C62.3045 57.6422 62.1988 57.8523 62.0876 58.0562C62.0484 58.1283 62.0086 58.2073 61.9695 58.2801C61.8644 58.484 61.7587 58.681 61.6536 58.8719C61.4957 59.1678 61.3378 59.4576 61.1798 59.7336C61.0549 59.9575 60.9368 60.1744 60.8118 60.3914C60.7198 60.5493 60.6278 60.7134 60.542 60.8652C60.509 60.918 60.4761 60.964 60.45 61.01C60.3319 61.214 60.2131 61.411 60.1012 61.6019C59.9893 61.7928 59.8712 61.9768 59.7654 62.1608C59.6535 62.3448 59.5416 62.5158 59.4365 62.6868C59.4235 62.7067 59.4104 62.7259 59.3974 62.7458C59.2326 63.0156 59.0685 63.2718 58.9174 63.5086C58.8914 63.5478 58.8646 63.5938 58.8385 63.6336C58.8124 63.6666 58.7925 63.6995 58.7726 63.7325C58.7465 63.7654 58.7197 63.8114 58.6806 63.8705C58.2528 64.4761 56.9441 66.1597 54.8719 67.3901C54.852 67.4031 54.839 67.4162 54.819 67.423C53.9903 67.8639 52.9638 68.4097 51.7862 69.0215C51.4574 69.1993 51.1086 69.3765 50.7536 69.5612C50.4048 69.7452 50.0368 69.9292 49.6619 70.1201C49.6488 70.1269 49.642 70.1331 49.6289 70.14V70.1331C51.7341 66.1995 53.6875 62.1533 55.4377 58.0027C55.6945 57.3909 55.9506 56.7722 56.2005 56.1543C60.5619 45.3524 63.4697 33.8798 63.8844 22.0054C64.1934 13.3547 60.9045 7.64484 58.2075 4.44727C65.4623 8.42895 71.6267 16.737 69.6136 34.3151Z" fill="#72333F"/>
<path d="M64.9475 37.3147C64.2279 42.4547 60.63 46.2002 56.9113 45.6798C53.1919 45.1593 50.7606 40.5706 51.4795 35.4299C52.199 30.2899 55.7969 26.5444 59.5156 27.0649C63.235 27.5854 65.6663 32.174 64.9475 37.3147Z" fill="#441818"/>
<path opacity="0.36" d="M65.7687 37.8518C65.0492 42.9918 61.4513 46.7373 57.7326 46.2169C54.0132 45.6964 51.5819 41.1078 52.3008 35.9671C53.0203 30.8264 56.6182 27.0816 60.3369 27.602C64.0563 28.1225 66.4876 32.7118 65.7687 37.8518Z" fill="#72333F"/>
<path d="M64.8366 37.211C64.1541 42.0867 60.7416 45.6385 57.2145 45.1448C53.6873 44.6512 51.381 40.2987 52.0628 35.423C52.7453 30.5474 56.1578 26.9955 59.6849 27.4892C63.2128 27.9835 65.5191 32.336 64.8366 37.211Z" fill="#FFB636"/>
<path d="M63.0545 37.2296C62.5375 40.9243 59.9517 43.6158 57.2787 43.2416C54.6057 42.8674 52.8583 39.5696 53.3746 35.8749C53.8916 32.1802 56.4774 29.4887 59.1504 29.8629C61.8234 30.2371 63.5715 33.5349 63.0545 37.2296Z" fill="#FFDDA1"/>
<path d="M63.9867 37.4066C63.4703 41.0972 60.8873 43.786 58.217 43.4124C55.5468 43.0389 53.8007 39.7439 54.317 36.0533C54.8334 32.3627 57.4171 29.6733 60.0874 30.0475C62.7569 30.421 64.503 33.716 63.9867 37.4066Z" fill="#FFCE65"/>
<path d="M63.7018 37.3196C63.2514 40.5391 60.9979 42.8846 58.6689 42.5585C56.3399 42.2323 54.817 39.3588 55.2674 36.1393C55.7178 32.9197 57.9713 30.5743 60.3003 30.9004C62.6293 31.2265 64.1529 34.1 63.7018 37.3196Z" fill="#F2B549"/>
<path d="M43.129 56.5103C41.5697 59.471 38.5239 60.7866 35.3201 62.5161C32.1164 64.2464 28.5775 65.6409 26.1105 64.9832C23.6435 64.3254 16.9861 61.8584 12.5396 60.8717C8.10538 59.885 7.27664 59.7202 6.3758 59.9702C5.47427 60.2132 4.89545 61.2006 4.31664 61.8584C3.744 62.5161 3.46798 62.5491 3.46798 62.5491C3.39588 62.2401 3.31692 61.9174 3.24414 61.5817C3.5799 61.0227 4.4876 59.5493 5.04651 59.2135C5.74411 58.8057 6.48703 58.5557 7.84241 58.8448C9.20397 59.1346 17.098 60.858 19.026 61.4368C20.9602 62.0087 25.3216 63.614 27.0848 63.818C28.8543 64.0288 30.3346 63.1602 32.1438 62.5876C33.9531 62.0087 40.1628 58.6402 40.8206 57.9364C41.4784 57.2388 42.5049 55.3513 42.8338 54.4436C43.1627 53.5421 47.1093 44.5364 47.4389 43.1817C47.7678 41.8201 48.5045 39.6031 48.4654 37.5899C48.4263 35.5706 47.8468 33.1097 47.3139 32.1629C46.7811 31.216 45.1367 30.0248 45.1367 30.0248C45.1367 30.0248 45.1765 30.0179 45.2555 30.0117C45.2884 30.0186 45.3214 30.0248 45.3543 30.0378C47.9854 30.8535 49.3806 31.926 49.7089 37.432C50.0364 42.9462 44.6945 53.5503 43.129 56.5103Z" fill="#441818"/>
<path d="M16.7799 72.432L15.6772 73.0286L15.5124 73.0025L14.6047 73.1213C14.6047 73.1213 14.6047 73.1344 14.5985 73.1543C10.5399 72.8913 7.01347 71.9438 5.48712 71.391C4.9543 71.1933 4.56636 70.7264 4.4874 70.1675C4.42835 69.7665 4.3954 69.3058 4.47436 68.9639C4.57323 68.5361 5.10605 66.3657 5.6059 64.5565C5.88192 63.9708 6.50743 62.5241 6.50743 62.5241L7.31626 62.0764C7.45427 62.0043 7.60602 61.9775 7.76394 62.0043C8.08596 62.0503 8.63251 62.1423 8.63868 62.1423L14.0987 62.9649C14.8155 63.0768 15.3552 63.7545 15.5131 64.5242C15.9209 66.4845 16.7627 70.2485 16.9076 71.1487C16.9399 71.3498 16.9859 71.5613 17.0072 71.7474C17.0388 72.0248 16.9653 72.2363 16.7799 72.432Z" fill="#592531"/>
<path d="M7.21749 62.3798C6.71626 62.3015 6.23357 62.5947 6.07565 63.0767C5.52224 64.763 4.31036 68.4735 4.18403 69.0427C4.11056 69.3737 4.14077 69.8206 4.19776 70.2127C4.27672 70.7606 4.65093 71.2159 5.17138 71.4054C6.76158 71.9828 10.6066 73.0065 14.9289 73.1816C15.8057 73.2173 16.436 72.6069 16.2904 71.7418C16.2602 71.5626 16.2348 71.3745 16.217 71.1808C16.1366 70.2944 15.3161 66.5812 14.8863 64.6744C14.7305 63.9837 14.1702 63.4619 13.4698 63.3534L7.21749 62.3798Z" fill="#72333F"/>
<path d="M5.56229 71.1189C5.38102 71.1189 5.2334 70.972 5.2334 70.79C5.2334 70.6383 5.23752 69.2932 5.40574 68.7144L6.99389 63.1549C7.04401 62.9798 7.22664 62.8775 7.40036 62.9297C7.57545 62.9791 7.67638 63.1617 7.62626 63.3361L6.03811 68.897C5.91727 69.3118 5.89187 70.4042 5.89187 70.79C5.89118 70.972 5.74424 71.1189 5.56229 71.1189Z" fill="#592531"/>
<path d="M7.92586 71.9001C7.92105 71.9001 7.91693 71.9001 7.91213 71.9001C7.73086 71.8926 7.58942 71.7395 7.59697 71.5575C7.6004 71.4717 7.68486 69.4489 7.89771 68.5529L9.08555 63.5392C9.12744 63.3621 9.3039 63.2495 9.48105 63.2955C9.65751 63.3374 9.76736 63.5145 9.72548 63.691L8.53695 68.7046C8.3392 69.5389 8.25475 71.5644 8.25337 71.5843C8.2472 71.7615 8.10163 71.9001 7.92586 71.9001Z" fill="#592531"/>
<path d="M10.5986 72.414C10.4235 72.414 10.2779 72.276 10.2703 72.0995C10.201 70.4551 10.2868 68.7962 10.5251 67.1689L11.014 63.8285C11.04 63.6486 11.2062 63.5285 11.3868 63.5504C11.5667 63.5765 11.691 63.7441 11.6649 63.924L11.176 67.2643C10.9439 68.8511 10.8601 70.4688 10.9274 72.0714C10.935 72.2533 10.7942 72.4064 10.613 72.4147C10.6075 72.414 10.6034 72.414 10.5986 72.414Z" fill="#592531"/>
<path d="M13.6966 72.7429C13.6843 72.7429 13.6719 72.7422 13.6588 72.7408C13.4783 72.7202 13.3492 72.5568 13.3691 72.3769L13.4879 71.3422C13.5813 70.5574 13.6485 69.9895 13.56 68.8216L13.0471 64.3112C13.0265 64.1306 13.1562 63.9672 13.3368 63.9466C13.5201 63.9253 13.6801 64.0558 13.7007 64.2364L14.215 68.7591C14.3098 70.0039 14.2356 70.6294 14.1415 71.4204L14.0228 72.4524C14.0042 72.6186 13.8614 72.7429 13.6966 72.7429Z" fill="#592531"/>
<path opacity="0.35" d="M3.19791 55.4472C3.19791 55.4472 0.840758 42.3451 2.04646 35.2188C2.04646 35.2188 6.37695 38.1794 14.2167 38.2886C22.0558 38.3985 28.1956 36.4251 28.1956 36.4251L19.9871 39.1393C12.1885 41.7169 6.00206 47.7268 3.19791 55.4472Z" fill="#8E8E8E"/>
<path d="M58.4166 64.2207C57.831 64.9835 56.6273 66.352 54.871 67.3915C54.851 67.4046 54.838 67.4176 54.8181 67.4245C53.9893 67.8653 52.9628 68.4111 51.7853 69.0229C51.4564 69.2007 51.1076 69.3779 50.7526 69.5626C50.4038 69.7466 50.0358 69.9306 49.6609 70.1215C49.6479 70.1284 49.6348 70.1345 49.6279 70.1345V70.1414C41.931 74.075 30.2413 79.6208 24.6296 80.1145C19.3207 80.5814 11.3079 80.2793 9.42037 79.5357C7.99289 78.983 6.8023 78.5161 5.88086 77.3715C7.22251 78.0753 9.63734 78.9308 13.6499 79.2398C20.7942 79.7856 24.1359 79.6215 26.8268 78.858C29.5108 78.0883 40.0661 73.7029 44.8876 71.4007C48.506 69.6766 55.3049 65.951 58.4166 64.2207Z" fill="#441818"/>
</svg>
