<svg width="172" height="172" viewBox="0 0 172 172" fill="none" xmlns="http://www.w3.org/2000/svg">
<g id="Group">
<path id="Vector" d="M0.0310516 136.799L0.0571747 136.812C-0.124252 137.996 0.354752 139.283 1.60587 139.901L60.7494 170.161C62.5317 171.042 64.4418 171.541 66.3779 171.62C67.9788 171.711 69.5928 171.515 71.1546 171.042L169.999 140.099C171.302 139.704 171.961 138.547 171.974 137.392L172 137.378V128.229L18.2085 128.611H18.1955L0.0296326 128.651L0.0310516 136.799Z" fill="#72333F"/>
<path id="Vector_2" d="M0.0310364 136.799L0.0571747 136.812C-0.124252 137.996 0.354736 139.283 1.60585 139.901L60.7494 170.161C62.5317 171.042 64.4417 171.541 66.3779 171.62V160.709C66.3779 160.709 18.776 129.004 18.2985 128.663C18.2854 128.649 18.2593 128.636 18.2085 128.609H18.1955L0.0296173 128.649L0.0310364 136.799Z" fill="#562331"/>
<path id="Vector_3" d="M0.585526 129.964C0.830826 130.306 1.16611 130.609 1.60588 130.819L47.4255 153.678L60.7494 160.329C63.9904 161.946 67.7075 162.262 71.1546 161.21L169.999 131.017C172.438 130.267 172.71 126.876 170.425 125.745L106.039 93.6055L2.05728 125.364C0.00497437 125.994 -0.562531 128.439 0.585526 129.964Z" fill="#DDBD52"/>
<path id="Vector_4" d="M51.5582 155.741L112.509 137.272L85.1642 133.617L34.5419 119.96L0.587608 129.963C0.832901 130.304 1.16814 130.607 1.60791 130.817L51.5582 155.741Z" fill="#BA3F57"/>
<path id="Vector_5" d="M33.8294 123.418C33.8294 133.33 55.364 141.361 81.935 141.361C82.607 141.361 83.2775 141.361 83.9364 141.348C103.703 141.045 120.396 136.287 127.006 129.689C128.968 127.744 130.039 125.626 130.039 123.418C130.039 122.709 129.91 122.012 129.691 121.316H129.704L127.702 114.401L126.437 110.051L125.985 108.46C125.985 108.447 125.972 108.447 125.972 108.434L124.424 103.098L120.692 90.2411L119.505 86.1004L119.117 84.7734L117.606 79.5421H117.593L114.805 69.8938L113.682 66.0162L113.281 64.6359L111.925 59.9691L107.653 45.2329L106.645 41.7498L106.413 40.9341L105.134 36.5037L101.249 23.0827L100.319 19.9143L100.034 18.8888L98.8337 14.7747L96.0833 5.28448C96.0833 2.36589 89.7436 0 81.9335 0C79.0293 0 76.3311 0.328057 74.0843 0.894041C71.2177 1.60337 69.0885 2.69544 68.2104 3.98257C67.939 4.39044 67.7837 4.83672 67.7837 5.28448L65.0202 14.8013L63.8068 18.9819L63.5746 19.8227L62.6327 23.0561L58.7211 36.5554L56.216 45.1782L51.9938 59.7563L50.6774 64.2916L50.0184 66.5526C50.0184 66.5659 50.0184 66.5659 50.0184 66.5659L48.985 70.1288L46.2477 79.5806L44.6076 85.2463C44.5307 85.4428 44.4784 85.6409 44.4392 85.8241L43.1736 90.1879L39.429 103.096L37.8803 108.446L37.8672 108.459L37.4159 110.011C37.4159 110.011 37.4159 110.024 37.4159 110.037L36.1502 114.401L34.0849 121.525C33.9209 122.156 33.8294 122.774 33.8294 123.418Z" fill="#C43951"/>
<path id="Vector_6" d="M33.8297 123.418C33.8297 133.33 55.3642 141.361 81.9352 141.361C102.567 141.361 120.177 136.511 127.006 129.689C117.219 134.641 108.232 136.723 100.436 137.049C90.6625 137.459 69.8812 134.859 70.9567 118.208L80.4185 6.913C80.4185 6.913 76.5258 3.77126 74.086 0.892578C70.2905 1.83835 67.7854 3.4432 67.7854 5.28302L34.088 121.524C33.9211 122.156 33.8297 122.774 33.8297 123.418Z" fill="#A52B46"/>
<path id="Vector_7" d="M95.9038 9.98047L127.006 120.782C127.006 120.782 129.646 125.437 122.546 129.381C118.933 131.388 114.763 132.685 111.54 133.476C108.694 134.173 105.89 132.186 105.506 129.232L90.3232 11.9932C90.3232 11.9932 93.7935 11.8159 95.9038 9.98047Z" fill="#DDBD52"/>
<path id="Vector_8" d="M33.8305 123.418C33.8305 133.33 55.365 141.361 81.936 141.361C82.608 141.361 83.2786 141.361 83.9375 141.348C67.0982 139.723 55.7816 135.41 48.7524 131.598C42.9758 128.464 40.1093 121.678 41.8248 115.246L71.6078 3.62793L68.2129 3.98259C67.9415 4.39045 67.7862 4.83673 67.7862 5.2845L65.0227 14.8013L63.8094 18.9819L63.5771 19.8227L62.6352 23.0561L58.7236 36.5555L56.2185 45.1782L51.9963 59.7564L50.6799 64.2916L50.021 66.5526C50.021 66.5659 50.021 66.5659 50.021 66.5659L48.9876 70.1288L46.2502 79.5806L44.6101 85.2463C44.5332 85.4429 44.4809 85.6409 44.4418 85.8241L43.1761 90.188L39.4315 103.096L37.8828 108.446L37.8697 108.459L37.4184 110.011C37.4184 110.011 37.4184 110.024 37.4184 110.037L36.1527 114.401L34.0874 121.525C33.9219 122.156 33.8305 122.774 33.8305 123.418Z" fill="#8E243F"/>
<path id="Vector_9" d="M67.9579 4.81847C67.9579 7.47696 74.2134 9.63301 81.9306 9.63301C89.6477 9.63301 95.9033 7.47696 95.9033 4.81847C95.9033 2.15849 89.6477 0.00390701 81.9306 0.00390701C74.2134 0.00242925 67.9579 2.15849 67.9579 4.81847Z" fill="#F26176"/>
<path id="Vector_10" d="M37.4191 110.037C37.406 110.129 37.406 110.222 37.406 110.313C37.406 116.887 55.3004 123.919 81.9222 123.919C108.557 123.919 126.452 116.887 126.452 110.313C126.452 110.222 126.452 110.13 126.438 110.05L127.704 114.401C122.269 122.078 101.805 126.547 81.9222 126.547C62.0393 126.547 41.5759 122.078 36.1534 114.401L37.4191 110.037Z" fill="#FFB30B"/>
<path id="Vector_11" d="M44.443 85.8223C44.4168 86.007 44.4038 86.1769 44.4038 86.3483C44.4038 91.9092 59.8323 98.0995 81.9605 98.0995C104.089 98.0995 119.517 91.9077 119.517 86.3483C119.517 86.27 119.517 86.1769 119.504 86.0986L120.691 90.2393C115.85 97.0355 98.4587 100.663 81.9591 100.663C65.4072 100.663 47.9656 97.0222 43.1759 90.1861L44.443 85.8223Z" fill="#FFB30B"/>
<g id="Group_2">
<path id="Vector_12" d="M63.5767 19.8223C63.732 22.0566 70.8584 25.2117 81.9617 25.2117C92.8966 25.2117 99.9854 22.135 100.321 19.9139L101.251 23.0822C97.9069 26.1973 89.9024 27.814 81.9632 27.814C74.0109 27.814 65.9802 26.1973 62.6362 23.0556L63.5767 19.8223Z" fill="#FFB30B"/>
</g>
<path id="Vector_13" d="M50.0205 66.5654C50.8333 70.9691 63.6536 75.6876 81.7933 75.6876C100.527 75.6876 113.682 70.5347 113.682 66.0127L114.806 69.8903C110.209 75.3847 95.634 78.3165 81.7933 78.3165C68.1472 78.3165 53.7898 75.4778 48.9871 70.1268L50.0205 66.5654Z" fill="#FFB30B"/>
<path id="Vector_14" d="M57.2381 41.6696L56.2178 45.1792C59.7171 48.2678 67.8508 50.1091 76.6943 50.6337C78.4374 50.7386 80.2067 50.7918 81.9745 50.7918C92.6395 50.7918 103.406 48.8988 107.654 45.231L106.647 41.7479C106.505 44.3236 96.9124 48.0047 81.9745 48.0047C80.2183 48.0047 78.5405 47.9515 76.9396 47.8599C64.8159 47.1506 57.2642 43.9438 57.2381 41.6696Z" fill="#FFB30B"/>
</g>
</svg>
