<svg width="305" height="409" viewBox="0 0 305 409" fill="none" xmlns="http://www.w3.org/2000/svg">
<g filter="url(#filter0_d_3918_5)">
<path d="M189 117.9L167.55 116.8L121.35 156.4L84.5002 112.4L75.1502 105.8L80.1002 103.05L69.1002 96.45L72.9502 95.9C69.1002 92.6 61.8402 86.11 63.6002 86.55C65.3602 86.99 70.2002 84.9 72.4002 83.8C79.0002 77.2 82.1169 55.0167 82.8502 44.75C80.6502 44.75 74.9669 41.0833 72.4002 39.25C67.4502 24.95 80.6502 17.25 84.5002 16.7C87.5802 16.26 92.3835 22.75 94.4002 26.05C97.0402 22.09 111.634 20.3666 118.6 20L112 10.65L133.45 18.35L131.8 9L164.8 31L170.85 20C192.85 17.25 193.95 43.65 193.95 45.85C193.95 47.61 185.15 52.0833 180.75 54.1C177.67 64.66 184.6 91.5 198 103.05L184.6 109.1L189 117.9Z" fill="#3ACFFA"/>
<circle cx="5.5" cy="5.5" r="5.5" transform="matrix(-1 0 0 1 151.601 59.6001)" fill="black"/>
<circle cx="5.5" cy="5.5" r="5.5" transform="matrix(-1 0 0 1 108.7 55.1997)" fill="black"/>
<ellipse cx="7.16353" cy="3.44849" rx="7.16353" ry="3.44849" transform="matrix(-0.929004 -0.370069 -0.370069 0.929004 156.109 48.4014)" fill="#0087C9"/>
<ellipse cx="7.16353" cy="3.44849" rx="7.16353" ry="3.44849" transform="matrix(-0.912198 0.409751 0.409751 0.912198 105.873 38.6997)" fill="#0087C9"/>
<path d="M126.851 115.7C158.531 117.02 153.617 93.8834 146.651 82.1501C144.634 78.6667 138.925 71.1453 126.851 68.95C114.751 66.75 101.551 78.85 97.7006 87.65C94.4006 98.65 95.1706 114.38 126.851 115.7Z" fill="#A3CFFF"/>
<path d="M140.601 99.7502C134.001 102.5 129.051 101.4 123.001 90.9502C120.067 96.0835 110.901 105.25 105.401 96.4502" stroke="black" stroke-width="3.3"/>
<path d="M130.623 84.385C131.407 87.4207 126.045 90.7094 123.266 91.4999C119.833 90.5512 116.4 85.808 116.4 84.385C116.4 82.962 116.891 80.5903 121.304 79.6417C125.718 78.693 129.642 80.5904 130.623 84.385Z" fill="black"/>
<path d="M209.9 150.35L163.15 119.55L121.9 145.95L87.2496 115.15L50.8615 127.8L12.9996 182.8C17.3996 202.6 34.3226 237.511 45.7265 248.438C44.5342 255.892 45.7265 265.85 52.5996 287.3L57.5496 357.7C47.8329 357.884 31.1496 367.6 42.1496 387.4L98.2496 391.25V365.4C100.45 341.75 102.76 291.15 116.4 282.35C127.95 309.117 149.73 368.37 144.45 391.25L202.2 389.6C204.216 380.067 203.41 361 184.05 361C184.783 337.167 183.607 324.077 192.3 287.3C199.45 257.05 193.216 237.8 190.1 218C193.62 225.04 246.933 253.567 273.15 266.95L280.85 240.55L230.25 183.9L209.9 150.35Z" fill="#B63334"/>
<path d="M190.231 294.273C196.391 284.153 195.914 255.04 195.181 242.023C193.898 241.473 189.351 239.12 190.231 240C191.331 241.1 189.626 283.846 185.15 292.8C181.3 300.5 179.466 338.64 178.55 360.273L183.631 360.273C184.181 344.506 186.711 309.673 190.231 294.273Z" fill="#FEC619"/>
<path d="M56.9436 285.971C61.4027 302.517 62.8162 346.848 61.9492 359.9C59.9984 359.349 56.9436 357.848 56.9436 356.6C56.9436 333.988 53.6506 304.397 50.3992 287.3C48.7785 278.778 41.9872 260.602 45.8889 240L51.8969 240C50.3992 260.9 52.7818 270.529 56.9436 285.971Z" fill="#FEC619"/>
<path d="M86.0634 227.924L86.4842 218.016L88.9614 218.121L88.7947 222.044L92.672 222.209L92.8387 218.285L95.3158 218.391L94.895 228.299L92.4179 228.194L92.5845 224.271L88.7072 224.106L88.5406 228.029L86.0634 227.924ZM97.5381 228.412L97.9589 218.503L105.267 218.813L105.186 220.721L100.355 220.516L100.267 222.593L104.529 222.774L104.446 224.713L100.184 224.532L100.096 226.609L104.928 226.814L104.846 228.722L97.5381 228.412ZM106.406 228.788L110.234 223.957L106.935 218.884L109.889 219.01L111.81 222.051L113.997 219.184L116.951 219.309L113.234 224.084L116.638 229.223L113.653 229.096L111.642 226.005L109.391 228.915L106.406 228.788ZM118.669 229.309L119.09 219.4L121.567 219.506L121.228 227.506L125.905 227.705L125.824 229.613L118.669 229.309ZM127.552 229.686L131.758 219.938L134.435 220.052L137.8 230.121L135.215 230.012L134.418 227.727L131.11 227.587L130.137 229.796L127.552 229.686ZM131.526 225.77L134.157 225.882L132.98 222.379L131.526 225.77ZM140.131 230.22L140.552 220.312L145.783 220.534C146.778 220.576 147.517 220.844 148 221.337C148.492 221.831 148.721 222.508 148.684 223.37C148.662 223.893 148.54 224.33 148.32 224.68C148.11 225.021 147.837 225.281 147.501 225.462C147.945 225.646 148.289 225.902 148.532 226.23C148.775 226.559 148.883 227.042 148.856 227.678C148.815 228.621 148.508 229.333 147.933 229.812C147.358 230.281 146.552 230.493 145.516 230.449L140.131 230.22ZM142.858 224.448L144.874 224.534C145.304 224.552 145.621 224.468 145.825 224.281C146.028 224.095 146.137 223.827 146.151 223.478C146.168 223.099 146.082 222.812 145.895 222.62C145.708 222.416 145.359 222.304 144.846 222.282L142.953 222.202L142.858 224.448ZM142.684 228.556L144.945 228.652C145.397 228.671 145.734 228.593 145.957 228.418C146.191 228.243 146.317 227.919 146.337 227.447C146.354 227.068 146.258 226.781 146.05 226.587C145.843 226.383 145.478 226.27 144.955 226.248L142.785 226.156L142.684 228.556ZM154.213 230.973C153.556 230.945 152.943 230.867 152.373 230.74C151.813 230.624 151.331 230.465 150.929 230.263L151.018 228.155C151.461 228.369 151.952 228.549 152.49 228.695C153.039 228.842 153.56 228.926 154.052 228.947C154.667 228.973 155.126 228.936 155.429 228.835C155.741 228.736 155.905 228.496 155.922 228.117C155.932 227.86 155.864 227.652 155.717 227.491C155.58 227.331 155.344 227.188 155.011 227.061C154.688 226.923 154.242 226.761 153.675 226.572C153.007 226.338 152.478 226.09 152.088 225.827C151.699 225.553 151.425 225.233 151.266 224.867C151.107 224.5 151.038 224.056 151.06 223.533C151.101 222.589 151.47 221.88 152.168 221.406C152.866 220.932 153.877 220.724 155.2 220.78C155.775 220.804 156.332 220.874 156.872 220.989C157.412 221.095 157.849 221.211 158.182 221.338L158.092 223.461C157.659 223.268 157.218 223.121 156.77 223.02C156.332 222.919 155.903 222.86 155.483 222.842C154.929 222.818 154.475 222.85 154.122 222.938C153.779 223.026 153.6 223.255 153.584 223.624C153.575 223.84 153.629 224.017 153.747 224.155C153.865 224.284 154.07 224.405 154.363 224.521C154.667 224.636 155.077 224.777 155.594 224.943C156.395 225.193 157.005 225.48 157.422 225.807C157.84 226.122 158.123 226.484 158.27 226.891C158.418 227.287 158.481 227.732 158.46 228.224C158.423 229.096 158.055 229.79 157.355 230.304C156.655 230.809 155.608 231.032 154.213 230.973Z" fill="#FEC619"/>
<path d="M172.377 263.408L173.6 240L166.266 258.48L151.6 270.8L172.377 263.408Z" fill="#FEC619"/>
<path d="M71.4224 261.208L70.2002 237.8L77.5335 256.28L92.2002 268.6L71.4224 261.208Z" fill="#FEC619"/>
<path d="M172.5 207.266L192.3 196L191.062 207.266L178.687 212.272L173.737 232.3L172.5 207.266Z" fill="#FEC619"/>
<path d="M76.1594 206.192L56.0421 192.892L51.8665 202.469L69.798 210.756L73.6575 230.549L76.1594 206.192Z" fill="#FEC619"/>
<path d="M170.047 133.136C171.957 132.069 168.695 121.365 166.825 116.147C165.803 115.214 141.452 123.423 129.405 127.645L131.127 138.582C143.305 137.211 168.137 134.202 170.047 133.136Z" fill="#B63334"/>
<path d="M77.7608 129.296C75.934 128.093 79.9694 117.656 82.2154 112.588C83.3025 111.732 106.988 121.698 118.696 126.788L116.179 137.57C104.134 135.313 79.5877 130.499 77.7608 129.296Z" fill="#B63334"/>
<path d="M51.8116 163.929L50.5905 162.33L53.4136 161.736L54.7997 156.767L51.5578 152.92L46.688 153.945L45.272 158.773L49.906 164.331L47.8205 171.229L40.904 172.685L36.1438 167.228L38.3 160.314L41.3347 159.676L42.5857 161.417L39.6921 162.026L38.1905 166.797L41.503 170.628L46.4433 169.589L47.8593 164.761L43.2402 159.274L45.3258 152.376L52.2423 150.92L56.9319 156.392L54.8463 163.291L51.8116 163.929Z" fill="#FEC619"/>
<path d="M168.34 156.048L158.5 158.326L155.552 167.986L162.444 175.369L172.284 173.092L175.232 163.431L168.34 156.048Z" fill="#FEC619"/>
<path d="M144.006 167.299L154.101 167.628L158.863 176.535L153.531 185.112L143.437 184.784L138.674 175.877L144.006 167.299Z" fill="#FEC619"/>
<path d="M162.678 175.572L172.382 173.019L174.936 163.315M162.678 175.572L156.039 167.911L158.593 158.208M162.678 175.572L165.232 165.358M158.593 158.208L168.296 156.165L174.936 163.315M158.593 158.208L165.232 165.358M174.936 163.315L165.232 165.358" stroke="#C9862F" stroke-width="1.1"/>
<path d="M153.68 185.885L159.069 177.421L153.996 167.911M153.68 185.885L143.604 184.769L138.89 175.911M153.68 185.885L148.619 176.652M138.89 175.911L144.292 167.4L153.996 167.911M138.89 175.911L148.619 176.652M153.996 167.911L148.619 176.652" stroke="#C9862F" stroke-width="1.1"/>
<path d="M77.4766 173.816L84.0894 171.9L83.8415 176.928L77.4766 173.816Z" fill="black"/>
<path d="M93.1044 171.394C97.4974 168.891 106.305 163.952 101.106 159.972C94.3595 154.809 93.575 165.449 93.1044 171.394Z" fill="#FBE6BF"/>
<path d="M94.9211 170.054C93.4822 165.207 90.675 155.507 85.618 159.665C79.0561 165.061 89.2384 168.244 94.9211 170.054Z" fill="#FBE6BF"/>
<ellipse cx="11.395" cy="7.39677" rx="11.395" ry="7.39677" transform="matrix(-1 0 0 1 104.3 166.997)" fill="#FEC619"/>
<path d="M97.5025 180.99C96.1902 178.013 97.2188 170.934 97.9023 167.996C97.9023 167.8 96.0569 167.231 95.6468 167.427C93.5963 168.406 93.4837 180.806 94.3039 181.59C94.468 181.746 96.6823 181.578 97.5025 180.99Z" fill="black" stroke="black" stroke-width="1.1"/>
<path d="M90.7062 181.591C89.3939 178.614 90.8224 170.135 91.5059 167.197C91.5058 167.001 89.1172 167.401 88.7071 167.597C86.6566 168.576 86.6874 180.008 87.5076 180.791C87.6716 180.948 90.9061 181.991 90.7062 181.591Z" fill="black" stroke="black" stroke-width="1.1"/>
<circle cx="0.999563" cy="0.999563" r="0.999563" transform="matrix(-1 0 0 1 102.7 171.395)" fill="black"/>
<path d="M103.7 176.793C103.1 176.394 101.061 176.114 100.901 174.994" stroke="black" stroke-width="1.1"/>
<path d="M116.399 136.6C106.866 134.95 77.3494 130.22 77.3494 128.9C77.3494 127.58 79.3661 121.933 80.0994 119.55" stroke="#6F0202" stroke-width="2.2"/>
<path d="M131.25 137.15C140.858 136.012 170.604 133.73 170.674 132.412C170.745 131.094 168.155 124.169 167.55 121.75" stroke="#6F0202" stroke-width="2.2"/>
<path d="M65.7998 153.1L50.3998 129.45" stroke="#6F0202" stroke-width="2.2"/>
<path d="M53.7002 220.2L48.7502 195.45V183.9" stroke="#6F0202" stroke-width="2.2"/>
<path d="M67.4502 149.8C61.5835 165.933 49.4102 194.57 49.8502 199.85" stroke="#6F0202" stroke-width="2.2"/>
<path d="M122.45 145.95L120.8 210.3" stroke="#6F0202" stroke-width="2.2"/>
<path d="M119.15 242.75L116.4 282.9C125.5 304 148.19 352.09 145.55 391.25" stroke="#6F0202" stroke-width="2.2"/>
<path d="M209.899 151.45L194.499 169.6L193.399 195.45" stroke="#6F0202" stroke-width="2.2"/>
<path d="M192.397 197.472C190.569 205.285 189.991 212.818 190.056 219.545C190.06 220.396 190.083 221.216 190.123 222.043C190.145 222.816 190.174 223.593 190.222 224.347C190.651 231.988 191.846 238.242 192.77 242.13C192.788 242.183 192.798 242.234 192.805 242.291C192.832 242.348 192.842 242.425 192.864 242.518C193.15 243.545 194.1 246.443 196.296 249.096C196.315 249.122 196.326 249.144 196.348 249.162C197.767 250.725 199.727 252.864 202.022 255.32C209.891 263.693 221.732 275.599 229.235 279.938C229.806 280.273 230.35 280.553 230.862 280.792C237.777 283.979 248.705 287.435 251.604 287.343C254.508 287.262 256.781 287.199 259.183 284.689C259.758 284.073 260.424 283.36 261.096 282.582C261.262 282.38 261.435 282.181 261.612 281.973C261.786 281.774 261.946 281.561 262.123 281.354C262.297 281.154 262.458 280.942 262.63 280.723C263.396 279.756 264.111 278.751 264.721 277.803C264.845 277.614 264.951 277.447 265.055 277.26C265.261 276.923 265.445 276.587 265.62 276.258C265.681 276.14 265.737 276.01 265.786 275.897C265.841 275.796 265.877 275.696 265.918 275.609C266.029 275.35 266.121 275.094 266.199 274.85C266.339 274.406 266.487 273.861 266.629 273.258L266.635 273.242C266.776 272.638 266.922 271.972 267.062 271.294C267.336 269.954 267.601 268.536 267.811 267.351C268.501 266.31 269.264 265.117 270.074 263.792C271.862 260.885 273.896 257.319 275.932 253.249C278.204 248.704 281.013 244.015 283.228 238.637C283.549 237.873 283.855 237.096 284.139 236.302C284.572 235.095 284.983 233.841 285.343 232.551C285.944 230.404 286.45 228.26 286.835 226.065C286.997 225.171 287.139 224.278 287.251 223.366C287.254 223.358 287.254 223.358 287.254 223.358C287.374 222.449 287.47 221.531 287.548 220.607C289.331 198.11 275.363 182.913 262.712 174.181C262.712 174.181 262.696 174.175 262.687 174.172C261.743 173.525 260.797 172.907 259.876 172.325C257.389 170.772 255.007 169.47 252.862 168.422L252.837 168.413C250.072 167.059 247.721 166.142 246.076 165.628L246.017 165.607C244.603 165.176 242.781 164.607 240.658 164.071C240.041 163.915 239.397 163.759 238.73 163.614C234.021 162.553 228.169 161.821 222.139 162.78C210.459 164.635 198.16 172.854 192.397 197.472Z" fill="#B63334"/>
<path d="M222.14 162.777C228.169 161.818 234.021 162.55 238.73 163.611C251.466 173.279 258.072 189.192 259.206 200.652C260.386 212.633 256.609 223.595 256.609 223.595L240.85 256.03L250.478 259.676C250.478 259.676 250.258 260.881 249.921 261.169C249.585 261.457 244.802 267.155 242.676 268.202C240.55 269.25 240.915 270.023 237.61 268.664C237.153 268.476 236.737 268.275 236.355 268.068C235.767 267.748 235.029 268.009 234.737 268.61L229.233 279.938C221.73 275.599 209.89 263.694 202.02 255.32C199.725 252.864 197.765 250.725 196.346 249.162C196.324 249.144 196.313 249.122 196.295 249.096C194.098 246.443 193.148 243.544 192.862 242.518C192.839 242.425 192.829 242.347 192.804 242.291C192.797 242.233 192.786 242.183 192.768 242.129C191.845 238.242 190.649 231.988 190.22 224.347C190.173 223.592 190.143 222.816 190.121 222.043C190.081 221.216 190.057 220.395 190.054 219.545C189.989 212.818 190.567 205.285 192.395 197.472C198.16 172.853 210.458 164.634 222.14 162.777Z" fill="#B63334"/>
<path d="M268.07 261.674L267.064 264.899L266.635 273.241C266.776 272.638 266.922 271.972 267.061 271.293C267.336 269.954 267.601 268.536 267.81 267.35C268.501 266.309 269.264 265.117 270.074 263.792L268.07 261.674Z" fill="#B63334"/>
<path d="M273.777 230.905C273.777 230.905 278.39 233.336 284.139 236.304C284.573 235.091 284.982 233.839 285.344 232.55C285.941 230.407 286.45 228.262 286.838 226.063C287.157 224.28 287.397 222.468 287.544 220.603C289.463 196.419 273.173 180.657 259.874 172.328C287.05 196.633 273.777 230.905 273.777 230.905Z" fill="#B63334"/>
<path d="M270.099 232.835L274.349 234.856C274.552 234.429 279.193 224.454 279.245 210.78C279.294 200.159 275.484 187.088 262.706 174.182C262.706 174.182 262.697 174.179 262.689 174.176C261.742 173.527 260.795 172.908 259.874 172.328C257.387 170.768 255.006 169.466 252.864 168.42C287.327 195.274 270.28 232.47 270.099 232.835Z" fill="#FFB636"/>
<path d="M240.659 164.068C254.772 175.226 261.92 189.292 261.913 205.881C261.909 218.554 257.508 228.055 257.464 228.15L261.709 230.159C261.908 229.742 266.562 219.761 266.614 206.086C266.664 194.457 262.01 179.726 246.074 165.628L246.02 165.609C244.608 165.173 242.782 164.609 240.659 164.068Z" fill="#FFB636"/>
<path opacity="0.66" d="M240.054 209.787L238.257 224.007L255.479 235.226C255.479 235.226 271.881 237.291 283.228 238.637C283.548 237.874 283.855 237.097 284.139 236.303C284.571 235.095 284.983 233.841 285.343 232.551C285.944 230.404 286.45 228.26 286.835 226.065C286.996 225.171 287.139 224.279 287.25 223.367C286.469 224.534 284.495 225.635 282.728 226.16C279.157 227.216 269.997 227.588 256.894 220.562C243.8 213.538 240.054 209.787 240.054 209.787Z" fill="#B63334"/>
<path d="M217.342 240.11C218.014 244.846 221.479 248.085 224.957 251.956C228.434 255.829 232.525 259.411 236.162 259.715C239.799 260.019 249.947 259.907 256.407 260.723C262.85 261.532 264.044 261.709 265.136 262.48C266.232 263.242 266.535 264.849 266.997 266.013C267.451 267.175 267.807 267.352 267.807 267.352C268.046 266.989 268.296 266.599 268.549 266.199C268.555 266.181 268.568 266.176 268.574 266.158C270.678 262.906 274.024 258.331 276.653 253.08C279.747 246.896 283.092 240.622 285.344 232.549C285.942 230.406 286.45 228.261 286.838 226.063C286.405 226.547 285.845 226.996 285.097 227.297C282.637 228.284 273.215 228.626 264.222 225.316L264.107 225.274C255.062 221.915 245.278 214.037 240.057 209.789C234.894 205.603 231.139 203.619 227.253 203.426C227.205 203.419 227.158 203.412 227.107 203.414C223.173 203.243 220.779 204.014 217.684 211.266C214.584 218.527 216.662 235.372 217.342 240.11Z" fill="#494949"/>
<path d="M217.342 240.11C218.013 244.846 221.478 248.084 224.956 251.956C228.434 255.828 232.524 259.411 236.161 259.714C239.798 260.018 249.947 259.907 256.406 260.722C262.849 261.531 264.044 261.709 265.136 262.479C266.232 263.241 266.535 264.848 266.997 266.013C267.45 267.174 267.806 267.351 267.806 267.351C268.046 266.988 268.296 266.598 268.548 266.198C266.408 263.474 263.493 259.563 263.098 258.294C262.635 256.799 261.818 249.764 261.513 241.075C261.234 232.875 261.853 230.42 264.221 225.314L264.105 225.273C255.06 221.914 245.276 214.036 240.055 209.788C234.893 205.602 231.138 203.618 227.252 203.425C227.204 203.418 227.157 203.411 227.106 203.412C223.172 203.242 220.777 204.013 217.682 211.265C214.583 218.526 216.661 235.372 217.342 240.11Z" fill="#3A3A3A"/>
<path d="M190.121 222.042C190.142 222.819 190.176 223.59 190.225 224.347C190.247 224.704 190.268 225.062 190.293 225.41C190.313 225.746 190.338 226.065 190.36 226.393C190.416 227.102 190.475 227.803 190.546 228.497C190.587 228.941 190.631 229.376 190.678 229.802C190.762 230.571 190.853 231.323 190.95 232.057C190.989 232.392 191.03 232.725 191.082 233.054C191.1 233.169 191.115 233.295 191.133 233.412C191.176 233.737 191.223 234.053 191.273 234.36C191.343 234.835 191.415 235.301 191.495 235.748C191.555 236.11 191.61 236.459 191.673 236.811C191.721 237.068 191.766 237.333 191.808 237.579C191.887 237.997 191.965 238.394 192.046 238.783C192.105 239.093 192.175 239.398 192.229 239.697C192.291 239.998 192.359 240.282 192.418 240.563C192.426 240.596 192.434 240.628 192.442 240.661C192.534 241.104 192.631 241.527 192.72 241.919C192.736 241.984 192.75 242.059 192.766 242.125C192.785 242.182 192.796 242.236 192.807 242.29C192.827 242.347 192.84 242.422 192.865 242.52C193.148 243.541 194.098 246.438 196.294 249.092C196.314 249.12 196.326 249.143 196.349 249.162C197.252 250.155 198.37 251.384 199.66 252.775C200.017 253.173 200.401 253.579 200.79 253.999C201.171 254.415 201.577 254.84 201.99 255.277C202.004 255.293 202.019 255.307 202.028 255.311L202.024 255.32C210.487 264.323 223.546 277.421 230.86 280.79C237.78 283.977 248.709 287.432 251.607 287.341C254.512 287.262 256.783 287.197 259.179 284.689C259.758 284.076 260.425 283.357 261.094 282.577C261.265 282.379 261.435 282.18 261.609 281.973C261.78 281.774 261.946 281.563 262.12 281.357C262.294 281.149 262.459 280.939 262.627 280.719C263.392 279.754 264.11 278.753 264.72 277.803C264.838 277.616 264.949 277.445 265.053 277.263C265.149 277.108 265.236 276.949 265.323 276.791L265.695 267.884C265.86 265.835 265.647 264.531 264.226 264.151C262.806 263.763 252.656 261.955 251.438 261.898C250.205 261.826 249.162 263.68 248.087 264.924C247.025 266.161 243.653 269.829 241.867 270.437C240.089 271.05 238.998 270.779 237.745 270.459C236.485 270.128 228.609 264.061 225.499 260.889C223.07 258.412 207.74 241.924 199.92 233.33C197.719 230.913 196.113 229.119 195.549 228.438C193.734 226.232 191.756 224.255 190.121 222.042Z" fill="#B63334"/>
<path d="M190.639 223.19C190.651 223.462 190.664 223.734 190.679 223.997C190.735 225.181 190.821 226.334 190.921 227.451C190.958 227.907 190.997 228.353 191.04 228.791C191.249 230.997 191.513 233.049 191.802 234.892C191.859 235.263 191.91 235.621 191.97 235.982C192.025 236.332 192.089 236.683 192.15 237.015C192.257 237.691 192.377 238.332 192.498 238.942C192.56 239.242 192.614 239.539 192.679 239.83C192.787 240.394 192.901 240.939 193.014 241.433C193.033 241.491 193.043 241.546 193.054 241.602C193.073 241.66 193.086 241.737 193.109 241.838C193.152 241.997 193.209 242.203 193.281 242.445L193.291 242.449C193.7 243.789 194.64 246.268 196.487 248.556C196.507 248.584 196.518 248.608 196.542 248.628C197.438 249.639 198.548 250.891 199.829 252.307C200.183 252.712 200.565 253.126 200.951 253.553C201.329 253.977 201.732 254.409 202.142 254.855C202.156 254.871 202.171 254.885 202.18 254.889L202.177 254.898C210.581 264.065 223.557 277.393 230.864 280.782C237.776 283.989 248.71 287.431 251.62 287.309C253.815 287.23 255.649 287.157 257.458 286.013C257.466 286.016 257.466 286.016 257.466 286.016C258.051 285.638 258.646 285.151 259.244 284.51C260.442 283.23 261.97 281.471 263.323 279.648C263.438 279.494 263.544 279.336 263.66 279.182C262.062 279.32 258.929 279.424 254.47 278.681C247.749 277.562 240.619 275.327 236.659 273.137C232.699 270.946 221.611 259.901 218.685 256.917C216.744 254.946 207.332 243.656 200.391 235.261C196.851 230.976 193.955 227.458 193.005 226.293C192.096 225.174 191.296 224.115 190.639 223.19Z" fill="#B63334"/>
<path d="M190.226 224.346C190.241 224.611 190.256 224.876 190.274 225.133C190.977 226.014 191.759 226.984 192.283 227.61C193.243 228.752 196.16 232.206 199.729 236.41C204.541 242.078 215.969 255.49 218.195 257.696C218.327 257.833 231.839 271.252 236.365 273.732C237.817 274.531 239.688 275.332 241.795 276.086C245.531 277.424 250.029 278.616 254.319 279.352C258.329 280.039 261.549 280.054 263.199 279.995C263.312 279.846 263.416 279.693 263.53 279.544C261.939 279.664 258.817 279.734 254.367 278.969C247.658 277.816 240.531 275.573 236.563 273.402C232.596 271.232 221.441 260.375 218.496 257.443C216.543 255.505 207.056 244.426 200.059 236.187C196.49 231.983 193.571 228.53 192.613 227.387C191.697 226.292 190.889 225.253 190.226 224.346Z" fill="#B63334"/>
<path opacity="0.36" d="M192.396 197.476C190.569 205.282 189.989 212.815 190.057 219.542C190.063 220.392 190.086 221.22 190.121 222.042C190.142 222.819 190.176 223.59 190.225 224.346C190.247 224.704 190.268 225.061 190.294 225.409C190.313 225.746 190.338 226.065 190.361 226.393C190.416 227.102 190.475 227.802 190.547 228.496C190.588 228.94 190.631 229.375 190.678 229.802C190.763 230.571 190.853 231.323 190.95 232.057C190.99 232.391 191.031 232.725 191.082 233.053C191.1 233.169 191.116 233.294 191.133 233.411C191.176 233.736 191.224 234.052 191.273 234.36C191.343 234.834 191.416 235.3 191.495 235.748C191.555 236.109 191.61 236.458 191.673 236.811C191.721 237.067 191.766 237.333 191.808 237.578C191.827 237.665 191.849 237.743 191.862 237.818C191.923 238.149 191.988 238.471 192.046 238.782C192.105 239.093 192.175 239.398 192.229 239.696C192.291 239.998 192.359 240.282 192.418 240.562C192.426 240.596 192.434 240.628 192.442 240.661C192.534 241.103 192.631 241.527 192.72 241.919C192.737 241.984 192.751 242.059 192.767 242.125C192.786 242.182 192.797 242.236 192.808 242.29C192.827 242.347 192.841 242.421 192.865 242.52C193.149 243.541 194.098 246.437 196.294 249.092C196.315 249.119 196.326 249.143 196.349 249.162C197.252 250.154 198.371 251.384 199.661 252.775C200.017 253.172 200.401 253.579 200.79 253.999C201.171 254.414 201.577 254.839 201.99 255.277C202.004 255.292 202.011 255.304 202.025 255.32L202.028 255.31C201.091 249.002 200.412 242.615 200.057 236.186C200.006 235.239 199.96 234.283 199.921 233.331C199.258 216.692 200.874 199.851 206.039 183.671C209.792 171.88 216.97 165.781 222.141 162.778C210.458 164.64 198.158 172.849 192.396 197.476Z" fill="#B63334"/>
<path d="M197.23 203.761C195.721 211.025 198.758 217.8 204.013 218.892C209.269 219.984 214.753 214.981 216.263 207.716C217.772 200.452 214.735 193.677 209.48 192.585C204.223 191.493 198.74 196.497 197.23 203.761Z" fill="#B63334"/>
<path opacity="0.36" d="M195.866 204.089C194.358 211.353 197.394 218.127 202.65 219.219C207.906 220.311 213.39 215.308 214.9 208.043C216.409 200.778 213.372 194.004 208.116 192.913C202.86 191.82 197.376 196.825 195.866 204.089Z" fill="#B63334"/>
<path d="M197.43 203.675C195.999 210.566 198.88 216.99 203.864 218.026C208.849 219.061 214.05 214.316 215.483 207.425C216.914 200.535 214.033 194.11 209.049 193.075C204.063 192.04 198.861 196.786 197.43 203.675Z" fill="#FFB636"/>
<path d="M199.818 204.559C198.734 209.781 200.916 214.649 204.694 215.434C208.471 216.219 212.412 212.623 213.498 207.402C214.583 202.18 212.4 197.312 208.623 196.527C204.845 195.742 200.903 199.338 199.818 204.559Z" fill="#FFDDA1"/>
<path d="M198.478 204.348C197.395 209.564 199.575 214.427 203.348 215.211C207.122 215.996 211.06 212.403 212.144 207.187C213.228 201.972 211.047 197.107 207.273 196.324C203.5 195.54 199.562 199.133 198.478 204.348Z" fill="#FFCE65"/>
<path d="M198.903 204.368C197.958 208.918 199.86 213.161 203.152 213.844C206.443 214.528 209.878 211.395 210.823 206.845C211.769 202.295 209.866 198.053 206.575 197.369C203.283 196.686 199.848 199.818 198.903 204.368Z" fill="#F2B549"/>
<path d="M217.341 240.11C218.013 244.846 221.478 248.085 224.955 251.956C228.433 255.829 232.523 259.411 236.161 259.715C239.798 260.019 249.946 259.907 256.406 260.722C262.848 261.532 264.043 261.709 265.135 262.48C266.231 263.241 266.534 264.849 266.996 266.013C267.45 267.175 267.805 267.352 267.805 267.352C268.051 266.971 268.313 266.575 268.573 266.158C268.39 265.244 267.879 262.823 267.289 262.102C266.546 261.217 265.667 260.523 263.704 260.259C261.732 259.992 250.277 258.507 247.404 258.357C244.525 258.194 237.882 258.253 235.411 257.677C232.928 257.108 231.354 255.226 229.196 253.583C227.04 251.932 220.306 244.406 219.76 243.142C219.211 241.886 218.74 238.851 218.734 237.471C218.726 236.1 217.755 222.078 217.965 220.096C218.178 218.105 218.255 214.766 219.278 212.076C220.304 209.377 222.27 206.345 223.443 205.327C224.617 204.31 227.404 203.499 227.404 203.499C227.404 203.499 227.354 203.471 227.25 203.424C227.203 203.418 227.155 203.41 227.105 203.412C223.171 203.242 220.776 204.012 217.681 211.264C214.583 218.527 216.661 235.372 217.341 240.11Z" fill="#B63334"/>
<path d="M245.128 274.236L246.324 275.571L246.558 275.615L247.723 276.212C247.723 276.212 247.716 276.23 247.715 276.26C253.304 277.862 258.506 278.286 260.827 278.278C261.639 278.269 262.386 277.827 262.762 277.113C263.035 276.602 263.301 275.998 263.359 275.5C263.433 274.876 263.762 271.699 263.961 269.023C263.872 268.102 263.727 265.853 263.727 265.853L262.854 264.861C262.703 264.698 262.512 264.588 262.287 264.548C261.831 264.455 261.051 264.315 261.043 264.313L253.299 262.788C252.28 262.593 251.227 263.245 250.644 264.205C249.15 266.646 246.203 271.306 245.574 272.448C245.434 272.703 245.27 272.965 245.152 273.206C244.975 273.564 244.972 273.884 245.128 274.236Z" fill="#B63334"/>
<path d="M262.84 265.316C263.553 265.452 264.061 266.08 264.041 266.804C263.973 269.341 263.816 274.918 263.712 275.745C263.651 276.226 263.395 276.813 263.129 277.313C262.759 278.012 262.036 278.445 261.244 278.449C258.826 278.459 253.158 277.984 247.257 276.137C246.06 275.762 245.505 274.637 246.118 273.543C246.245 273.316 246.37 273.075 246.488 272.823C247.023 271.669 249.917 267.067 251.414 264.708C251.957 263.854 252.962 263.422 253.957 263.613L262.84 265.316Z" fill="#B63334"/>
<path d="M260.858 277.875C261.102 277.962 261.371 277.836 261.459 277.591C261.532 277.387 262.175 275.574 262.227 274.714L262.77 266.467C262.787 266.207 262.59 265.982 262.331 265.968C262.072 265.95 261.848 266.147 261.831 266.406L261.288 274.655C261.251 275.272 260.759 276.754 260.573 277.273C260.486 277.519 260.613 277.787 260.858 277.875Z" fill="#B63334"/>
<path d="M257.3 277.787C257.306 277.789 257.312 277.791 257.318 277.793C257.566 277.871 257.83 277.733 257.907 277.484C257.944 277.367 258.805 274.604 258.951 273.296L259.768 265.976C259.797 265.717 259.614 265.481 259.354 265.457C259.096 265.429 258.863 265.614 258.834 265.872L258.017 273.192C257.881 274.41 257.019 277.176 257.011 277.204C256.934 277.445 257.063 277.702 257.3 277.787Z" fill="#B63334"/>
<path d="M253.455 277.19C253.691 277.275 253.953 277.159 254.048 276.925C254.934 274.745 255.618 272.472 256.082 270.167L257.034 265.436C257.085 265.181 256.92 264.939 256.666 264.882C256.411 264.83 256.163 264.996 256.112 265.251L255.16 269.982C254.707 272.229 254.041 274.446 253.178 276.571C253.08 276.812 253.195 277.086 253.435 277.184C253.443 277.186 253.449 277.188 253.455 277.19Z" fill="#B63334"/>
<path d="M249.127 276.14C249.143 276.146 249.16 276.151 249.178 276.155C249.431 276.215 249.684 276.057 249.744 275.805L250.083 274.356C250.335 273.254 250.518 272.458 251.2 270.929L254.064 265.106C254.179 264.873 254.083 264.59 253.85 264.476C253.614 264.359 253.336 264.457 253.221 264.69L250.349 270.529C249.622 272.159 249.42 273.036 249.165 274.146L248.828 275.592C248.773 275.825 248.905 276.061 249.127 276.14Z" fill="#B63334"/>
<path opacity="0.35" d="M271.593 257.925C271.593 257.925 281.079 241.429 282.891 231.257C282.891 231.257 275.637 233.155 265.034 229.523C254.431 225.893 247.119 220.278 247.119 220.278L256.858 227.887C266.111 235.114 271.54 246.184 271.593 257.925Z" fill="#8E8E8E"/>
<path d="M193.052 243.118C193.472 244.427 194.433 246.848 196.295 249.094C196.316 249.121 196.327 249.145 196.35 249.164C197.253 250.156 198.372 251.386 199.662 252.776C200.018 253.174 200.402 253.581 200.791 254C201.172 254.416 201.578 254.841 201.991 255.279C202.005 255.294 202.02 255.309 202.029 255.312L202.026 255.321C210.488 264.325 223.547 277.422 230.861 280.791C237.781 283.978 248.71 287.433 251.608 287.342C253.796 287.286 255.623 287.232 257.415 286.135C255.27 286.436 251.608 286.423 246.059 284.905C236.181 282.197 231.763 280.365 228.51 278.041C225.269 275.712 213.177 264.723 207.798 259.301C203.76 255.237 196.405 246.946 193.052 243.118Z" fill="#B63334"/>
<ellipse cx="13.9705" cy="18.1617" rx="13.9705" ry="18.1617" transform="matrix(-0.878544 -0.477662 -0.477662 0.878544 297.899 246.746)" fill="#3ACFFA"/>
<path d="M277 248.8C275.35 246.6 271.5 243.809 269.85 243.3" stroke="#0087C9" stroke-width="2.2"/>
<path d="M270.4 259.487C267.813 258.553 264.017 255.689 263.048 254.26" stroke="#0087C9" stroke-width="2.2"/>
<path d="M274.139 254.554L265.556 248.8" stroke="#0087C9" stroke-width="2.2"/>
<path d="M220.9 164.1C209.716 167.583 187.24 186.21 186.8 235.05C193.95 245.316 212.1 268.6 227.5 279.6C234.283 283.083 249.5 289.39 256.1 286.75C262.7 284.11 266.183 275.75 267.1 271.9" stroke="#6F0202" stroke-width="2.2"/>
<path d="M70.2002 362.1C59.7502 354.95 31.1502 356.05 42.1502 386.85" stroke="#6C0000" stroke-width="2.2"/>
<path d="M202.199 389.6C204.033 375.3 199.999 350.66 169.199 366.5" stroke="#6C0000" stroke-width="2.2"/>
<path d="M187.899 40.5546C187.899 43.7297 181.338 46.5079 178.057 47.5001L169.199 34.6013C170.512 32.2861 173.924 27.4573 177.073 26.6635C181.01 25.6713 187.899 36.5857 187.899 40.5546Z" fill="#0087C9"/>
<path d="M82.8509 39.6924C83.4997 37.314 88.188 31.4215 90.451 28.7725C89.3229 26.9533 86.4748 22.8349 83.7439 21.9424C79.2771 20.4825 73.8242 31.1428 74.0234 34.1668C74.1034 35.3799 79.8549 38.3547 82.8509 39.6924Z" fill="#0087C9"/>
<ellipse cx="12.4072" cy="15.9521" rx="12.4072" ry="15.9521" transform="matrix(-0.819403 -0.573218 -0.573218 0.819403 70.9248 227.076)" fill="#3ACFFA"/>
<path d="M63.5996 233.949C61.9496 231.749 58.0996 228.958 56.4496 228.449" stroke="#0087C9" stroke-width="2.2"/>
<path d="M56.9994 244.636C54.4127 243.702 50.6169 240.838 49.6475 239.409" stroke="#0087C9" stroke-width="2.2"/>
<path d="M61.5658 240.676L52.9826 234.922" stroke="#0087C9" stroke-width="2.2"/>
<path d="M195.6 246.6C195.6 258.516 197.8 280.37 190.65 296.1C185.9 306.55 184.6 343.216 184.6 361" stroke="#6F0202" stroke-width="2.2"/>
<path d="M45.4493 247.7C45.4493 256.134 46.6593 276.52 51.4993 290.6C56.3393 304.68 56.4493 341.934 55.8993 358.8" stroke="#6F0202" stroke-width="2.2"/>
</g>
<defs>
<filter id="filter0_d_3918_5" x="0.1" y="0.1" width="304.781" height="408.124" filterUnits="userSpaceOnUse" color-interpolation-filters="sRGB">
<feFlood flood-opacity="0" result="BackgroundImageFix"/>
<feColorMatrix in="SourceAlpha" type="matrix" values="0 0 0 0 0 0 0 0 0 0 0 0 0 0 0 0 0 0 127 0" result="hardAlpha"/>
<feOffset dy="4"/>
<feGaussianBlur stdDeviation="6.45"/>
<feComposite in2="hardAlpha" operator="out"/>
<feColorMatrix type="matrix" values="0 0 0 0 0 0 0 0 0 0 0 0 0 0 0 0 0 0 0.47 0"/>
<feBlend mode="normal" in2="BackgroundImageFix" result="effect1_dropShadow_3918_5"/>
<feBlend mode="normal" in="SourceGraphic" in2="effect1_dropShadow_3918_5" result="shape"/>
</filter>
</defs>
</svg>
