<svg width="173" height="169" viewBox="0 0 173 169" fill="none" xmlns="http://www.w3.org/2000/svg">
<g id="Group">
<path id="Vector" d="M0.276169 134.36L0.302292 134.373C0.120865 135.536 0.599869 136.8 1.85098 137.407L60.9945 167.127C62.7768 167.992 64.6869 168.483 66.6231 168.56C68.224 168.65 69.838 168.457 71.3997 167.992L170.244 137.601C171.547 137.214 172.206 136.077 172.219 134.942L172.245 134.929V125.943L18.4537 126.318H18.4406L0.27475 126.357L0.276169 134.36Z" fill="#72333F"/>
<path id="Vector_2" d="M0.276154 134.36L0.302292 134.373C0.120865 135.536 0.599854 136.8 1.85097 137.407L60.9945 167.127C62.7768 167.992 64.6869 168.483 66.623 168.56V157.844C66.623 157.844 19.0211 126.704 18.5436 126.369C18.5305 126.356 18.5044 126.343 18.4536 126.316H18.4406L0.274734 126.356L0.276154 134.36Z" fill="#562331"/>
<path id="Vector_3" d="M0.830643 127.647C1.07594 127.982 1.41122 128.28 1.851 128.486L47.6706 150.938L60.9945 157.471C64.2355 159.058 67.9526 159.369 71.3997 158.336L170.244 128.68C172.683 127.945 172.955 124.614 170.67 123.503L106.284 91.9365L2.3024 123.129C0.250092 123.747 -0.317413 126.149 0.830643 127.647Z" fill="#DDBD52"/>
<path id="Vector_4" d="M51.8033 152.964L112.754 134.825L85.4093 131.235L34.787 117.821L0.832726 127.646C1.07802 127.981 1.41325 128.279 1.85303 128.485L51.8033 152.964Z" fill="#BA3F57"/>
<path id="Vector_5" d="M34.0745 121.217C34.0745 130.952 55.6091 138.84 82.1801 138.84C82.8521 138.84 83.5226 138.84 84.1816 138.827C103.948 138.53 120.641 133.856 127.251 127.376C129.213 125.466 130.284 123.386 130.284 121.217C130.284 120.521 130.155 119.836 129.936 119.152H129.949L127.947 112.361L126.682 108.088L126.23 106.526C126.23 106.513 126.217 106.513 126.217 106.5L124.669 101.259L120.937 88.6318L119.75 84.565L119.362 83.2616L117.851 78.1236H117.838L115.05 68.6474L113.927 64.8389L113.526 63.4832L112.171 58.8997L107.898 44.4262L106.89 41.0053L106.658 40.2041L105.379 35.8527L101.494 22.671L100.564 19.5592L100.279 18.5519L99.0788 14.5112L96.3284 5.19024C96.3284 2.3237 89.9887 0 82.1786 0C79.2744 0 76.5762 0.322207 74.3294 0.878097C71.4629 1.57477 69.3336 2.64737 68.4555 3.91155C68.1841 4.31214 68.0288 4.75046 68.0288 5.19024L65.2653 14.5373L64.052 18.6434L63.8197 19.4692L62.8778 22.6449L58.9662 35.9035L56.4611 44.3725L52.2389 58.6907L50.9225 63.1451L50.2636 65.3657C50.2636 65.3788 50.2636 65.3788 50.2636 65.3788L49.2301 68.8781L46.4928 78.1614L44.8527 83.7261C44.7758 83.9191 44.7235 84.1136 44.6843 84.2936L43.4187 88.5796L39.6741 101.258L38.1254 106.512L38.1123 106.525L37.661 108.049C37.661 108.049 37.661 108.062 37.661 108.075L36.3953 112.361L34.33 119.358C34.166 119.978 34.0745 120.585 34.0745 121.217Z" fill="#C43951"/>
<path id="Vector_6" d="M34.0748 121.218C34.0748 130.952 55.6093 138.841 82.1803 138.841C102.812 138.841 120.422 134.077 127.251 127.376C117.464 132.24 108.477 134.285 100.681 134.606C90.9076 135.008 70.1263 132.455 71.2018 116.1L80.6636 6.79001C80.6636 6.79001 76.7709 3.7043 74.3311 0.876953C70.5357 1.80586 68.0305 3.38209 68.0305 5.1891L34.3331 119.357C34.1662 119.978 34.0748 120.585 34.0748 121.218Z" fill="#A52B46"/>
<path id="Vector_7" d="M96.149 9.80273L127.251 118.628C127.251 118.628 129.891 123.2 122.791 127.074C119.178 129.045 115.009 130.319 111.785 131.096C108.939 131.781 106.135 129.829 105.751 126.927L90.5683 11.7796C90.5683 11.7796 94.0386 11.6054 96.149 9.80273Z" fill="#DDBD52"/>
<path id="Vector_8" d="M34.0756 121.218C34.0756 130.952 55.6102 138.841 82.1811 138.841C82.8531 138.841 83.5237 138.841 84.1826 138.828C67.3434 137.231 56.0267 132.996 48.9976 129.251C43.2209 126.173 40.3544 119.508 42.07 113.191L71.8529 3.56348L68.4581 3.91181C68.1866 4.3124 68.0313 4.75072 68.0313 5.1905L65.2679 14.5376L64.0545 18.6436L63.8223 19.4695L62.8803 22.6452L58.9687 35.9038L56.4636 44.3728L52.2414 58.6909L50.925 63.1453L50.2661 65.366C50.2661 65.379 50.2661 65.3791 50.2661 65.3791L49.2327 68.8784L46.4953 78.1616L44.8552 83.7263C44.7783 83.9194 44.7261 84.1139 44.6869 84.2938L43.4212 88.5798L39.6766 101.258L38.1279 106.512L38.1149 106.525L37.6635 108.049C37.6635 108.049 37.6635 108.062 37.6635 108.075L36.3979 112.361L34.3325 119.358C34.167 119.978 34.0756 120.585 34.0756 121.218Z" fill="#8E243F"/>
<path id="Vector_9" d="M68.203 4.73261C68.203 7.3437 74.4585 9.4613 82.1757 9.4613C89.8928 9.4613 96.1484 7.3437 96.1484 4.73261C96.1484 2.12007 89.8928 0.003907 82.1757 0.003907C74.4585 0.00245558 68.203 2.12007 68.203 4.73261Z" fill="#F26176"/>
<path id="Vector_10" d="M37.6642 108.075C37.6511 108.165 37.6511 108.257 37.6511 108.347C37.6511 114.802 55.5456 121.71 82.1673 121.71C108.802 121.71 126.697 114.802 126.697 108.347C126.697 108.257 126.697 108.167 126.684 108.088L127.949 112.361C122.514 119.901 102.05 124.29 82.1673 124.29C62.2845 124.29 41.821 119.901 36.3986 112.361L37.6642 108.075Z" fill="#FFB30B"/>
<path id="Vector_11" d="M44.6871 84.292C44.661 84.4734 44.6479 84.6403 44.6479 84.8087C44.6479 90.2703 60.0764 96.3503 82.2046 96.3503C104.333 96.3503 119.761 90.2689 119.761 84.8087C119.761 84.7318 119.761 84.6403 119.748 84.5634L120.936 88.6303C116.094 95.3053 98.7028 98.8685 82.2032 98.8685C65.6513 98.8685 48.2097 95.2922 43.42 88.578L44.6871 84.292Z" fill="#FFB30B"/>
<g id="Group_2">
<path id="Vector_12" d="M63.8218 19.4688C63.9771 21.6633 71.1035 24.762 82.2068 24.762C93.1418 24.762 100.23 21.7402 100.566 19.5587L101.496 22.6706C98.152 25.7301 90.1475 27.318 82.2083 27.318C74.256 27.318 66.2253 25.7301 62.8813 22.6444L63.8218 19.4688Z" fill="#FFB30B"/>
</g>
<path id="Vector_13" d="M50.2656 65.3788C51.0784 69.704 63.8987 74.3383 82.0385 74.3383C100.772 74.3383 113.927 69.2773 113.927 64.8359L115.051 68.6444C110.454 74.0408 95.8791 76.9204 82.0385 76.9204C68.3923 76.9204 54.0349 74.1322 49.2322 68.8767L50.2656 65.3788Z" fill="#FFB30B"/>
<path id="Vector_14" d="M57.4832 40.9271L56.4629 44.3742C59.9622 47.4077 68.0959 49.2161 76.9394 49.7314C78.6825 49.8344 80.4518 49.8867 82.2196 49.8867C92.8846 49.8867 103.651 48.0274 107.899 44.425L106.892 41.0041C106.75 43.5339 97.1575 47.1493 82.2196 47.1493C80.4634 47.1493 78.7856 47.0971 77.1847 47.0071C65.0611 46.3104 57.5094 43.1609 57.4832 40.9271Z" fill="#FFB30B"/>
</g>
</svg>
