<svg width="70" height="115" viewBox="0 0 70 115" fill="none" xmlns="http://www.w3.org/2000/svg">
<path d="M1.96875 81.9482V100.004C1.96875 108.267 16.7915 114.966 35.0768 114.966C53.3621 114.966 68.1849 108.267 68.1849 100.004V81.9482H1.96875Z" fill="#3D3D3D"/>
<path d="M68.1849 81.9482H55.1856V97.7901C55.1856 103.627 52.3589 108.513 48.5981 109.275C44.4706 110.112 39.8955 110.578 35.079 110.578C16.7923 110.578 1.96875 103.879 1.96875 95.6207V100.007C1.96875 108.265 16.7923 114.964 35.079 114.964C53.3585 114.964 68.1827 108.265 68.1827 100.007V96.9181L68.1849 96.9104V81.9482Z" fill="#282828"/>
<path d="M35.0768 96.9107C53.3619 96.9107 68.1849 90.2119 68.1849 81.9485C68.1849 73.6851 53.3619 66.9863 35.0768 66.9863C16.7917 66.9863 1.96875 73.6851 1.96875 81.9485C1.96875 90.2119 16.7917 96.9107 35.0768 96.9107Z" fill="#5E5E5E"/>
<path d="M35.0763 94.0726C52.3595 94.0726 66.3703 88.1467 66.3703 80.8366C66.3703 73.5266 52.3595 67.6006 35.0763 67.6006C17.7931 67.6006 3.78223 73.5266 3.78223 80.8366C3.78223 88.1467 17.7931 94.0726 35.0763 94.0726Z" fill="#848484"/>
<path d="M35.0761 92.3059C51.635 92.3059 65.0585 86.8981 65.0585 80.2272C65.0585 73.5563 51.635 68.1484 35.0761 68.1484C18.5173 68.1484 5.09375 73.5563 5.09375 80.2272C5.09375 86.8981 18.5173 92.3059 35.0761 92.3059Z" fill="#6B6B6B"/>
<path d="M54.4056 79.8478C54.4056 80.0254 54.3852 80.2142 54.3443 80.3918C53.6779 83.7826 46.7587 86.5149 37.8738 87.0069C37.2818 87.0385 36.6831 87.059 36.0707 87.0701C35.7441 87.0803 35.4109 87.0803 35.0776 87.0803C34.7444 87.0803 34.4105 87.0803 34.0846 87.0701C24.3496 86.8813 16.5124 84.0132 15.8044 80.3918C15.7636 80.2142 15.7432 80.0254 15.7432 79.8478C15.7432 75.8497 24.4035 72.6152 35.0776 72.6152C45.7525 72.6152 54.4056 75.8489 54.4056 79.8478Z" fill="#111111"/>
<path d="M54.3456 80.3918C53.6792 83.7826 46.7599 86.5148 37.875 87.0068C37.283 87.0384 36.6844 87.0589 36.0719 87.07C35.7453 87.0803 35.4121 87.0803 35.0789 87.0803C34.7457 87.0803 34.4118 87.0803 34.0859 87.07C24.3508 86.8813 16.5136 84.0132 15.8057 80.3918C16.5268 77.1675 24.8809 74.624 35.0789 74.624C45.2769 74.624 53.6245 77.1675 54.3456 80.3918Z" fill="#3D3D3D"/>
<path d="M67.0781 87.3418V98.5972C67.0781 99.9697 66.6808 101.268 65.9852 102.129C64.3848 104.11 60.9689 107.494 55.3701 109.089C56.972 106.624 57.93 103.34 58.062 99.8595L58.1415 93.8108L58.9085 93.4358C61.5005 92.4698 63.8577 90.7266 65.9954 88.4795L67.0781 87.3418Z" fill="#333333"/>
<path d="M4.84277 88.7725C4.84277 88.7725 5.53397 88.9031 5.53397 90.3748C5.53397 91.8464 5.53397 105.699 5.53397 105.699L4.84277 105.061V88.7725Z" fill="#282828"/>
<path d="M9.13184 92.3047C9.13184 92.3047 9.82303 92.4354 9.82303 93.9078C9.82303 95.3795 9.82303 109.232 9.82303 109.232L9.13184 108.594V92.3047Z" fill="#282828"/>
<path d="M13.4268 94.2031C13.4268 94.2031 14.118 94.3338 14.118 95.8054C14.118 97.277 14.118 111.13 14.118 111.13L13.4268 110.492V94.2031Z" fill="#282828"/>
<path d="M17.7207 95.75C17.7207 95.75 18.4119 95.8807 18.4119 97.3523C18.4119 98.8239 18.4119 112.677 18.4119 112.677L17.7207 112.039V95.75Z" fill="#282828"/>
<path d="M22.0146 96.6221C22.0146 96.6221 22.7058 96.7527 22.7058 98.2252C22.7058 99.6968 22.7058 113.55 22.7058 113.55L22.0146 112.912V96.6221Z" fill="#282828"/>
<path d="M26.3096 97.3203C26.3096 97.3203 27.0008 97.451 27.0008 98.9235C27.0008 100.396 27.0008 114.248 27.0008 114.248L26.3096 113.61V97.3203Z" fill="#282828"/>
<path d="M30.6045 97.6914C30.6045 97.6914 31.2957 97.8221 31.2957 99.2937C31.2957 100.765 31.2957 114.618 31.2957 114.618L30.6045 113.98V97.6914Z" fill="#282828"/>
<path d="M34.9043 97.9326C34.9043 97.9326 35.5955 98.0633 35.5955 99.5358C35.5955 101.007 35.5955 114.86 35.5955 114.86L34.9043 114.222V97.9326Z" fill="#282828"/>
<path d="M39.1924 97.6914C39.1924 97.6914 39.8836 97.8221 39.8836 99.2937C39.8836 100.765 39.8836 114.618 39.8836 114.618L39.1924 113.98V97.6914Z" fill="#282828"/>
<path d="M43.4932 97.3203C43.4932 97.3203 44.1844 97.451 44.1844 98.9235C44.1844 100.396 44.1844 114.248 44.1844 114.248L43.4932 113.61V97.3203Z" fill="#282828"/>
<path d="M47.7812 96.6221C47.7812 96.6221 48.4724 96.7527 48.4724 98.2252C48.4724 99.6968 48.4724 113.55 48.4724 113.55L47.7812 112.912V96.6221Z" fill="#282828"/>
<path d="M52.0762 95.707C52.0762 95.707 52.7674 95.8377 52.7674 97.3093C52.7674 98.7818 52.7674 112.634 52.7674 112.634L52.0762 111.996V95.707Z" fill="#282828"/>
<path d="M4.84244 105.52C4.65433 105.52 4.50195 105.286 4.50195 104.996V89.2951C4.50195 89.0055 4.65433 88.7715 4.84244 88.7715C5.03055 88.7715 5.18294 89.0055 5.18294 89.2951V104.996C5.18294 105.286 5.03055 105.52 4.84244 105.52Z" fill="#111111"/>
<path d="M9.13639 109.052C8.94828 109.052 8.7959 108.818 8.7959 108.528V92.8282C8.7959 92.5387 8.94828 92.3047 9.13639 92.3047C9.3245 92.3047 9.47689 92.5387 9.47689 92.8282V108.529C9.47689 108.818 9.3245 109.052 9.13639 109.052Z" fill="#111111"/>
<path d="M13.4313 110.95C13.2432 110.95 13.0908 110.716 13.0908 110.427V94.7257C13.0908 94.4362 13.2432 94.2021 13.4313 94.2021C13.6194 94.2021 13.7711 94.4362 13.7711 94.7257V110.427C13.7718 110.715 13.6194 110.95 13.4313 110.95Z" fill="#111111"/>
<path d="M17.7253 112.498C17.5371 112.498 17.3848 112.264 17.3848 111.975V96.2736C17.3848 95.984 17.5371 95.75 17.7253 95.75C17.9134 95.75 18.065 95.984 18.065 96.2736V111.975C18.0658 112.264 17.9134 112.498 17.7253 112.498Z" fill="#111111"/>
<path d="M22.0194 113.37C21.8313 113.37 21.6797 113.136 21.6797 112.847V97.1466C21.6797 96.8571 21.8321 96.623 22.0194 96.623C22.2076 96.623 22.3599 96.8571 22.3599 97.1466V112.847C22.3599 113.135 22.2076 113.37 22.0194 113.37Z" fill="#111111"/>
<path d="M26.3151 114.068C26.127 114.068 25.9746 113.834 25.9746 113.544V97.8439C25.9746 97.5543 26.127 97.3203 26.3151 97.3203C26.5032 97.3203 26.6556 97.5543 26.6556 97.8439V113.544C26.6556 113.834 26.5032 114.068 26.3151 114.068Z" fill="#111111"/>
<path d="M30.6091 114.439C30.4209 114.439 30.2686 114.205 30.2686 113.915V98.215C30.2686 97.9254 30.4209 97.6914 30.6091 97.6914C30.7972 97.6914 30.9488 97.9254 30.9488 98.215V113.915C30.9488 114.204 30.7972 114.439 30.6091 114.439Z" fill="#111111"/>
<path d="M34.904 114.679C34.7159 114.679 34.5635 114.445 34.5635 114.155V98.4542C34.5635 98.1647 34.7159 97.9307 34.904 97.9307C35.0921 97.9307 35.2437 98.1647 35.2437 98.4542V114.155C35.2437 114.446 35.0921 114.679 34.904 114.679Z" fill="#111111"/>
<path d="M39.1979 114.439C39.0098 114.439 38.8574 114.205 38.8574 113.915V98.215C38.8574 97.9254 39.0098 97.6914 39.1979 97.6914C39.386 97.6914 39.5377 97.9254 39.5377 98.215V113.915C39.5377 114.204 39.386 114.439 39.1979 114.439Z" fill="#111111"/>
<path d="M43.4919 114.068C43.3038 114.068 43.1514 113.834 43.1514 113.544V97.8439C43.1514 97.5543 43.3038 97.3203 43.4919 97.3203C43.68 97.3203 43.8323 97.5543 43.8323 97.8439V113.544C43.8316 113.834 43.68 114.068 43.4919 114.068Z" fill="#111111"/>
<path d="M47.787 113.37C47.5989 113.37 47.4473 113.136 47.4473 112.847V97.1466C47.4473 96.8571 47.5997 96.623 47.787 96.623C47.9751 96.623 48.1268 96.8571 48.1268 97.1466V112.847C48.1268 113.135 47.9751 113.37 47.787 113.37Z" fill="#111111"/>
<path d="M52.081 112.454C51.8929 112.454 51.7412 112.22 51.7412 111.931V96.2306C51.7412 95.941 51.8936 95.707 52.081 95.707C52.2684 95.707 52.4207 95.941 52.4207 96.2306V111.931C52.4207 112.22 52.2691 112.454 52.081 112.454Z" fill="#111111"/>
<path d="M56.3756 111.364C56.1875 111.364 56.0352 111.13 56.0352 110.841V95.1398C56.0352 94.8502 56.1875 94.6162 56.3756 94.6162C56.5637 94.6162 56.7161 94.8502 56.7161 95.1398V110.841C56.7154 111.13 56.5637 111.364 56.3756 111.364Z" fill="#111111"/>
<path d="M60.6698 109.271C60.4817 109.271 60.3301 109.037 60.3301 108.747V93.047C60.3301 92.7575 60.4825 92.5234 60.6698 92.5234C60.858 92.5234 61.0096 92.7575 61.0096 93.047V108.747C61.0096 109.037 60.858 109.271 60.6698 109.271Z" fill="#111111"/>
<path d="M64.9647 106.218C64.7766 106.218 64.625 105.984 64.625 105.694V89.9943C64.625 89.7047 64.7774 89.4707 64.9647 89.4707C65.1529 89.4707 65.3052 89.7047 65.3052 89.9943V105.694C65.3045 105.984 65.1521 106.218 64.9647 106.218Z" fill="#111111"/>
<path d="M68.1827 98.457V99.8911C68.1827 108.16 53.3592 114.859 35.079 114.859C16.7922 114.859 1.96875 108.16 1.96875 99.8911V98.457C1.96875 106.715 16.7922 113.414 35.079 113.414C53.3592 113.414 68.1827 106.715 68.1827 98.457Z" fill="#111111"/>
<path d="M0 61.5596V79.6153C0 87.8787 14.8235 94.5775 33.1081 94.5775C51.3934 94.5775 66.2161 87.8787 66.2161 79.6153V61.5596H0Z" fill="#3D3D3D"/>
<path d="M66.2171 61.5596H53.2178V77.4015C53.2178 83.2376 50.3911 88.1239 46.6304 88.8866C42.5029 89.7236 37.9277 90.1891 33.1112 90.1891C14.8245 90.1891 0.000976562 83.4904 0.000976562 75.2321V79.6179C0.000976562 87.8762 14.8245 94.5749 33.1112 94.5749C51.3907 94.5749 66.2149 87.8762 66.2149 79.6179V76.5294L66.2171 76.5226V61.5596Z" fill="#282828"/>
<path d="M66.2169 61.5556C66.2169 69.825 51.3934 76.5237 33.1066 76.5237C14.8199 76.5237 0.00292969 69.825 0.00292969 61.5556C0.00292969 60.6032 0.200517 59.6714 0.581112 58.7712C3.4589 51.8418 16.9284 46.5977 33.1066 46.5977C50.9304 46.5977 65.4688 52.9616 66.1899 60.9372C66.2103 61.137 66.2169 61.3463 66.2169 61.5556Z" fill="#5E5E5E"/>
<path d="M33.1075 73.684C50.3908 73.684 64.4016 67.758 64.4016 60.4479C64.4016 53.1379 50.3908 47.2119 33.1075 47.2119C15.8243 47.2119 1.81348 53.1379 1.81348 60.4479C1.81348 67.758 15.8243 73.684 33.1075 73.684Z" fill="#848484"/>
<path d="M33.1074 71.9172C49.6662 71.9172 63.0898 66.5094 63.0898 59.8385C63.0898 53.1676 49.6662 47.7598 33.1074 47.7598C16.5486 47.7598 3.125 53.1676 3.125 59.8385C3.125 66.5094 16.5486 71.9172 33.1074 71.9172Z" fill="#6B6B6B"/>
<path d="M52.4381 59.4591C52.4381 59.6368 52.4177 59.8255 52.3768 60.0032C51.7097 63.3948 44.7912 66.1262 35.9063 66.6182C35.3142 66.6498 34.7156 66.6703 34.1032 66.6814C33.7765 66.6916 33.4433 66.6916 33.1101 66.6916C32.7769 66.6916 32.4437 66.6916 32.1171 66.6814C22.382 66.4926 14.5448 63.6254 13.8376 60.0032C13.7968 59.8255 13.7764 59.6368 13.7764 59.4591C13.7764 55.4611 22.4367 52.2266 33.1109 52.2266C43.7843 52.2257 52.4381 55.4602 52.4381 59.4591Z" fill="#111111"/>
<path d="M52.3771 60.0031C51.71 63.3947 44.7915 66.1262 35.9066 66.6181C35.3145 66.6497 34.7159 66.6702 34.1035 66.6813C33.7768 66.6916 33.4436 66.6916 33.1104 66.6916C32.7772 66.6916 32.444 66.6916 32.1174 66.6813C22.3823 66.4926 14.5451 63.6253 13.8379 60.0031C14.559 56.7789 22.9131 54.2354 33.1111 54.2354C43.3084 54.2354 51.656 56.7789 52.3771 60.0031Z" fill="#3D3D3D"/>
<path d="M65.1094 66.9531V78.2085C65.1094 79.581 64.712 80.8793 64.0164 81.7402C62.4161 83.7217 59.0002 87.1048 53.4014 88.7003C55.0032 86.2353 55.9613 82.9513 56.0932 79.4708L56.1727 73.4221L56.9397 73.0471C59.5317 72.0812 61.8889 70.3379 64.0267 68.0908L65.1094 66.9531Z" fill="#333333"/>
<path d="M2.875 68.3838C2.875 68.3838 3.56619 68.5145 3.56619 69.9861C3.56619 71.4577 3.56619 85.3104 3.56619 85.3104L2.875 84.6724V68.3838Z" fill="#282828"/>
<path d="M7.16406 71.916C7.16406 71.916 7.85526 72.0467 7.85526 73.5192C7.85526 74.9908 7.85526 88.8435 7.85526 88.8435L7.16406 88.2055V71.916Z" fill="#282828"/>
<path d="M11.458 73.8135C11.458 73.8135 12.1492 73.9442 12.1492 75.4166C12.1492 76.8882 12.1492 90.7409 12.1492 90.7409L11.458 90.1029V73.8135Z" fill="#282828"/>
<path d="M15.752 75.3613C15.752 75.3613 16.4431 75.492 16.4431 76.9645C16.4431 78.4361 16.4431 92.2888 16.4431 92.2888L15.752 91.6508V75.3613Z" fill="#282828"/>
<path d="M20.0469 76.2344C20.0469 76.2344 20.7373 76.3651 20.7373 77.8375C20.7373 79.3091 20.7373 93.1618 20.7373 93.1618L20.0469 92.5238V76.2344Z" fill="#282828"/>
<path d="M24.3418 76.9316C24.3418 76.9316 25.033 77.0623 25.033 78.5348C25.033 80.0064 25.033 93.8591 25.033 93.8591L24.3418 93.2211V76.9316Z" fill="#282828"/>
<path d="M28.6367 77.3027C28.6367 77.3027 29.3279 77.4334 29.3279 78.9059C29.3279 80.3775 29.3279 94.2302 29.3279 94.2302L28.6367 93.5922V77.3027Z" fill="#282828"/>
<path d="M32.9355 77.5439C32.9355 77.5439 33.6267 77.6746 33.6267 79.1471C33.6267 80.6187 33.6267 94.4714 33.6267 94.4714L32.9355 93.8334V77.5439Z" fill="#282828"/>
<path d="M37.2246 77.3027C37.2246 77.3027 37.9158 77.4334 37.9158 78.9059C37.9158 80.3775 37.9158 94.2302 37.9158 94.2302L37.2246 93.5922V77.3027Z" fill="#282828"/>
<path d="M41.5244 76.9316C41.5244 76.9316 42.2156 77.0623 42.2156 78.5348C42.2156 80.0064 42.2156 93.8591 42.2156 93.8591L41.5244 93.2211V76.9316Z" fill="#282828"/>
<path d="M45.8135 76.2344C45.8135 76.2344 46.5047 76.3651 46.5047 77.8375C46.5047 79.3091 46.5047 93.1618 46.5047 93.1618L45.8135 92.5238V76.2344Z" fill="#282828"/>
<path d="M50.1084 75.3184C50.1084 75.3184 50.7996 75.449 50.7996 76.9215C50.7996 78.3931 50.7996 92.2458 50.7996 92.2458L50.1084 91.6078V75.3184Z" fill="#282828"/>
<path d="M2.87467 85.131C2.68656 85.131 2.53418 84.897 2.53418 84.6075V68.9073C2.53418 68.6178 2.68656 68.3838 2.87467 68.3838C3.06278 68.3838 3.21444 68.6178 3.21444 68.9073V84.6075C3.21444 84.897 3.06205 85.131 2.87467 85.131Z" fill="#111111"/>
<path d="M7.16887 88.6633C6.98076 88.6633 6.8291 88.4292 6.8291 88.1397V72.4396C6.8291 72.15 6.98149 71.916 7.16887 71.916C7.35625 71.916 7.50936 72.15 7.50936 72.4396V88.1397C7.50936 88.4292 7.35698 88.6633 7.16887 88.6633Z" fill="#111111"/>
<path d="M11.4628 90.5607C11.2747 90.5607 11.123 90.3267 11.123 90.0372V74.337C11.123 74.0475 11.2754 73.8135 11.4628 73.8135C11.6509 73.8135 11.8033 74.0475 11.8033 74.337V90.038C11.8033 90.3267 11.6509 90.5607 11.4628 90.5607Z" fill="#111111"/>
<path d="M15.7568 92.1094C15.5686 92.1094 15.417 91.8754 15.417 91.5859V75.8849C15.417 75.5954 15.5694 75.3613 15.7568 75.3613C15.9449 75.3613 16.0972 75.5954 16.0972 75.8849V91.5859C16.0972 91.8754 15.9449 92.1094 15.7568 92.1094Z" fill="#111111"/>
<path d="M20.0514 92.9815C19.8633 92.9815 19.7109 92.7475 19.7109 92.4579V76.757C19.7109 76.4674 19.8633 76.2334 20.0514 76.2334C20.2395 76.2334 20.3919 76.4674 20.3919 76.757V92.4579C20.3919 92.7475 20.2395 92.9815 20.0514 92.9815Z" fill="#111111"/>
<path d="M24.3463 93.6788C24.1582 93.6788 24.0059 93.4447 24.0059 93.1552V77.4542C24.0059 77.1647 24.1582 76.9307 24.3463 76.9307C24.5345 76.9307 24.6868 77.1647 24.6868 77.4542V93.1552C24.6868 93.4447 24.5345 93.6788 24.3463 93.6788Z" fill="#111111"/>
<path d="M28.6403 94.05C28.4522 94.05 28.2998 93.816 28.2998 93.5264V77.8263C28.2998 77.5368 28.4522 77.3027 28.6403 77.3027C28.8284 77.3027 28.9801 77.5368 28.9801 77.8263V93.5264C28.9808 93.8168 28.8284 94.05 28.6403 94.05Z" fill="#111111"/>
<path d="M32.9352 94.2912C32.7471 94.2912 32.5947 94.0572 32.5947 93.7676V78.0675C32.5947 77.778 32.7471 77.5439 32.9352 77.5439C33.1233 77.5439 33.275 77.778 33.275 78.0675V93.7676C33.2757 94.0572 33.1233 94.2912 32.9352 94.2912Z" fill="#111111"/>
<path d="M37.2292 94.05C37.041 94.05 36.8887 93.816 36.8887 93.5264V77.8263C36.8887 77.5368 37.041 77.3027 37.2292 77.3027C37.4173 77.3027 37.5689 77.5368 37.5689 77.8263V93.5264C37.5696 93.8168 37.4173 94.05 37.2292 94.05Z" fill="#111111"/>
<path d="M41.5231 93.6788C41.335 93.6788 41.1826 93.4447 41.1826 93.1552V77.4542C41.1826 77.1647 41.335 76.9307 41.5231 76.9307C41.7112 76.9307 41.8629 77.1647 41.8629 77.4542V93.1552C41.8636 93.4447 41.7112 93.6788 41.5231 93.6788Z" fill="#111111"/>
<path d="M45.8183 92.9815C45.6302 92.9815 45.4785 92.7475 45.4785 92.4579V76.757C45.4785 76.4674 45.6309 76.2334 45.8183 76.2334C46.0064 76.2334 46.158 76.4674 46.158 76.757V92.4579C46.1588 92.7475 46.0064 92.9815 45.8183 92.9815Z" fill="#111111"/>
<path d="M50.1122 92.0655C49.9241 92.0655 49.7725 91.8315 49.7725 91.5419V75.841C49.7725 75.5514 49.9248 75.3174 50.1122 75.3174C50.3003 75.3174 50.4527 75.5514 50.4527 75.841V91.5419C50.4527 91.8315 50.3003 92.0655 50.1122 92.0655Z" fill="#111111"/>
<path d="M54.4071 90.9758C54.219 90.9758 54.0674 90.7417 54.0674 90.4522V74.7521C54.0674 74.4625 54.2198 74.2285 54.4071 74.2285C54.5953 74.2285 54.7476 74.4625 54.7476 74.7521V90.4522C54.7476 90.7417 54.5953 90.9758 54.4071 90.9758Z" fill="#111111"/>
<path d="M58.7021 88.882C58.514 88.882 58.3623 88.648 58.3623 88.3584V72.6583C58.3623 72.3688 58.5147 72.1348 58.7021 72.1348C58.8902 72.1348 59.0426 72.3688 59.0426 72.6583V88.3584C59.0426 88.648 58.8902 88.882 58.7021 88.882Z" fill="#111111"/>
<path d="M62.9968 85.8293C62.8086 85.8293 62.6562 85.5952 62.6562 85.3057V69.6056C62.6562 69.316 62.8086 69.082 62.9968 69.082C63.1849 69.082 63.3372 69.316 63.3372 69.6056V85.3057C63.3372 85.5952 63.1849 85.8293 62.9968 85.8293Z" fill="#111111"/>
<path d="M66.214 78.0684V79.5024C66.214 87.7718 51.3905 94.4705 33.1103 94.4705C14.8235 94.4705 0 87.7718 0 79.5024V78.0684C0 86.3267 14.8235 93.0254 33.1103 93.0254C51.3905 93.0254 66.214 86.3267 66.214 78.0684Z" fill="#111111"/>
<path opacity="0.3" d="M65.1388 57.7556C66.0013 59.2426 65.7089 61.5598 64.5657 62.4942C58.9588 67.0765 47.4156 70.2213 34.0933 70.2213C19.5119 70.2213 7.06966 66.4572 2.20067 61.1567C1.11795 59.9772 1.08661 57.5199 2.13433 56.267C6.85677 50.6171 18.9439 46.5977 33.1068 46.5977C48.483 46.5977 61.4145 51.3345 65.1388 57.7556Z" fill="black"/>
<path d="M3.78223 35.1504V53.2061C3.78223 61.4696 18.605 68.1683 36.8903 68.1683C55.1756 68.1683 69.9984 61.4696 69.9984 53.2061V35.1504H3.78223Z" fill="#72333F"/>
<path d="M69.9984 35.1504H56.9991V50.9923C56.9991 56.8292 54.1723 61.7147 50.4116 62.4774C46.2841 63.3144 41.709 63.7799 36.8925 63.7799C18.6057 63.7799 3.78223 57.0812 3.78223 48.8229V53.2087C3.78223 61.467 18.6057 68.1657 36.8925 68.1657C55.172 68.1657 69.9962 61.467 69.9962 53.2087V50.1203L69.9984 50.1126V35.1504Z" fill="#632D39"/>
<path d="M69.9991 35.1475C69.9991 43.4169 55.1749 50.1156 36.8889 50.1156C29.6772 50.1156 23.0103 49.0796 17.5748 47.2996C9.22065 44.5887 3.78516 40.1611 3.78516 35.1475C3.78516 26.8892 18.6021 20.1904 36.8889 20.1904C43.0863 20.1904 48.8892 20.9651 53.8486 22.3043C63.5224 24.9111 69.9991 29.6838 69.9991 35.1475Z" fill="#D94954"/>
<path d="M36.8898 47.2738C54.173 47.2738 68.1838 41.3478 68.1838 34.0378C68.1838 26.7277 54.173 20.8018 36.8898 20.8018C19.6065 20.8018 5.5957 26.7277 5.5957 34.0378C5.5957 41.3478 19.6065 47.2738 36.8898 47.2738Z" fill="#F26176"/>
<path d="M36.8896 45.507C53.4484 45.507 66.872 40.0992 66.872 33.4283C66.872 26.7574 53.4484 21.3496 36.8896 21.3496C20.3308 21.3496 6.90723 26.7574 6.90723 33.4283C6.90723 40.0992 20.3308 45.507 36.8896 45.507Z" fill="#DD5263"/>
<path d="M56.2203 33.0488C56.2203 33.2265 56.1999 33.4152 56.159 33.5929C55.4926 36.9837 48.5734 39.7159 39.6892 40.2079C39.0972 40.2395 38.4986 40.26 37.8861 40.2703C37.5595 40.2805 37.2263 40.2805 36.8931 40.2805C36.5599 40.2805 36.2267 40.2805 35.9 40.2703C26.165 40.0815 18.3278 37.2143 17.6198 33.592C17.579 33.4144 17.5586 33.2256 17.5586 33.048C17.5586 29.0491 26.2189 25.8154 36.8931 25.8154C47.5665 25.8163 56.2203 29.0499 56.2203 33.0488Z" fill="#512530"/>
<path d="M56.1593 33.5928C55.4929 36.9836 48.5737 39.7159 39.6895 40.2078C39.0975 40.2394 38.4989 40.26 37.8864 40.2702C37.5598 40.2804 37.2266 40.2804 36.8934 40.2804C36.5602 40.2804 36.227 40.2804 35.9003 40.2702C26.1653 40.0814 18.3281 37.2142 17.6201 33.592C18.3412 30.3677 26.6953 27.8242 36.8934 27.8242C47.0907 27.8251 55.4382 30.3694 56.1593 33.5928Z" fill="#72333F"/>
<path d="M68.8916 40.543V51.7983C68.8916 53.1709 68.4942 54.4691 67.7987 55.33C66.1983 57.3116 62.7824 60.6955 57.1836 62.2901C58.7854 59.8252 59.7435 56.5412 59.8755 53.0607L59.9549 47.0119L60.722 46.637C63.3139 45.6701 65.6711 43.9278 67.8089 41.6806L68.8916 40.543Z" fill="#542531"/>
<path d="M6.65625 41.9746C6.65625 41.9746 7.34744 42.1053 7.34744 43.5769C7.34744 45.0485 7.34744 58.9012 7.34744 58.9012L6.65625 58.2632V41.9746Z" fill="#632D39"/>
<path d="M10.9453 45.5068C10.9453 45.5068 11.6365 45.6375 11.6365 47.1091C11.6365 48.5807 11.6365 62.4334 11.6365 62.4334L10.9453 61.7954V45.5068Z" fill="#632D39"/>
<path d="M15.2402 47.4043C15.2402 47.4043 15.9314 47.535 15.9314 49.0066C15.9314 50.4782 15.9314 64.3309 15.9314 64.3309L15.2402 63.6929V47.4043Z" fill="#632D39"/>
<path d="M19.5352 48.9521C19.5352 48.9521 20.2256 49.0828 20.2256 50.5544C20.2256 52.0261 20.2256 65.8787 20.2256 65.8787L19.5352 65.2407V48.9521Z" fill="#632D39"/>
<path d="M23.8291 49.8242C23.8291 49.8242 24.5203 49.9549 24.5203 51.4274C24.5203 52.8998 24.5203 66.7517 24.5203 66.7517L23.8291 66.1137V49.8242Z" fill="#632D39"/>
<path d="M28.123 50.5225C28.123 50.5225 28.8142 50.6531 28.8142 52.1256C28.8142 53.5981 28.8142 67.4499 28.8142 67.4499L28.123 66.8119V50.5225Z" fill="#632D39"/>
<path d="M32.418 50.8936C32.418 50.8936 33.1092 51.0242 33.1092 52.4959C33.1092 53.9683 33.1092 67.8202 33.1092 67.8202L32.418 67.1821V50.8936Z" fill="#632D39"/>
<path d="M36.7168 51.1348C36.7168 51.1348 37.408 51.2654 37.408 52.7371C37.408 54.2087 37.408 68.0614 37.408 68.0614L36.7168 67.4234V51.1348Z" fill="#632D39"/>
<path d="M41.0059 50.8936C41.0059 50.8936 41.6971 51.0242 41.6971 52.4959C41.6971 53.9683 41.6971 67.8202 41.6971 67.8202L41.0059 67.1821V50.8936Z" fill="#632D39"/>
<path d="M45.3066 50.5225C45.3066 50.5225 45.9978 50.6531 45.9978 52.1256C45.9978 53.5981 45.9978 67.4499 45.9978 67.4499L45.3066 66.8119V50.5225Z" fill="#632D39"/>
<path d="M49.5957 49.8242C49.5957 49.8242 50.2869 49.9549 50.2869 51.4274C50.2869 52.8998 50.2869 66.7517 50.2869 66.7517L49.5957 66.1137V49.8242Z" fill="#632D39"/>
<path d="M53.8906 48.9092C53.8906 48.9092 54.5818 49.0399 54.5818 50.5115C54.5818 51.9831 54.5818 65.8358 54.5818 65.8358L53.8906 65.1978V48.9092Z" fill="#632D39"/>
<path d="M6.65592 58.7217C6.46781 58.7217 6.31543 58.4877 6.31543 58.1982V42.4972C6.31543 42.2077 6.46781 41.9736 6.65592 41.9736C6.84403 41.9736 6.99641 42.2077 6.99641 42.4972V58.1982C6.99641 58.4877 6.84403 58.7217 6.65592 58.7217Z" fill="#3A1620"/>
<path d="M10.9508 62.254C10.7627 62.254 10.6104 62.0199 10.6104 61.7304V46.0294C10.6104 45.7399 10.7627 45.5059 10.9508 45.5059C11.139 45.5059 11.2913 45.7399 11.2913 46.0294V61.7304C11.2913 62.0199 11.139 62.254 10.9508 62.254Z" fill="#3A1620"/>
<path d="M15.2448 64.1515C15.0567 64.1515 14.9043 63.9175 14.9043 63.628V47.9279C14.9043 47.6383 15.0567 47.4043 15.2448 47.4043C15.4329 47.4043 15.5846 47.6383 15.5846 47.9279V63.628C15.5853 63.9175 15.4329 64.1515 15.2448 64.1515Z" fill="#3A1620"/>
<path d="M19.5397 65.6994C19.3516 65.6994 19.1992 65.4654 19.1992 65.1758V49.4757C19.1992 49.1862 19.3516 48.9521 19.5397 48.9521C19.7278 48.9521 19.8795 49.1862 19.8795 49.4757V65.1758C19.8802 65.4654 19.7278 65.6994 19.5397 65.6994Z" fill="#3A1620"/>
<path d="M23.8346 66.5724C23.6465 66.5724 23.4941 66.3384 23.4941 66.0489V50.3488C23.4941 50.0592 23.6465 49.8252 23.8346 49.8252C24.0227 49.8252 24.1744 50.0592 24.1744 50.3488V66.0489C24.1751 66.3376 24.0227 66.5724 23.8346 66.5724Z" fill="#3A1620"/>
<path d="M28.1288 67.2697C27.9407 67.2697 27.7891 67.0357 27.7891 66.7461V51.046C27.7891 50.7565 27.9414 50.5225 28.1288 50.5225C28.3169 50.5225 28.4693 50.7565 28.4693 51.046V66.7461C28.4693 67.0357 28.3169 67.2697 28.1288 67.2697Z" fill="#3A1620"/>
<path d="M32.4228 67.6408C32.2347 67.6408 32.083 67.4068 32.083 67.1172V51.4171C32.083 51.1276 32.2354 50.8936 32.4228 50.8936C32.6109 50.8936 32.7633 51.1276 32.7633 51.4171V67.1172C32.7633 67.4059 32.6109 67.6408 32.4228 67.6408Z" fill="#3A1620"/>
<path d="M36.7175 67.881C36.5293 67.881 36.377 67.647 36.377 67.3575V51.6573C36.377 51.3678 36.5293 51.1338 36.7175 51.1338C36.9056 51.1338 37.0579 51.3678 37.0579 51.6573V67.3575C37.0579 67.647 36.9056 67.881 36.7175 67.881Z" fill="#3A1620"/>
<path d="M41.0114 67.6408C40.8233 67.6408 40.6709 67.4068 40.6709 67.1172V51.4171C40.6709 51.1276 40.8233 50.8936 41.0114 50.8936C41.1995 50.8936 41.3512 51.1276 41.3512 51.4171V67.1172C41.3519 67.4059 41.1995 67.6408 41.0114 67.6408Z" fill="#3A1620"/>
<path d="M45.3053 67.2697C45.1172 67.2697 44.9648 67.0357 44.9648 66.7461V51.046C44.9648 50.7565 45.1172 50.5225 45.3053 50.5225C45.4935 50.5225 45.6451 50.7565 45.6451 51.046V66.7461C45.6458 67.0357 45.4935 67.2697 45.3053 67.2697Z" fill="#3A1620"/>
<path d="M49.6003 66.5724C49.4122 66.5724 49.2598 66.3384 49.2598 66.0489V50.3488C49.2598 50.0592 49.4122 49.8252 49.6003 49.8252C49.7884 49.8252 49.94 50.0592 49.94 50.3488V66.0489C49.94 66.3376 49.7884 66.5724 49.6003 66.5724Z" fill="#3A1620"/>
<path d="M53.8952 65.6564C53.7071 65.6564 53.5547 65.4224 53.5547 65.1329V49.4328C53.5547 49.1432 53.7071 48.9092 53.8952 48.9092C54.0833 48.9092 54.235 49.1432 54.235 49.4328V65.1337C54.2357 65.4224 54.0833 65.6564 53.8952 65.6564Z" fill="#3A1620"/>
<path d="M58.1901 64.5665C58.002 64.5665 57.8496 64.3324 57.8496 64.0429V48.3419C57.8496 48.0524 58.002 47.8184 58.1901 47.8184C58.3782 47.8184 58.5299 48.0524 58.5299 48.3419V64.0429C58.5299 64.3324 58.3782 64.5665 58.1901 64.5665Z" fill="#3A1620"/>
<path d="M62.4843 62.4728C62.2962 62.4728 62.1445 62.2388 62.1445 61.9493V46.2491C62.1445 45.9596 62.2969 45.7256 62.4843 45.7256C62.6724 45.7256 62.8248 45.9596 62.8248 46.2491V61.9493C62.8248 62.2388 62.6724 62.4728 62.4843 62.4728Z" fill="#3A1620"/>
<path d="M66.7782 59.4191C66.5901 59.4191 66.4385 59.1851 66.4385 58.8955V43.1954C66.4385 42.9059 66.5909 42.6719 66.7782 42.6719C66.9664 42.6719 67.1187 42.9059 67.1187 43.1954V58.8955C67.118 59.1851 66.9664 59.4191 66.7782 59.4191Z" fill="#3A1620"/>
<path d="M69.9962 51.6592V53.0932C69.9962 61.3618 55.1727 68.0614 36.8925 68.0614C18.6057 68.0614 3.78223 61.3626 3.78223 53.0932V51.6592C3.78223 59.9175 18.6057 66.6162 36.8925 66.6162C55.1727 66.6162 69.9962 59.9175 69.9962 51.6592Z" fill="#3A1620"/>
<path opacity="0.4" d="M67.305 34.4463C67.305 42.7046 52.8213 49.4144 34.5346 49.4144C28.3371 49.4144 22.5342 48.6397 17.5748 47.2997C9.22065 44.5887 3.78516 40.1611 3.78516 35.1475C3.78516 26.8892 18.6021 20.1904 36.8889 20.1904C43.0863 20.1904 48.8892 20.9651 53.8486 22.3043C62.2028 25.0161 67.305 29.4327 67.305 34.4463Z" fill="#16060B"/>
<path d="M0.907227 14.9951V33.0508C0.907227 41.3143 15.73 48.013 34.0153 48.013C52.3006 48.013 67.1234 41.3143 67.1234 33.0508V14.9951H0.907227Z" fill="#72333F"/>
<path d="M67.1234 14.9951H54.1241V30.837C54.1241 36.674 51.2974 41.5594 47.5366 42.3221C43.4091 43.1592 38.834 43.6246 34.0175 43.6246C15.7307 43.6246 0.907227 36.9259 0.907227 28.6676V33.0534C0.907227 41.3117 15.7307 48.0105 34.0175 48.0105C52.297 48.0105 67.1212 41.3117 67.1212 33.0534V29.9641L67.1234 29.9573V14.9951Z" fill="#632D39"/>
<path d="M34.0153 29.9575C52.3004 29.9575 67.1234 23.2587 67.1234 14.9954C67.1234 6.73199 52.3004 0.0332031 34.0153 0.0332031C15.7302 0.0332031 0.907227 6.73199 0.907227 14.9954C0.907227 23.2587 15.7302 29.9575 34.0153 29.9575Z" fill="#D94954"/>
<path d="M34.0147 27.1195C51.298 27.1195 65.3088 21.1935 65.3088 13.8835C65.3088 6.57343 51.298 0.647461 34.0147 0.647461C16.7315 0.647461 2.7207 6.57343 2.7207 13.8835C2.7207 21.1935 16.7315 27.1195 34.0147 27.1195Z" fill="#F26176"/>
<path d="M63.9972 13.274C63.9972 19.9454 50.5736 25.3527 34.0156 25.3527C17.4575 25.3527 4.0332 19.9454 4.0332 13.274C4.0332 6.60349 17.4568 1.19531 34.0156 1.19531C50.5744 1.19531 63.9972 6.60263 63.9972 13.274Z" fill="#DD5263"/>
<path d="M53.3453 12.8947C53.3453 13.0723 53.3249 13.2611 53.284 13.4387C52.6176 16.8295 45.6984 19.5618 36.8142 20.0537C36.2222 20.0853 35.6236 20.1058 35.0111 20.1169C34.6845 20.1272 34.3513 20.1272 34.0181 20.1272C33.6849 20.1272 33.3517 20.1272 33.025 20.1169C23.29 19.9282 15.4528 17.061 14.7448 13.4387C14.704 13.2611 14.6836 13.0723 14.6836 12.8947C14.6836 8.8966 23.3439 5.66211 34.0181 5.66211C44.6915 5.66211 53.3453 8.8966 53.3453 12.8947Z" fill="#512530"/>
<path d="M53.2833 13.4396C52.6169 16.8304 45.6977 19.5627 36.8135 20.0547C36.2215 20.0863 35.6229 20.1068 35.0104 20.1179C34.6838 20.1281 34.3506 20.1281 34.0174 20.1281C33.6842 20.1281 33.351 20.1281 33.0243 20.1179C23.2893 19.9291 15.4521 17.0619 14.7441 13.4396C15.4652 10.2154 23.8194 7.67188 34.0174 7.67188C44.2154 7.67188 52.563 10.2154 53.2833 13.4396Z" fill="#72333F"/>
<path d="M66.0166 20.3887V31.644C66.0166 33.0174 65.6192 34.3148 64.9237 35.1757C63.3233 37.1573 59.9074 40.5412 54.3086 42.1358C55.9104 39.6709 56.8685 36.3869 57.0005 32.9064L57.0799 26.8576L57.847 26.4827C60.4389 25.5167 62.7961 23.7735 64.9339 21.5263L66.0166 20.3887Z" fill="#542531"/>
<path d="M3.78125 21.8203C3.78125 21.8203 4.47244 21.951 4.47244 23.4226C4.47244 24.8942 4.47244 38.7469 4.47244 38.7469L3.78125 38.1089V21.8203Z" fill="#632D39"/>
<path d="M8.07031 25.3535C8.07031 25.3535 8.76151 25.4842 8.76151 26.9567C8.76151 28.4283 8.76151 42.281 8.76151 42.281L8.07031 41.643V25.3535Z" fill="#632D39"/>
<path d="M12.3652 27.25C12.3652 27.25 13.0564 27.3807 13.0564 28.8531C13.0564 30.3248 13.0564 44.1775 13.0564 44.1775L12.3652 43.5394V27.25Z" fill="#632D39"/>
<path d="M16.6592 28.7988C16.6592 28.7988 17.3504 28.9295 17.3504 30.402C17.3504 31.8736 17.3504 45.7263 17.3504 45.7263L16.6592 45.0883V28.7988Z" fill="#632D39"/>
<path d="M20.9541 29.6709C20.9541 29.6709 21.6453 29.8016 21.6453 31.274C21.6453 32.7457 21.6453 46.5984 21.6453 46.5984L20.9541 45.9603V29.6709Z" fill="#632D39"/>
<path d="M25.248 30.3682C25.248 30.3682 25.9393 30.4988 25.9393 31.9713C25.9393 33.4429 25.9393 47.2956 25.9393 47.2956L25.248 46.6576V30.3682Z" fill="#632D39"/>
<path d="M29.543 30.7393C29.543 30.7393 30.2342 30.8699 30.2342 32.3416C30.2342 33.8132 30.2342 47.6659 30.2342 47.6659L29.543 47.0278V30.7393Z" fill="#632D39"/>
<path d="M33.8418 30.9795C33.8418 30.9795 34.533 31.1102 34.533 32.5818C34.533 34.0534 34.533 47.9061 34.533 47.9061L33.8418 47.2681V30.9795Z" fill="#632D39"/>
<path d="M38.1318 30.7393C38.1318 30.7393 38.823 30.8699 38.823 32.3416C38.823 33.8132 38.823 47.6659 38.823 47.6659L38.1318 47.0278V30.7393Z" fill="#632D39"/>
<path d="M42.4316 30.3682C42.4316 30.3682 43.1228 30.4988 43.1228 31.9713C43.1228 33.4429 43.1228 47.2956 43.1228 47.2956L42.4316 46.6576V30.3682Z" fill="#632D39"/>
<path d="M46.7207 29.6709C46.7207 29.6709 47.4119 29.8016 47.4119 31.274C47.4119 32.7457 47.4119 46.5984 47.4119 46.5984L46.7207 45.9603V29.6709Z" fill="#632D39"/>
<path d="M51.0146 28.7549C51.0146 28.7549 51.7058 28.8856 51.7058 30.3572C51.7058 31.8297 51.7058 45.6815 51.7058 45.6815L51.0146 45.0435V28.7549Z" fill="#632D39"/>
<path d="M3.78117 38.5676C3.59306 38.5676 3.44141 38.3335 3.44141 38.044V22.3439C3.44141 22.0543 3.59379 21.8203 3.78117 21.8203C3.96928 21.8203 4.12166 22.0543 4.12166 22.3439V38.044C4.12166 38.3335 3.96928 38.5676 3.78117 38.5676Z" fill="#3A1620"/>
<path d="M8.07584 42.1008C7.88773 42.1008 7.73535 41.8667 7.73535 41.5772V25.8771C7.73535 25.5875 7.88773 25.3535 8.07584 25.3535C8.26395 25.3535 8.41633 25.5875 8.41633 25.8771V41.5772C8.41633 41.8667 8.26395 42.1008 8.07584 42.1008Z" fill="#3A1620"/>
<path d="M12.3698 43.9971C12.1817 43.9971 12.0293 43.7631 12.0293 43.4736V27.7726C12.0293 27.483 12.1817 27.249 12.3698 27.249C12.5579 27.249 12.7103 27.483 12.7103 27.7726V43.4736C12.7103 43.7631 12.5579 43.9971 12.3698 43.9971Z" fill="#3A1620"/>
<path d="M16.6647 45.5459C16.4766 45.5459 16.3242 45.3119 16.3242 45.0224V29.3214C16.3242 29.0319 16.4766 28.7979 16.6647 28.7979C16.8528 28.7979 17.0045 29.0319 17.0045 29.3214V45.0224C17.0045 45.3119 16.8528 45.5459 16.6647 45.5459Z" fill="#3A1620"/>
<path d="M20.9596 46.4181C20.7715 46.4181 20.6191 46.1841 20.6191 45.8946V30.1945C20.6191 29.9049 20.7715 29.6709 20.9596 29.6709C21.1477 29.6709 21.2994 29.9049 21.2994 30.1945V45.8946C21.2994 46.1841 21.1477 46.4181 20.9596 46.4181Z" fill="#3A1620"/>
<path d="M25.2536 47.1154C25.0655 47.1154 24.9131 46.8814 24.9131 46.5918V30.8917C24.9131 30.6022 25.0655 30.3682 25.2536 30.3682C25.4417 30.3682 25.5933 30.6022 25.5933 30.8917V46.5918C25.5933 46.8814 25.4417 47.1154 25.2536 47.1154Z" fill="#3A1620"/>
<path d="M29.5485 47.4865C29.3604 47.4865 29.208 47.2525 29.208 46.9629V31.2628C29.208 30.9733 29.3604 30.7393 29.5485 30.7393C29.7366 30.7393 29.889 30.9733 29.889 31.2628V46.9629C29.8883 47.2525 29.7366 47.4865 29.5485 47.4865Z" fill="#3A1620"/>
<path d="M33.8427 47.7267C33.6546 47.7267 33.5029 47.4927 33.5029 47.2032V31.5031C33.5029 31.2135 33.6553 30.9795 33.8427 30.9795C34.0308 30.9795 34.1832 31.2135 34.1832 31.5031V47.2032C34.1825 47.4927 34.0308 47.7267 33.8427 47.7267Z" fill="#3A1620"/>
<path d="M38.1366 47.4865C37.9485 47.4865 37.7969 47.2525 37.7969 46.9629V31.2628C37.7969 30.9733 37.9493 30.7393 38.1366 30.7393C38.3248 30.7393 38.4771 30.9733 38.4771 31.2628V46.9629C38.4764 47.2525 38.3248 47.4865 38.1366 47.4865Z" fill="#3A1620"/>
<path d="M42.4316 47.1154C42.2435 47.1154 42.0918 46.8814 42.0918 46.5918V30.8917C42.0918 30.6022 42.2442 30.3682 42.4316 30.3682C42.6197 30.3682 42.7721 30.6022 42.7721 30.8917V46.5918C42.7713 46.8814 42.6197 47.1154 42.4316 47.1154Z" fill="#3A1620"/>
<path d="M46.7255 46.4181C46.5374 46.4181 46.3857 46.1841 46.3857 45.8946V30.1945C46.3857 29.9049 46.5381 29.6709 46.7255 29.6709C46.9129 29.6709 47.0653 29.9049 47.0653 30.1945V45.8946C47.0653 46.1841 46.9136 46.4181 46.7255 46.4181Z" fill="#3A1620"/>
<path d="M51.0204 45.5021C50.8323 45.5021 50.6807 45.2681 50.6807 44.9786V29.2784C50.6807 28.9889 50.8331 28.7549 51.0204 28.7549C51.2085 28.7549 51.3609 28.9889 51.3609 29.2784V44.9786C51.3602 45.2681 51.2085 45.5021 51.0204 45.5021Z" fill="#3A1620"/>
<path d="M55.3151 44.4112C55.127 44.4112 54.9746 44.1772 54.9746 43.8876V28.1866C54.9746 27.8971 55.127 27.6631 55.3151 27.6631C55.5032 27.6631 55.6549 27.8971 55.6549 28.1866V43.8876C55.6549 44.1772 55.5032 44.4112 55.3151 44.4112Z" fill="#3A1620"/>
<path d="M59.609 42.3185C59.4209 42.3185 59.2686 42.0845 59.2686 41.795V26.0949C59.2686 25.8053 59.4209 25.5713 59.609 25.5713C59.7971 25.5713 59.9488 25.8053 59.9488 26.0949V41.795C59.9488 42.0845 59.7971 42.3185 59.609 42.3185Z" fill="#3A1620"/>
<path d="M63.904 39.2658C63.7159 39.2658 63.5635 39.0318 63.5635 38.7422V23.0421C63.5635 22.7526 63.7159 22.5186 63.904 22.5186C64.0921 22.5186 64.2437 22.7526 64.2437 23.0421V38.7422C64.2437 39.0318 64.0921 39.2658 63.904 39.2658Z" fill="#3A1620"/>
<path d="M67.1212 31.5039V32.9379C67.1212 41.2065 52.297 47.9061 34.0175 47.9061C15.7307 47.9061 0.907227 41.2074 0.907227 32.9379V31.5039C0.907227 39.7622 15.7307 46.4609 34.0175 46.4609C52.2977 46.4618 67.1212 39.7631 67.1212 31.5039Z" fill="#3A1620"/>
</svg>
