<svg width="104" height="85" viewBox="0 0 104 85" fill="none" xmlns="http://www.w3.org/2000/svg">
<path d="M96.5763 39.4711C96.5763 40.3919 96.5314 41.2972 96.4278 42.1951C96.4205 42.2987 96.4058 42.4104 96.3912 42.514C96.1758 40.6513 95.7599 38.8399 95.1662 37.0734C95.0993 36.8801 95.025 36.695 94.9435 36.509C94.9288 36.4642 94.9141 36.4274 94.8986 36.3899C94.2013 34.8909 92.9837 33.6961 91.4773 32.9833C86.6606 30.7046 77.8875 26.2736 76.1952 23.4974C75.4897 22.3393 75.0077 20.9072 74.666 19.5411C74.3243 18.1456 73.605 16.8913 72.6026 15.9338C72.588 15.9192 72.5806 15.9192 72.5806 15.9192C71.8678 15.2439 71.0147 14.717 70.0499 14.3826C64.535 12.5125 58.4264 11.4735 51.9989 11.4735C50.6328 11.4735 49.2749 11.5183 47.939 11.6219C43.0252 11.9555 38.3349 12.9056 34.0148 14.3606C31.6839 15.1476 29.9769 17.1213 29.3979 19.5191C29.0561 20.8925 28.5668 22.332 27.8613 23.4974C26.169 26.2883 17.3144 30.7486 12.5123 33.02C10.7833 33.8364 9.41723 35.2987 8.81616 37.1174C8.22976 38.8693 7.82118 40.6651 7.60587 42.5132C7.59119 42.4097 7.57649 42.2979 7.56834 42.1943C7.46476 41.2964 7.41992 40.3911 7.41992 39.4703C7.41992 20.6478 27.3785 5.3877 51.9981 5.3877C52.7549 5.3877 53.5126 5.40239 54.2621 5.43257C77.828 6.33133 96.5763 21.2277 96.5763 39.4711Z" fill="#72333F"/>
<path d="M91.0634 32.1605C91.0634 32.1605 90.7429 32.0169 90.1949 31.7584C89.9371 31.6369 89.7716 31.3734 89.7805 31.0888C89.8009 30.4339 89.8156 29.5197 89.752 29.1502C89.6476 28.5475 89.248 28.355 89.248 28.355L88.8214 31.0945C84.7876 29.1045 76.636 24.7176 75.663 21.3387C74.4462 17.1083 72.8053 16.0465 72.6055 15.9355C73.6078 16.893 74.3271 18.1474 74.6689 19.5428C75.0106 20.9089 75.4926 22.341 76.198 23.4991C77.8904 26.2753 86.6634 30.7063 91.4802 32.985C92.9874 33.6978 94.2042 34.8926 94.9015 36.3916C93.7499 33.3186 91.0634 32.1605 91.0634 32.1605Z" fill="#5E2B39"/>
<path d="M47.939 11.6165V11.6239C43.0252 11.9574 38.3349 12.9076 34.0148 14.3625C31.6839 15.1496 29.9769 17.1232 29.3979 19.521C29.0561 20.8944 28.5668 22.3339 27.8613 23.4993C26.169 26.2902 17.3144 30.7506 12.5123 33.0219C10.7833 33.8383 9.41723 35.3006 8.81616 37.1194C8.22976 38.8712 7.82118 40.6671 7.60587 42.5152C7.59119 42.4116 7.57649 42.2999 7.56834 42.1963C7.46476 41.2983 7.41992 40.3931 7.41992 39.4723C7.41992 20.6498 27.3785 5.38965 51.9981 5.38965C52.7549 5.38965 53.5126 5.40432 54.2621 5.4345C54.2621 5.4345 48.0124 6.33979 45.8528 8.38115C43.6858 10.4209 47.939 11.6165 47.939 11.6165Z" fill="#5E2B39"/>
<path d="M44.9863 45.8311L46.0792 48.4694H57.7965L58.8852 45.8311H44.9863Z" fill="#3D3D3D"/>
<path d="M85.3932 28.0713L84.0793 28.2418C83.7008 28.0411 83.3224 27.8332 82.8029 27.5216C81.8079 26.9279 81.5339 26.7346 81.2223 26.5421C81.0886 26.4606 80.9255 26.4386 80.7697 26.4826C71.3809 29.1691 61.6128 30.624 51.9344 30.6762C42.2634 30.624 32.488 29.1699 23.0992 26.4826C22.9508 26.4377 22.7803 26.4606 22.6466 26.5421C22.3423 26.7354 22.0675 26.9279 21.0652 27.5216C20.4788 27.8707 20.071 28.1007 19.6404 28.316L18.4822 28.1749L14.7486 28.6422L14.5781 28.6642V31.1582C14.5855 31.4698 14.7787 31.7666 15.1572 31.8482L16.4262 32.1524C16.4482 32.1524 16.4637 32.1598 16.471 32.1671L30.2835 35.4775C34.9967 36.4872 39.7694 37.1625 44.5568 37.5189C45.8707 37.6151 46.8649 38.7438 46.7613 40.0577L46.316 45.5498H57.5611L57.1157 40.0577C57.0113 38.7438 58.0063 37.6159 59.3202 37.5189C62.7342 37.2668 66.1408 36.8509 69.5254 36.2645C70.164 36.1528 70.8018 36.0345 71.4331 35.9155C72.1532 35.7744 72.8733 35.6333 73.5927 35.4775L88.719 31.8482C89.0901 31.7666 89.2834 31.4771 89.2908 31.1729H89.2981V28.568L85.3932 28.0713ZM51.9336 44.3704L51.1915 37.8092H51.3619V37.8239C51.5552 37.8239 51.7403 37.8239 51.9336 37.8166C52.1269 37.8239 52.3194 37.8239 52.5127 37.8239V37.8092H52.6831L51.9336 44.3704Z" fill="#B2B2B2"/>
<path d="M16.4242 32.1533L15.1552 31.8491C14.7768 31.7675 14.5835 31.4707 14.5762 31.1591V28.6651L14.7466 28.6431L16.5278 28.5615L15.9561 29.5337V31.7602C15.9561 31.7602 16.0532 32.0644 16.4242 32.1533Z" fill="#969696"/>
<path d="M88.7177 29.3399L73.5914 32.9765C72.9381 33.1176 72.2106 33.2514 71.4317 33.377C70.8086 33.4887 70.148 33.5923 69.4646 33.6885C65.8206 34.2301 61.6196 34.668 58.8214 34.9355C57.0997 35.106 55.8601 36.6499 56.0607 38.3642C57.315 49.0375 59.4453 67.4449 59.4453 67.4449H44.4299C44.4299 67.4449 46.4639 49.3197 47.7924 38.3723C48.0004 36.6507 46.7534 35.0995 45.0318 34.9355C41.0681 34.5571 34.2842 33.8296 30.2838 32.9757L15.9592 29.5316L15.1575 29.3383C14.4373 29.1825 14.3704 28.2177 15.0457 27.9355C16.1965 27.4608 17.5471 26.8369 18.653 26.3027C19.5811 25.8501 20.0778 25.6054 21.0654 25.019C22.0678 24.418 22.3418 24.2247 22.6468 24.0322C22.7806 23.9506 22.951 23.9286 23.0995 23.9727C23.3075 24.0322 23.5081 24.0917 23.7152 24.1431C32.9116 26.726 42.4709 28.1141 51.9347 28.1655C56.0688 28.1435 60.2176 27.8686 64.3444 27.3491C65.4136 27.2154 66.482 27.0596 67.5512 26.8891C72.0043 26.1992 76.4361 25.2189 80.77 23.9718C80.9258 23.927 81.0889 23.9498 81.2226 24.0314C81.5342 24.2247 81.809 24.4171 82.8032 25.0182C83.7974 25.6046 84.2949 25.8493 85.2157 26.3019C86.3216 26.8361 87.6721 27.46 88.8303 27.9347C89.5039 28.2193 89.4379 29.1842 88.7177 29.3399Z" fill="#DDDDDD"/>
<path d="M46.6387 48.1129C46.6387 48.1129 52.3191 49.0647 57.1995 48.1129L57.3023 46.6514H46.4707L46.6387 48.1129Z" fill="#B7B7B7"/>
<path d="M71.4314 35.916C70.801 36.0351 70.1624 36.1533 69.5238 36.2651L69.2637 33.9863C69.2637 33.9863 69.3379 33.0884 69.4341 33.0737C69.523 33.0591 71.4306 33.3779 71.4306 33.3779C71.4306 33.3779 71.6688 34.8174 71.4314 35.916Z" fill="#969696"/>
<path d="M71.4317 33.3776C70.8086 33.4894 70.148 33.593 69.4645 33.6892L66.0131 30.9203C66.0131 30.9203 64.5654 27.9664 64.3428 27.3506C65.412 27.2168 66.4804 27.0611 67.5496 26.8906C68.5299 28.0259 70.6373 30.6757 71.4317 33.3776Z" fill="#B7B7B7"/>
<path d="M45.8826 47.1504L47.1052 47.3584C50.2998 47.9032 53.5653 47.8787 56.7517 47.2891L57.9433 47.0681L58.1904 45.7004L45.5107 45.5527L45.8826 47.1504Z" fill="#3D3D3D"/>
<path d="M70.7587 34.2649C70.7587 34.2649 70.8713 35.2525 70.7359 35.958C70.6861 36.2165 70.492 36.4196 70.2335 36.4726C68.8649 36.7507 63.8671 37.7335 60.4572 37.939C59.3114 38.0083 58.4142 38.9438 58.3955 40.0913L58.3947 40.1419C58.3751 41.8415 56.6738 39.2749 56.6738 39.2749L57.1069 33.8008L61.4677 32.8115H64.1583L70.7587 34.2649Z" fill="#3D3D3D"/>
<path d="M33.1083 34.2649C33.1083 34.2649 32.9958 35.2525 33.1312 35.958C33.1809 36.2165 33.375 36.4196 33.6336 36.4726C35.0021 36.7507 39.9999 37.7335 43.4098 37.939C44.5557 38.0083 45.4528 38.9438 45.4716 40.0913L45.4724 40.1419C45.4919 41.8415 47.1932 39.2749 47.1932 39.2749L46.7601 33.8008L42.3993 32.8115H39.7087L33.1083 34.2649Z" fill="#3D3D3D"/>
<path d="M70.5585 33.5617C69.8653 31.1199 68.6166 28.8754 66.9137 27.0012C66.5965 26.6522 66.1218 26.4923 65.6537 26.5494L63.5357 26.8088C61.9249 27.0053 56.9304 27.6162 51.935 27.6162C46.9388 27.6162 41.9418 27.0053 40.3311 26.8088L38.213 26.5494C37.7457 26.4923 37.2702 26.653 36.953 27.0012C35.2501 28.8746 34.0014 31.1199 33.3082 33.5617L33.1084 34.2655L43.7084 36.2669C44.8795 36.4879 45.6934 37.5596 45.5915 38.7471L44.9839 45.8319C45.3436 45.9428 45.7758 46.0521 46.248 46.1557C49.9899 46.9786 53.8769 46.9786 57.6187 46.1557C58.0901 46.0521 58.5232 45.9437 58.8828 45.8319L58.2752 38.7471C58.1733 37.5596 58.9872 36.4879 60.1584 36.2669L70.7583 34.2655L70.5585 33.5617Z" fill="#282828"/>
<path d="M51.9998 0C23.8023 0 0.949219 19.0231 0.949219 42.5001C0.949219 48.3265 2.35932 53.8781 4.90553 58.933L4.91287 58.9404C12.6322 74.2453 30.8088 85.0002 51.9998 85.0002C80.1972 85.0002 103.05 65.9697 103.05 42.5001C103.049 19.0231 80.1964 0 51.9998 0ZM72.6924 69.6577C70.2359 70.6446 67.4148 70.4448 65.2478 68.9303C63.496 67.7053 61.4326 66.8522 59.4581 66.2658C57.0236 65.5456 54.5076 65.1819 51.9989 65.1819C49.4902 65.1819 46.9742 65.5456 44.5397 66.2658C42.5653 66.8522 40.5019 67.7061 38.75 68.9303C36.5831 70.4448 33.762 70.6446 31.3055 69.6577C17.1064 63.9577 7.42076 52.5789 7.42076 39.4711C7.42076 36.9918 7.76982 34.5801 8.42309 32.2566C8.89857 30.5789 10.1447 29.2284 11.7702 28.5898C16.1269 26.8828 24.9522 23.0977 27.7056 19.5125C29.3604 17.3602 29.9843 15.0146 30.1621 13.085C30.3701 10.9025 31.8169 9.03242 33.8884 8.32777C39.4253 6.44218 45.5486 5.38846 51.9989 5.38846C52.7558 5.38846 53.5134 5.40316 54.263 5.43333C54.2703 5.43333 54.2703 5.43333 54.2776 5.43333C59.9483 5.65598 65.3441 6.68766 70.2652 8.37997C72.3213 9.09277 73.7689 10.9482 73.9761 13.1078C74.1539 15.0375 74.7778 17.3684 76.4325 19.5133C79.1565 23.061 87.8334 26.8094 92.2342 28.5384C93.1028 28.8801 93.8523 29.429 94.446 30.119C94.446 30.1263 94.4534 30.1263 94.4534 30.1336C94.9509 30.7274 95.3366 31.4182 95.5519 32.1897C96.2199 34.5353 96.5763 36.9697 96.5763 39.4711C96.5771 52.5789 86.8914 63.9577 72.6924 69.6577Z" fill="#C43951"/>
<path d="M103.05 42.5001C103.05 65.9689 80.1965 85.0002 51.999 85.0002C51.4273 85.0002 50.8564 84.9929 50.2846 84.9782C29.8367 84.4138 12.4235 73.8302 4.91211 58.9412C5.37943 59.446 5.84024 59.9353 6.28554 60.4035C16.2094 70.8689 29.3017 77.8901 43.5823 79.8866C45.8684 80.2055 48.2506 80.4208 50.7226 80.495C55.8664 80.6508 61.396 80.1982 67.193 78.8321C81.4883 75.4621 89.8381 67.587 94.6402 60.3733C100.993 50.8279 102.463 38.7077 98.2107 28.0564C87.946 2.32356 51.9998 0 51.9998 0C80.1965 0 103.05 19.0231 103.05 42.5001Z" fill="#8E243F"/>
<path d="M103.05 42.5001C103.05 65.9689 80.1966 85.0002 51.9991 85.0002C51.761 85.0002 51.5228 84.9986 51.2855 84.9962C50.412 84.9872 49.5695 84.5027 49.2327 83.6969C48.8486 82.7794 49.249 81.928 49.9194 81.2119C50.3574 80.7438 50.9845 80.5056 51.6256 80.5154C56.5116 80.5945 61.7346 80.1182 67.1932 78.8321C81.4885 75.4621 89.8382 67.587 94.6403 60.3733C100.994 50.8279 102.463 38.7077 98.2109 28.0564C87.9461 2.32356 51.9999 0 51.9999 0C80.1966 0 103.05 19.0231 103.05 42.5001Z" fill="#771934"/>
<path d="M8.42292 32.2569C7.76965 34.5805 7.42059 36.9921 7.42059 39.4715C7.42059 52.5793 17.1063 63.9573 31.3053 69.6581C33.7618 70.645 36.5829 70.4452 38.7498 68.9306C40.5017 67.7057 42.5651 66.8526 44.5396 66.2662C46.974 65.546 49.4901 65.1823 51.9988 65.1823C51.9988 65.1896 51.9988 65.1896 51.9988 65.1896C51.9988 65.1896 45.9228 65.8975 40.8059 69.1459C37.7075 71.1123 35.4321 71.5135 34.3637 71.4695C33.2953 71.4246 26.8042 69.8237 20.9557 65.3927C15.1073 60.9544 11.4927 57.4605 8.2761 49.5739C5.69075 43.2337 6.18172 36.9636 7.09434 32.7104C7.1237 32.5766 7.15388 32.4429 7.18324 32.3091C7.56901 30.8248 8.48979 29.3103 10.1299 28.2639C11.9258 27.1205 14.0267 26.6532 16.3796 25.6361C18.7325 24.6118 21.3896 23.1275 23.1855 21.9547C24.9741 20.7819 27.6312 18.1843 28.3733 16.2987C29.1155 14.4131 29.1155 12.521 29.6424 10.6949C29.7835 10.2089 30.166 9.70808 30.6512 9.23424C31.4701 8.4358 32.4789 7.85349 33.5612 7.48485C39.9275 5.31625 46.7954 4.36122 54.262 5.43206C53.5124 5.4027 52.7548 5.38719 51.9979 5.38719C45.5484 5.38719 39.4243 6.44091 33.8874 8.3265C31.8167 9.03197 30.3691 10.9021 30.1611 13.0837C29.9833 15.0134 29.3594 17.3589 27.7046 19.5112C24.9512 23.0965 16.126 26.8815 11.7692 28.5885C10.1454 29.2279 8.8984 30.5793 8.42292 32.2569Z" fill="#8E243F"/>
<path d="M94.4484 30.1198C93.8547 29.4299 93.1051 28.8802 92.2366 28.5393C87.8349 26.8103 79.1589 23.0619 76.4349 19.5142C74.7801 17.3692 74.1562 15.0383 73.9784 13.1087C73.7705 10.9491 72.3236 9.09367 70.2676 8.38086C70.2676 8.38086 74.4596 9.37014 75.0786 13.762C75.7433 18.4809 76.7921 19.5142 81.542 22.8539C86.2764 26.1929 93.2267 27.9406 94.4484 30.1198Z" fill="#DB4D6C"/>
<path d="M34.3154 32.8107C34.3154 32.8107 35.697 28.8063 37.572 27.3954C37.7384 27.2698 37.9488 27.2298 38.156 27.2592C39.8205 27.4965 47.6524 28.5714 51.1904 28.2958C51.1904 28.2958 46.4315 29.1847 38.9528 28.2656C38.4944 28.2093 38.0295 28.3121 37.6462 28.569C36.9212 29.0551 35.7541 30.1854 34.3154 32.8107Z" fill="#3D3D3D"/>
<path d="M46.469 38.4404L46.0351 44.2432C45.9984 44.7375 46.3149 45.186 46.792 45.3197C47.7976 45.6011 49.6611 46.0073 51.9986 45.9869C51.9986 45.9869 48.9075 45.509 47.4044 44.9046C47.0374 44.757 46.7985 44.4023 46.7765 44.0075L46.469 38.4404Z" fill="#3D3D3D"/>
<path d="M15.9562 29.5333L15.1545 29.3401C14.4344 29.1843 14.3675 28.2195 15.0428 27.9373C16.1936 27.4626 17.5442 26.8387 18.6501 26.3045C19.5782 25.8519 20.0749 25.6072 21.0625 25.0208C22.0649 24.4197 22.3389 24.2264 22.6439 24.034C22.7777 23.9524 22.9481 23.9304 23.0965 23.9744C23.3045 24.034 23.5052 24.0935 23.7123 24.1449C22.7695 24.746 19.8229 26.594 17.9528 27.492C16.9659 27.9666 16.134 28.3532 15.5109 28.6427C14.7019 29.0212 15.9562 29.5333 15.9562 29.5333Z" fill="#B7B7B7"/>
<path d="M19.377 27.2495C19.377 27.2495 22.6033 25.4814 23.7117 24.6152C23.7117 24.6152 28.8408 26.2235 33.5409 26.9037C33.5409 26.9037 24.913 25.3998 19.377 27.2495Z" fill="white"/>
<path d="M70.8037 30.7703C70.8037 30.7703 69.6954 28.6784 68.459 27.2503C68.459 27.2503 73.9021 26.4714 77.2418 25.4512C77.2418 25.4512 71.0476 27.9786 70.8037 30.7703Z" fill="white"/>
<path d="M46.6374 48.1131L46.732 47.2959L46.2989 46.7715L46.0322 47.331L46.6374 48.1131Z" fill="#3D3D3D"/>
<path d="M57.1993 48.1128L57.1006 47.1683L57.5336 46.7744L57.8003 47.3339L57.1993 48.1128Z" fill="#3D3D3D"/>
<path d="M47.1904 48.8311C47.1904 48.8311 51.8816 49.8203 56.4586 48.8311L57.4495 63.4436C57.4495 63.4436 56.8182 52.3559 47.1904 48.8311Z" fill="white"/>
<path d="M36.2178 71.932C36.2178 71.932 40.6414 72.7729 45.1213 73.0673C48.1895 73.2696 51.1435 72.0764 53.3659 69.9518C54.8992 68.4862 57.3165 67.103 60.8496 67.4448C60.8496 67.4448 52.0015 64.662 46.3822 67.3926C40.7638 70.1231 38.6767 71.6074 36.2178 71.932Z" fill="#D94954"/>
<path d="M49.8594 1.31797C50.1114 1.30166 50.3585 1.28128 50.613 1.2666C50.613 1.2666 50.3414 1.27883 49.8594 1.31797Z" fill="#D94954"/>
<path d="M49.8598 1.31836C20.9438 2.9968 9.62619 18.5334 5.18623 28.7745C2.81293 34.2486 1.82283 40.2479 2.42717 46.1844C2.87165 50.5526 4.25078 55.7347 8.05949 60.2742C8.85304 61.2203 9.55933 62.119 10.3276 62.8563C11.8821 64.348 14.1746 62.0962 12.7221 60.505C12.652 60.4284 12.5826 60.3509 12.5125 60.2742C8.70868 56.0373 6.94623 51.2434 5.36892 46.3263C5.04677 45.3224 4.85674 44.1178 4.75724 42.8357C4.43917 38.7236 5.08184 34.605 6.5466 30.7702L6.55885 30.7376C7.4731 28.3634 9.44024 26.5578 11.8763 25.8238C12.8534 25.5293 13.8329 25.2056 14.5759 24.894C18.2647 23.3477 21.1102 21.7394 23.1508 20.0079C25.1921 18.2757 25.1612 15.245 25.9963 11.4722C26.0363 11.2903 26.0844 11.1125 26.139 10.9388C26.6683 9.24978 27.9651 7.90897 29.5513 7.12195C38.7917 2.53926 47.3422 1.46435 49.8598 1.31836Z" fill="#D94954"/>
<path d="M76.715 10.916C76.715 10.916 89.5407 18.0906 94.4471 28.4817C94.4471 28.4817 83.198 23.2735 80.9364 21.3227C78.2303 18.9877 76.5291 14.6114 76.715 10.916Z" fill="#D94954"/>
<path d="M57.4498 32.5368C57.4498 34.8114 54.8359 36.6546 51.6111 36.6546C48.3864 36.6546 45.7725 34.8106 45.7725 32.5368C45.7725 30.263 48.3864 28.4189 51.6111 28.4189C54.8359 28.4189 57.4498 30.2621 57.4498 32.5368Z" fill="#771934"/>
<path d="M51.3891 35.6775C54.1611 35.6775 56.4081 34.0924 56.4081 32.1371C56.4081 30.1818 54.1611 28.5967 51.3891 28.5967C48.6172 28.5967 46.3701 30.1818 46.3701 32.1371C46.3701 34.0924 48.6172 35.6775 51.3891 35.6775Z" fill="#C43951"/>
<path d="M53.7644 31.6882C53.7644 32.8936 52.3787 33.8714 50.6693 33.8714C48.9599 33.8714 47.5742 32.8944 47.5742 31.6882C47.5742 30.4819 48.9599 29.5049 50.6693 29.5049C52.3787 29.5049 53.7644 30.4828 53.7644 31.6882Z" fill="#DB4D6C"/>
</svg>
