<svg width="146" height="142" viewBox="0 0 146 142" fill="none" xmlns="http://www.w3.org/2000/svg">
<g id="Group" filter="url(#filter0_d_3802_157)">
<path id="Vector" d="M15.0352 87.0244L33.1085 116.563C41.38 130.081 70.0039 127.039 97.0426 109.767C124.081 92.495 139.295 67.5349 131.023 54.0163L112.95 24.478L15.0352 87.0244Z" fill="#72333F"/>
<path id="Vector_2" d="M112.95 24.478L93.7276 36.7568L109.585 62.6734C115.428 72.2224 116.138 82.8848 111.34 87.6849C106.075 92.953 99.7754 98.0361 92.6531 102.586C65.6123 119.859 36.9873 122.902 28.721 109.392L33.111 116.567C41.3774 130.077 70.0024 127.034 97.0432 109.761C124.073 92.4942 139.289 67.5327 131.022 54.0225L127.931 48.97L127.927 48.9554L112.95 24.478Z" fill="#632D39"/>
<path id="Vector_3" d="M78.9685 80.2284C106.007 62.9567 121.22 37.9963 112.949 24.4778C104.678 10.9593 76.0534 14.0019 49.015 31.2737C21.9766 48.5454 6.76294 73.5058 15.0344 87.0243C23.3058 100.543 51.9301 97.5002 78.9685 80.2284Z" fill="#D94954"/>
<path id="Vector_4" d="M76.1273 75.5852C101.684 59.2598 116.47 36.3308 109.153 24.3719C101.836 12.413 75.1864 15.9528 49.6294 32.2782C24.0725 48.6035 9.28623 71.5325 16.6034 83.4914C23.9206 95.4503 50.5703 91.9106 76.1273 75.5852Z" fill="#F26176"/>
<path id="Vector_5" d="M74.3591 72.6938C98.8448 57.0527 113.281 35.5261 106.604 24.6128C99.9266 13.6996 74.6639 17.5323 50.1781 33.1734C25.6924 48.8145 11.2559 70.3411 17.9333 81.2544C24.6107 92.1676 49.8734 88.3349 74.3591 72.6938Z" fill="#DD5263"/>
<path id="Vector_6" d="M90.4717 34.0545C90.6496 34.3452 90.8083 34.6732 90.9258 35.0024C93.3344 41.1791 85.8378 52.1847 73.192 61.382C72.3482 61.993 71.4835 62.5919 70.589 63.1886C70.1163 63.5139 69.6236 63.8286 69.1308 64.1434C68.6381 64.4581 68.1444 64.7735 67.6522 65.0646C53.0679 73.9514 38.6081 76.6622 33.9363 71.4065C33.6981 71.1544 33.4789 70.8649 33.3011 70.5743C29.2992 64.0337 38.8677 50.5618 54.6517 40.4792C70.4367 30.396 86.4689 27.5125 90.4717 34.0545Z" fill="#512530"/>
<path id="Vector_7" d="M90.926 35.0034C93.3346 41.18 85.838 52.1857 73.1922 61.383C72.3484 61.994 71.4837 62.5929 70.5892 63.1896C70.1165 63.5149 69.6237 63.8296 69.131 64.1444C68.6383 64.4591 68.1445 64.7745 67.6524 65.0656C53.0681 73.9523 38.6083 76.6632 33.9365 71.4075C31.7754 65.4516 41.5827 53.3994 56.6627 43.7666C71.7426 34.1337 86.6323 30.4098 90.926 35.0034Z" fill="#72333F"/>
<path id="Vector_8" d="M116.709 34.3451L127.976 52.7584C129.349 55.0038 130.061 57.503 129.895 59.5685C129.512 64.3218 127.848 73.0844 121.165 80.9816C121.066 75.436 119.196 69.1586 115.907 63.34L109.97 53.3695L110.729 52.0316C113.595 48.0029 115.335 42.9245 116.247 37.229L116.709 34.3451Z" fill="#542531"/>
<g id="Group_2">
<path id="Vector_9" d="M26.1152 95.4736C26.1152 95.4736 27.2681 95.0345 28.7412 97.442C30.2142 99.8495 44.0804 122.512 44.0804 122.512L42.4197 122.121L26.1152 95.4736Z" fill="#632D39"/>
<path id="Vector_10" d="M35.9941 97.2012C35.9941 97.2012 37.147 96.7621 38.6209 99.171C40.094 101.578 53.9602 124.241 53.9602 124.241L52.2995 123.85L35.9941 97.2012Z" fill="#632D39"/>
<path id="Vector_11" d="M44.2441 96.249C44.2441 96.249 45.397 95.8099 46.8701 98.2174C48.3431 100.625 62.2093 123.287 62.2093 123.287L60.5486 122.896L44.2441 96.249Z" fill="#632D39"/>
<path id="Vector_12" d="M52.1426 94.7246C52.1426 94.7246 53.2955 94.2855 54.7685 96.693C56.2416 99.1005 70.1077 121.763 70.1077 121.763L68.447 121.372L52.1426 94.7246Z" fill="#632D39"/>
<path id="Vector_13" d="M59.3672 92.0947C59.3672 92.0947 60.5201 91.6556 61.994 94.0645C63.467 96.472 77.3332 119.134 77.3332 119.134L75.6725 118.743L59.3672 92.0947Z" fill="#632D39"/>
<path id="Vector_14" d="M66.415 89.1797C66.415 89.1797 67.5679 88.7406 69.0418 91.1495C70.5157 93.5584 84.3811 116.219 84.3811 116.219L82.7204 115.828L66.415 89.1797Z" fill="#632D39"/>
<path id="Vector_15" d="M73.1377 85.7314C73.1377 85.7314 74.2906 85.2924 75.7636 87.6998C77.2367 90.1073 91.1029 112.77 91.1029 112.77L89.4422 112.379L73.1377 85.7314Z" fill="#632D39"/>
<path id="Vector_16" d="M79.7354 82.0645C79.7354 82.0645 80.8882 81.6253 82.3621 84.0342C83.8352 86.4417 97.7014 109.104 97.7014 109.104L96.0407 108.713L79.7354 82.0645Z" fill="#632D39"/>
<path id="Vector_17" d="M85.8369 77.6191C85.8369 77.6191 86.9898 77.18 88.4629 79.5875C89.9359 81.995 103.802 104.657 103.802 104.657L102.141 104.266L85.8369 77.6191Z" fill="#632D39"/>
<path id="Vector_18" d="M91.8242 72.9492C91.8242 72.9492 92.9771 72.5101 94.451 74.919C95.9249 77.3279 109.79 99.9888 109.79 99.9888L108.13 99.598L91.8242 72.9492Z" fill="#632D39"/>
<path id="Vector_19" d="M97.4668 67.7568C97.4668 67.7568 98.6197 67.3177 100.094 69.7266C101.567 72.1341 115.433 94.7965 115.433 94.7965L113.772 94.4056L97.4668 67.7568Z" fill="#632D39"/>
<path id="Vector_20" d="M102.901 62.2031C102.901 62.2031 104.054 61.764 105.527 64.1715C107.001 66.5804 120.867 89.2413 120.867 89.2413L119.206 88.8505L102.901 62.2031Z" fill="#632D39"/>
</g>
<g id="Group_3">
<path id="Vector_21" d="M42.8792 122.871C42.6011 123.049 42.1415 122.81 41.8517 122.336L26.1354 96.6505C25.8456 96.1768 25.8367 95.65 26.1148 95.4723C26.393 95.2946 26.8526 95.5336 27.1424 96.0072L42.8587 121.693C43.1485 122.167 43.1574 122.694 42.8792 122.871Z" fill="#512530"/>
<path id="Vector_22" d="M52.7651 124.594C52.4869 124.771 52.0274 124.532 51.7375 124.059L36.0221 98.3741C35.7323 97.9004 35.7234 97.3736 36.0015 97.196C36.2797 97.0183 36.7393 97.2572 37.0291 97.7308L52.7454 123.417C53.0343 123.889 53.0433 124.416 52.7651 124.594Z" fill="#512530"/>
<path id="Vector_23" d="M61.014 123.642C60.7358 123.82 60.2763 123.581 59.9864 123.107L44.2702 97.421C43.9804 96.9473 43.9714 96.4205 44.2496 96.2428C44.5277 96.0651 44.9863 96.3048 45.2761 96.7784L60.9923 122.464C61.2824 122.936 61.2922 123.464 61.014 123.642Z" fill="#512530"/>
<path id="Vector_24" d="M68.9144 122.118C68.6362 122.296 68.1767 122.057 67.8868 121.584L52.1706 95.8976C51.8807 95.4239 51.8718 94.8971 52.15 94.7194C52.4281 94.5417 52.8866 94.7813 53.1765 95.255L68.8927 120.941C69.1836 121.414 69.1926 121.941 68.9144 122.118Z" fill="#512530"/>
<path id="Vector_25" d="M76.139 119.489C75.8609 119.667 75.4024 119.427 75.1125 118.953L59.3971 93.2686C59.1073 92.7949 59.0984 92.2682 59.3754 92.0912C59.6536 91.9135 60.1132 92.1524 60.403 92.6261L76.1184 118.311C76.4074 118.783 76.4172 119.311 76.139 119.489Z" fill="#512530"/>
<path id="Vector_26" d="M83.187 116.574C82.9088 116.752 82.4492 116.513 82.1594 116.039L66.444 90.3546C66.1542 89.8809 66.1453 89.3541 66.4234 89.1764C66.7016 88.9987 67.1612 89.2377 67.451 89.7113L83.1664 115.396C83.4562 115.87 83.4651 116.396 83.187 116.574Z" fill="#512530"/>
<path id="Vector_27" d="M89.9087 113.125C89.6305 113.303 89.1709 113.064 88.8811 112.59L73.1657 86.9054C72.8759 86.4317 72.8669 85.9049 73.1451 85.7272C73.4233 85.5495 73.8818 85.7891 74.1716 86.2628L89.887 111.947C90.176 112.42 90.1868 112.947 89.9087 113.125Z" fill="#512530"/>
<path id="Vector_28" d="M96.5004 109.461C96.2222 109.639 95.7626 109.4 95.4728 108.926L79.7565 83.2403C79.4667 82.7667 79.4578 82.2398 79.7359 82.0622C80.0141 81.8845 80.4726 82.1241 80.7624 82.5978L96.4787 108.284C96.7694 108.759 96.7785 109.284 96.5004 109.461Z" fill="#512530"/>
<path id="Vector_29" d="M102.61 105.012C102.332 105.189 101.872 104.95 101.582 104.477L85.8669 78.7921C85.577 78.3184 85.5681 77.7916 85.8462 77.6139C86.1244 77.4363 86.5829 77.6759 86.8727 78.1495L102.588 103.834C102.877 104.306 102.888 104.834 102.61 105.012Z" fill="#512530"/>
<path id="Vector_30" d="M108.587 100.349C108.309 100.526 107.85 100.287 107.56 99.8136L91.8444 74.129C91.5546 73.6553 91.5457 73.1285 91.8238 72.9508C92.102 72.7731 92.5615 73.0121 92.8514 73.4858L108.567 99.1704C108.856 99.6447 108.866 100.171 108.587 100.349Z" fill="#512530"/>
<path id="Vector_31" d="M114.241 95.151C113.962 95.3286 113.504 95.089 113.214 94.6154L97.4987 68.9307C97.2089 68.4571 97.1999 67.9303 97.477 67.7533C97.7552 67.5756 98.2137 67.8152 98.5035 68.2889L114.219 93.9735C114.508 94.4458 114.519 94.9733 114.241 95.151Z" fill="#512530"/>
<path id="Vector_32" d="M119.673 89.5953C119.395 89.773 118.937 89.5334 118.647 89.0597L102.931 63.3751C102.641 62.9014 102.633 62.3746 102.91 62.1976C103.187 62.0206 103.646 62.2595 103.936 62.7332L119.652 88.4178C119.941 88.8915 119.951 89.4176 119.673 89.5953Z" fill="#512530"/>
<path id="Vector_33" d="M124.933 83.7562C124.655 83.9339 124.195 83.6949 123.905 83.2213L108.189 57.5352C107.899 57.0616 107.89 56.5348 108.169 56.3571C108.447 56.1794 108.906 56.4183 109.196 56.892L124.912 82.578C125.201 83.0524 125.211 83.5785 124.933 83.7562Z" fill="#512530"/>
<path id="Vector_34" d="M129.187 76.275C128.909 76.4527 128.45 76.2131 128.16 75.7394L112.445 50.0548C112.155 49.5811 112.146 49.0543 112.423 48.8773C112.701 48.6996 113.16 48.9392 113.45 49.4129L129.165 75.0975C129.455 75.5712 129.465 76.0973 129.187 76.275Z" fill="#512530"/>
<path id="Vector_35" d="M132.481 67.2233C132.203 67.4009 131.744 67.1613 131.454 66.6876L115.739 41.003C115.449 40.5293 115.44 40.0026 115.717 39.8256C115.995 39.6479 116.455 39.8868 116.745 40.3605L132.46 66.0451C132.749 66.5194 132.758 67.0463 132.481 67.2233Z" fill="#512530"/>
</g>
<path id="Vector_36" d="M129.471 51.4878L130.906 53.8339C139.183 67.3608 123.969 92.323 96.9383 109.59C69.8974 126.863 41.2725 129.907 32.995 116.378L31.5596 114.032C39.8259 127.542 68.4509 124.499 95.4918 107.226C122.523 89.9588 137.737 64.998 129.471 51.4878Z" fill="#512530"/>
</g>
<defs>
<filter id="filter0_d_3802_157" x="8.78125" y="16.0361" width="128.495" height="116.969" filterUnits="userSpaceOnUse" color-interpolation-filters="sRGB">
<feFlood flood-opacity="0" result="BackgroundImageFix"/>
<feColorMatrix in="SourceAlpha" type="matrix" values="0 0 0 0 0 0 0 0 0 0 0 0 0 0 0 0 0 0 127 0" result="hardAlpha"/>
<feOffset dy="4"/>
<feGaussianBlur stdDeviation="2"/>
<feComposite in2="hardAlpha" operator="out"/>
<feColorMatrix type="matrix" values="0 0 0 0 0 0 0 0 0 0 0 0 0 0 0 0 0 0 0.3 0"/>
<feBlend mode="normal" in2="BackgroundImageFix" result="effect1_dropShadow_3802_157"/>
<feBlend mode="normal" in="SourceGraphic" in2="effect1_dropShadow_3802_157" result="shape"/>
</filter>
</defs>
</svg>
