<svg width="22" height="14" viewBox="0 0 22 14" fill="none" xmlns="http://www.w3.org/2000/svg">
<path id="Vector" d="M10.7517 0.727756C10.5164 0.727512 10.2833 0.773773 10.0659 0.863878C9.84845 0.953984 9.65097 1.08616 9.48479 1.25281L0.524785 10.2128C0.358408 10.3792 0.22643 10.5767 0.136387 10.7941C0.0463444 11.0115 1.75307e-09 11.2445 0 11.4798C-1.75307e-09 11.715 0.0463444 11.948 0.136387 12.1654C0.22643 12.3828 0.358408 12.5803 0.524785 12.7467C0.691163 12.9131 0.888681 13.0451 1.10606 13.1351C1.32345 13.2251 1.55644 13.2715 1.79173 13.2715C2.02702 13.2715 2.26001 13.2251 2.47739 13.1351C2.69478 13.0451 2.8923 12.9131 3.05867 12.7467L10.7517 5.05364L18.4448 12.7467C18.6112 12.9131 18.8087 13.0451 19.0261 13.1351C19.2434 13.2251 19.4764 13.2715 19.7117 13.2715C19.947 13.2715 20.18 13.2251 20.3974 13.1351C20.6148 13.0451 20.8123 12.9131 20.9787 12.7467C21.145 12.5803 21.277 12.3828 21.3671 12.1654C21.4571 11.948 21.5035 11.715 21.5035 11.4798C21.5035 11.2445 21.4571 11.0115 21.3671 10.7941C21.277 10.5767 21.145 10.3792 20.9787 10.2128L12.0187 1.25281C11.8525 1.08616 11.655 0.953984 11.4376 0.863878C11.2202 0.773773 10.9871 0.727512 10.7517 0.727756Z" fill="#858585"/>
</svg>
