<svg width="123" height="104" viewBox="0 0 123 104" fill="none" xmlns="http://www.w3.org/2000/svg">
<g filter="url(#filter0_d_1619_12)">
<path d="M49.204 92.0908L45.1686 88.5562L27.9221 84.1992C23.4581 83.0715 18.5694 76.9519 20.8377 67.245L5.20466 53.5522C3.09582 47.6718 5.1109 36.9081 10.8358 34.2926C9.87448 27.706 11.3387 14.9969 24.8861 16.8535C26.795 12.034 33.9862 3.64001 47.4804 8.62008C50.7457 5.54816 59.8383 1.40919 70.0868 9.42862C75.1139 8.31198 86.2362 8.76102 90.5087 19.4902C95.979 19.596 106.861 23.3466 106.625 37.5031C111.363 38.6277 119.015 44.657 111.715 59.7774C112.841 62.8151 113.435 70.9561 106.803 79.2189L86.2064 83.8217C84.7068 89.7578 79.5406 97.2395 71.3909 95.1807L54.4868 90.9102L49.204 92.0908Z" fill="url(#paint0_linear_1619_12)" shape-rendering="crispEdges"/>
<path d="M49.204 92.0908L70.0868 9.42862M49.204 92.0908L10.8358 34.2926M49.204 92.0908L111.715 59.7774M49.204 92.0908L24.8861 16.8535M49.204 92.0908L106.625 37.5031M49.204 92.0908L47.4804 8.62007M49.204 92.0908L90.5087 19.4902M49.204 92.0908L45.1686 88.5562M49.204 92.0908L54.4868 90.9102M70.0868 9.42862C59.8383 1.40919 50.7457 5.54816 47.4804 8.62007M70.0868 9.42862C75.1139 8.31198 86.2362 8.76102 90.5087 19.4902M10.8358 34.2926C5.1109 36.9081 3.09582 47.6718 5.20466 53.5522L20.8377 67.245M10.8358 34.2926C9.87448 27.706 11.3387 14.9969 24.8861 16.8535M111.715 59.7774C119.015 44.657 111.363 38.6277 106.625 37.5031M111.715 59.7774C112.841 62.8151 113.435 70.9561 106.803 79.2189L86.2064 83.8217M24.8861 16.8535C26.795 12.034 33.9862 3.64001 47.4804 8.62007M106.625 37.5031C106.861 23.3466 95.979 19.596 90.5087 19.4902M45.1686 88.5562L27.9221 84.1992C23.4581 83.0715 18.5694 76.9519 20.8377 67.245M45.1686 88.5562L20.8377 67.245M54.4868 90.9102L71.3909 95.1807C79.5406 97.2395 84.7068 89.7578 86.2064 83.8217M54.4868 90.9102L86.2064 83.8217" stroke="#E398AE" stroke-width="2.46637" stroke-linejoin="round" shape-rendering="crispEdges"/>
</g>
<defs>
<filter id="filter0_d_1619_12" x="0.155518" y="0.541504" width="122.809" height="103.222" filterUnits="userSpaceOnUse" color-interpolation-filters="sRGB">
<feFlood flood-opacity="0" result="BackgroundImageFix"/>
<feColorMatrix in="SourceAlpha" type="matrix" values="0 0 0 0 0 0 0 0 0 0 0 0 0 0 0 0 0 0 127 0" result="hardAlpha"/>
<feOffset dx="2" dy="2"/>
<feGaussianBlur stdDeviation="2.5"/>
<feComposite in2="hardAlpha" operator="out"/>
<feColorMatrix type="matrix" values="0 0 0 0 0 0 0 0 0 0 0 0 0 0 0 0 0 0 0.25 0"/>
<feBlend mode="normal" in2="BackgroundImageFix" result="effect1_dropShadow_1619_12"/>
<feBlend mode="normal" in="SourceGraphic" in2="effect1_dropShadow_1619_12" result="shape"/>
</filter>
<linearGradient id="paint0_linear_1619_12" x1="70.7097" y1="7.47131" x2="49.3248" y2="92.1213" gradientUnits="userSpaceOnUse">
<stop stop-color="#FFE5F7"/>
<stop offset="0.98" stop-color="#F9C3DD"/>
<stop offset="1" stop-color="#D9D9D9" stop-opacity="0"/>
</linearGradient>
</defs>
</svg>
