<svg width="229" height="183" viewBox="0 0 229 183" fill="none" xmlns="http://www.w3.org/2000/svg">
<path d="M114.247 180L104.561 175.056H68.4989C59.1648 175.056 46.5174 165.456 46.1557 145.25L8.62964 126.099C1.56475 115.588 0.18077 93.4314 10.1344 85.448C4.97443 72.9791 1.54182 47.2721 29.0914 44.1944C30.4502 33.7737 40.4166 13.7044 69.4127 16.7923C74.3053 9.13308 90.1219 -3.51708 114.247 7.15646C123.574 2.46551 145.658 -2.17465 159.383 16.7923C170.188 14.2839 193.439 16.2525 200.005 44.1944C209.876 44.0521 227.909 52.1037 221.069 85.448C224.79 90.8595 230 106.566 221.069 126.099L182.871 145.374C182.871 157.786 176.431 175.056 159.391 175.056H124.045L114.247 180Z" fill="url(#paint0_linear_1591_43)"/>
<path d="M114.247 180V7.15646M114.247 180L10.1344 85.448M114.247 180L221.069 85.448M114.247 180L29.0914 44.1944M114.247 180L200.005 44.1944M114.247 180L69.4127 16.7923M114.247 180L159.383 16.7923M114.247 180L104.561 175.056M114.247 180L124.045 175.056M114.247 7.15646C90.1219 -3.51708 74.3053 9.13308 69.4127 16.7923M114.247 7.15646C123.574 2.46551 145.658 -2.17465 159.383 16.7923M10.1344 85.448C0.18077 93.4314 1.56475 115.588 8.62965 126.099L46.1557 145.25M10.1344 85.448C4.97443 72.9791 1.54182 47.2721 29.0914 44.1944M221.069 85.448C227.909 52.1037 209.876 44.0521 200.005 44.1944M221.069 85.448C224.79 90.8595 230 106.566 221.069 126.099L182.871 145.374M29.0914 44.1944C30.4502 33.7737 40.4166 13.7044 69.4127 16.7923M200.005 44.1944C193.439 16.2525 170.188 14.2839 159.383 16.7923M104.561 175.056H68.4989C59.1648 175.056 46.5174 165.456 46.1557 145.25M104.561 175.056L46.1557 145.25M124.045 175.056H159.391C176.431 175.056 182.871 157.786 182.871 145.374M124.045 175.056L182.871 145.374" stroke="#FF7FBF" stroke-width="5" stroke-linejoin="round"/>
<defs>
<linearGradient id="paint0_linear_1591_43" x1="114.5" y1="3" x2="114.5" y2="180" gradientUnits="userSpaceOnUse">
<stop stop-color="#FFE5F7"/>
<stop offset="0.98" stop-color="#F9C3DD"/>
<stop offset="1" stop-color="#D9D9D9" stop-opacity="0"/>
</linearGradient>
</defs>
</svg>
