<svg width="123" height="118" viewBox="0 0 123 118" fill="none" xmlns="http://www.w3.org/2000/svg">
<g filter="url(#filter0_d_1619_183)">
<path d="M35.4266 12.6455C36.1199 13.5495 39.5702 8.89318 46.5304 10.9989C55.5705 13.7342 58.2375 18.3242 59.4369 20.1178C60.638 21.9115 61.6879 24.3042 63.7895 23.8558C65.8892 23.4074 90.2021 25.7983 98.3112 35.9629C106.415 46.1257 112.862 69.2942 113.017 83.3456C113.168 97.397 53.2835 89.3221 46.8366 88.1275C40.3896 86.9329 22.0753 77.2185 17.2725 67.6512C12.4697 58.0839 12.621 51.9568 12.621 48.5184C12.621 45.08 9.16879 40.0004 8.71859 37.6077C8.26838 35.2149 9.01933 27.5919 8.71859 25.3499C8.41785 23.1078 2.71465 13.6499 3.01539 10.8303C3.31613 8.01071 6.91777 3.48713 8.71859 3.03872C10.5194 2.59031 20.0872 6.1776 21.2127 6.51481C22.3382 6.85201 31.191 7.11389 35.432 12.6455" fill="#DCBAA1"/>
<path d="M12.3219 17.4097C15.4121 14.0825 18.9075 10.5723 20.4976 6.27652C17.9729 5.40301 10.3086 2.64438 8.71485 3.03898C6.91403 3.4874 3.31239 8.00918 3.01165 10.8306C2.78835 12.9112 5.82813 18.5935 7.56232 22.335C9.17406 20.7907 10.7192 19.137 12.3219 17.4097ZM8.71485 37.6061C9.039 39.3298 10.9064 42.44 11.9329 45.335C14.9547 42.9638 17.8126 40.2643 20.4526 36.9371C25.9703 29.9921 31.5817 20.9091 34.589 11.7364C31.2413 8.26567 25.9973 7.22894 23.125 6.81102C21.9581 11.7364 18.4861 15.6627 15.0519 19.363C12.9432 21.6355 10.9227 23.8345 8.76167 25.856C8.92194 28.5662 8.29346 35.3695 8.71485 37.6061Z" fill="#F3E8E3"/>
<path d="M98.3074 35.9628C91.223 27.0788 71.7633 24.1319 65.5685 23.8306C60.9224 36.2354 51.9399 46.5148 45.1598 58.6076C44.3188 60.107 42.5918 57.0722 43.1645 56.0534C49.3881 44.9543 57.924 35.2166 62.7574 23.8126C61.3167 23.4306 60.4235 21.5849 59.4421 20.1159C58.241 18.3223 55.5811 13.7323 46.5356 10.997C42.0624 9.64461 39.046 11.0795 37.2722 12.0409C34.7186 21.1652 29.6133 30.6123 24.1568 37.482C20.6056 41.95 16.8815 46.0162 12.6226 49.677C12.6442 53.2643 12.9647 59.0703 17.2723 67.6493C22.0751 77.2166 40.3822 86.931 46.8364 88.1256C53.2905 89.3202 113.166 97.3952 113.015 83.3437C112.865 69.2923 106.413 46.1238 98.3092 35.961" fill="#F3E8E3"/>
<path d="M87.8016 101.124C87.8016 101.124 93.7281 107.612 96.1286 107.985C98.529 108.36 106.631 110.378 108.133 102.082C109.635 93.7863 109.408 88.2565 107.683 87.7328C105.957 87.209 87.5747 94.6831 87.3496 96.7727C87.1244 98.8659 87.8016 101.124 87.8016 101.124Z" fill="#E1E1E1"/>
<path d="M44.7301 50.4591C41.4292 53.8993 106.102 106.349 106.102 101.13C106.1 95.1855 105.126 95.0904 104.975 91.9982C104.825 88.9077 109.779 76.7683 104.301 69.4431C101.975 66.3347 92.8949 54.4966 90.6438 51.2071C88.3928 47.9175 71.8847 42.985 68.1336 42.5366C64.3825 42.0882 48.0238 47.0225 44.7229 50.4591" fill="#493932"/>
<path d="M106.517 83.0586C104.671 81.76 90.3475 81.5842 83.1803 78.2768C72.7715 73.4716 64.169 70.191 61.3543 62.8066C58.7647 56.0427 56.9585 48.3677 56.6542 44.9203C56.4813 42.9581 45.1595 50.0197 44.7381 50.4591C41.4372 53.8993 41.819 60.7833 45.4207 69.0054C49.0223 77.2275 60.9185 87.5176 62.8238 87.7149C64.729 87.9086 77.9867 98.3028 83.2379 99.049C88.4909 99.7951 89.692 99.4579 91.0426 100.505C92.3933 101.549 94.9432 103.684 96.4451 103.684C97.3923 103.684 101.129 106.175 103.598 104.941C106.495 104.518 106.51 99.6839 106.152 94.5272C105.824 89.7938 108.959 84.768 106.526 83.0586" fill="#D7AA8C"/>
<path d="M98.2175 101.483C96.3284 100.538 94.1044 96.8321 91.7273 95.8133C89.6528 94.9255 86.9624 96.685 84.8608 95.5568C79.0081 92.4179 77.0939 90.3768 69.9284 87.0693C59.5179 82.2659 50.0834 76.2177 47.2687 68.8351C44.6791 62.0713 48.1061 52.4717 47.8035 49.0153C47.6306 47.0531 45.1491 50.009 44.7259 50.4484C41.425 53.8886 37.3732 63.9008 40.9748 72.1157C44.5764 80.3306 58.9776 89.7472 60.8739 89.9409C62.7809 90.1382 77.2829 100.663 82.5377 101.413C87.7907 102.159 87.49 100.366 88.8406 101.413C90.1912 102.457 95.1435 106.044 96.6436 106.044C97.5908 106.044 101.111 106.157 103.579 104.923C100.993 102.757 101.47 103.106 98.2121 101.47" fill="#E4C1A9"/>
<path d="M43.0963 53.6178C44.0292 52.425 53.8202 47.905 60.9101 47.5696C68.0017 47.2342 84.4648 51.3811 87.3983 55.1926C90.3247 59.0041 91.4124 61.6945 94.2252 63.6012C97.0399 65.5078 105.435 78.3234 105.81 82.9564C106.031 85.6756 103.291 89.0979 103.008 90.3176C102.019 94.599 105.129 100.932 106.105 100.484C107.079 100.036 106.336 92.1417 106.86 91.5157C107.386 90.8915 112.496 85.498 112.414 82.8972C112.376 81.7385 110.876 76.0347 108.21 71.165C104.89 65.0989 100.193 59.7269 99.318 58.9808C97.7422 57.6355 98.3797 58.2328 93.2402 50.1237C88.1007 42.0165 71.4683 39.2901 64.211 40.2587C53.1809 41.7402 45.6571 48.2368 44.7387 49.0027C41.5873 51.643 41.7277 55.3827 43.1053 53.6178" fill="#DCBAA1"/>
</g>
<defs>
<filter id="filter0_d_1619_183" x="0" y="0" width="122.017" height="117.471" filterUnits="userSpaceOnUse" color-interpolation-filters="sRGB">
<feFlood flood-opacity="0" result="BackgroundImageFix"/>
<feColorMatrix in="SourceAlpha" type="matrix" values="0 0 0 0 0 0 0 0 0 0 0 0 0 0 0 0 0 0 127 0" result="hardAlpha"/>
<feOffset dx="3" dy="3"/>
<feGaussianBlur stdDeviation="3"/>
<feComposite in2="hardAlpha" operator="out"/>
<feColorMatrix type="matrix" values="0 0 0 0 0 0 0 0 0 0 0 0 0 0 0 0 0 0 0.25 0"/>
<feBlend mode="normal" in2="BackgroundImageFix" result="effect1_dropShadow_1619_183"/>
<feBlend mode="normal" in="SourceGraphic" in2="effect1_dropShadow_1619_183" result="shape"/>
</filter>
</defs>
</svg>
