<svg width="240" height="230" viewBox="0 0 240 230" fill="none" xmlns="http://www.w3.org/2000/svg">
<path d="M70.6197 21.0062C72.1296 22.975 79.6439 12.8343 94.802 17.4203C114.49 23.3773 120.298 33.3734 122.91 37.2796C125.526 41.1859 127.812 46.3968 132.389 45.4203C136.962 44.4437 189.911 49.6507 207.572 71.7875C225.22 93.9203 239.26 144.377 239.598 174.979C239.927 205.58 109.509 187.994 95.4687 185.393C81.4284 182.791 41.5429 161.635 31.0833 140.799C20.6236 119.963 20.9531 106.619 20.9531 99.1312C20.9531 91.6429 13.4348 80.5804 12.4544 75.3695C11.4739 70.1585 13.1093 53.557 12.4544 48.6742C11.7994 43.7914 -0.621154 23.1937 0.0337989 17.0531C0.688752 10.9125 8.5325 1.06089 12.4544 0.0843289C16.3763 -0.892234 37.2132 6.92027 39.6643 7.65464C42.1155 8.38902 61.3955 8.95933 70.6315 21.0062" fill="#DCBAA1"/>
<path d="M20.3015 31.3812C27.0314 24.1351 34.6438 16.4906 38.1068 7.13508C32.6083 5.23274 15.9168 -0.775072 12.446 0.0843029C8.52408 1.06087 0.680326 10.9085 0.0253734 17.0531C-0.460939 21.5843 6.15919 33.9593 9.93595 42.1077C13.446 38.7445 16.811 35.1429 20.3015 31.3812ZM12.446 75.3656C13.1519 79.1195 17.2189 85.8929 19.4543 92.1976C26.0352 87.0335 32.2593 81.1546 38.0087 73.9085C50.0254 58.7835 62.2459 39.0023 68.7954 19.0257C61.5047 11.4671 50.0842 9.2093 43.8288 8.29915C41.2874 19.0257 33.726 27.5765 26.247 35.6351C21.6545 40.5843 17.2542 45.3734 12.5479 49.7757C12.897 55.6781 11.5282 70.4945 12.446 75.3656Z" fill="#F3E8E3"/>
<path d="M207.563 71.7874C192.134 52.4398 149.754 46.0218 136.263 45.3655C126.145 72.3812 106.582 94.7679 91.8165 121.104C89.985 124.369 86.2239 117.76 87.4711 115.541C101.025 91.3695 119.615 70.1624 130.141 45.3265C127.004 44.4945 125.058 40.4749 122.921 37.2757C120.305 33.3695 114.512 23.3734 94.8128 17.4163C85.0709 14.471 78.5017 17.596 74.6387 19.6898C69.0775 39.5609 57.959 60.1351 46.0757 75.096C38.3417 84.8265 30.2313 93.682 20.9561 101.655C21.0031 109.467 21.7012 122.112 31.0823 140.795C41.542 161.631 81.4118 182.787 95.4678 185.389C109.524 187.991 239.922 205.576 239.593 174.975C239.267 144.373 225.215 93.9163 207.567 71.7835" fill="#F3E8E3"/>
<path d="M184.683 213.697C184.683 213.697 197.59 227.826 202.818 228.639C208.045 229.455 225.69 233.85 228.961 215.783C232.232 197.717 231.738 185.674 227.98 184.533C224.223 183.393 184.189 199.67 183.698 204.221C183.208 208.78 184.683 213.697 184.683 213.697Z" fill="#E1E1E1"/>
<path d="M90.8804 103.358C83.6916 110.85 224.538 225.076 224.538 213.709C224.534 200.764 222.412 200.557 222.083 193.822C221.757 187.092 232.546 160.654 220.616 144.701C215.549 137.932 195.775 112.151 190.872 104.986C185.97 97.8224 150.018 87.0802 141.849 86.1036C133.68 85.1271 98.0535 95.8732 90.8647 103.358" fill="#493932"/>
<path d="M225.443 174.354C221.423 171.526 190.228 171.143 174.619 163.94C151.951 153.475 133.216 146.33 127.086 130.248C121.447 115.518 117.513 98.8029 116.85 91.2951C116.474 87.0216 91.8169 102.401 90.8991 103.358C83.7103 110.85 84.5418 125.842 92.3855 143.748C100.229 161.654 126.137 184.065 130.287 184.494C134.436 184.916 163.309 207.553 174.745 209.178C186.185 210.803 188.801 210.069 191.742 212.35C194.684 214.623 200.237 219.272 203.508 219.272C205.571 219.272 213.709 224.697 219.086 222.01C225.396 221.088 225.427 210.561 224.647 199.33C223.933 189.022 230.761 178.076 225.463 174.354" fill="#D7AA8C"/>
<path d="M207.368 214.479C203.254 212.42 198.41 204.35 193.233 202.131C188.715 200.198 182.856 204.03 178.279 201.573C165.533 194.737 161.364 190.291 145.759 183.088C123.087 172.627 102.54 159.455 96.4102 143.377C90.7706 128.647 98.2339 107.741 97.575 100.213C97.1985 95.9398 91.7942 102.377 90.8725 103.334C83.6837 110.827 74.8595 132.631 82.7033 150.522C90.547 168.412 121.91 188.92 126.04 189.342C130.193 189.772 161.776 212.694 173.22 214.327C184.66 215.952 184.005 212.045 186.947 214.327C189.888 216.6 200.673 224.412 203.94 224.412C206.003 224.412 213.67 224.659 219.043 221.971C213.411 217.252 214.451 218.014 207.356 214.452" fill="#E4C1A9"/>
<path d="M87.3231 110.237C89.3546 107.639 110.678 97.7952 126.118 97.0648C141.563 96.3343 177.416 105.366 183.805 113.666C190.178 121.967 192.547 127.826 198.673 131.979C204.803 136.131 223.087 164.041 223.902 174.131C224.385 180.053 218.416 187.506 217.8 190.162C215.647 199.487 222.42 213.28 224.546 212.303C226.667 211.326 225.048 194.135 226.189 192.772C227.334 191.412 238.464 179.666 238.284 174.002C238.202 171.479 234.935 159.057 229.13 148.451C221.898 135.241 211.67 123.541 209.764 121.916C206.332 118.987 207.721 120.287 196.528 102.627C185.335 84.971 149.112 79.0335 133.307 81.1429C109.286 84.3694 92.9 98.5179 90.8998 100.186C84.0366 105.936 84.3425 114.08 87.3427 110.237" fill="#DCBAA1"/>
</svg>
