<svg width="1512" height="156" viewBox="0 0 1512 156" fill="none" xmlns="http://www.w3.org/2000/svg">
<path fill-rule="evenodd" clip-rule="evenodd" d="M-19.3949 17.8617L3.78139 41.0217C26.5386 64.1763 72.4722 110.491 119.035 107.823C165.597 105.154 213.207 53.5085 259.937 37.778C306.667 22.0476 352.936 42.238 399.331 52.6318C445.726 63.0256 492.246 63.6228 538.934 51.1579C585.622 38.693 632.897 13.1713 679.334 20.2996C725.77 27.4279 787 55.5 794.587 87.1005L817.805 106.995L816.799 185.368L793.329 185.066C770.279 184.771 723.758 184.173 677.238 183.576C630.717 182.979 583.778 182.376 537.257 181.779C490.737 181.182 444.216 180.585 397.696 179.987C351.175 179.39 304.655 178.793 258.135 178.196C211.614 177.599 164.675 176.996 118.154 176.399C71.6337 175.802 25.1133 175.204 2.06261 174.908L-21.4072 174.607L-19.3949 17.8617Z" fill="#DCFDFB"/>
<path fill-rule="evenodd" clip-rule="evenodd" d="M-19.2559 8.37325L3.92935 31.6438C26.6953 54.909 72.6466 101.445 119.23 98.7609C165.813 96.0771 213.447 44.1791 260.199 28.37C306.95 12.561 353.238 32.8463 399.653 43.2877C446.068 53.729 492.609 54.3265 539.318 41.7988C586.028 29.271 633.325 3.62344 679.782 10.7835C726.238 17.9436 710.539 20.131 781.5 37L811 22L844.5 30.5L795.277 62.6689C772.217 62.3729 712.785 34.1801 666.244 33.5827C619.703 32.9852 487.779 83.6217 441.238 83.0242C394.697 82.4267 332.85 56.7324 286.309 56.135C239.768 55.5375 165.403 127.973 118.862 127.376C72.3213 126.778 49.8829 78.0001 3.34191 77.4027C-43.1991 76.8052 -36.8675 145.362 -59.9284 145.066L-21.2779 165.876L-19.2559 8.37325Z" fill="url(#paint0_linear_1769_2)"/>
<path fill-rule="evenodd" clip-rule="evenodd" d="M1548.47 28.5568L1524.71 51.1142C1501.37 73.677 1454.26 118.797 1407.78 114.934C1361.3 111.072 1315.03 58.2207 1268.72 41.2958C1222.41 24.3709 1175.64 43.3669 1128.99 52.5663C1082.35 61.7657 1035.83 61.1684 989.475 47.5091C943.122 33.8498 896.518 7.12295 849.914 13.0568C803.309 18.9907 756.286 57.5798 732.984 76.8771L709.262 96.1689L708.256 174.542L731.726 174.843C754.777 175.139 801.297 175.736 847.818 176.333C894.338 176.93 941.278 177.533 987.798 178.13C1034.32 178.728 1080.84 179.325 1127.36 179.922C1173.88 180.519 1220.4 181.116 1266.92 181.714C1313.44 182.311 1360.38 182.913 1406.9 183.511C1453.42 184.108 1499.94 184.705 1522.99 185.001L1546.46 185.302L1548.47 28.5568Z" fill="#DCFDFB"/>
<path fill-rule="evenodd" clip-rule="evenodd" d="M1552.43 28.6077L1528.65 51.165C1505.3 73.7276 1467.5 94.9453 1421 91.0823C1374.5 87.2193 1318.88 58.2702 1272.55 41.3451C1226.22 24.42 1179.43 43.4157 1132.76 52.6148C1086.09 61.8139 1039.55 61.2164 993.18 47.5568C946.807 33.8972 900.182 7.17015 853.557 13.1037C806.932 19.0373 771 37.5 737 36.1324L715.5 36.1324C715.5 36.1324 742.19 49.7337 755.5 53.5C769.616 57.4946 785.5 55.5 785.5 55.5C825.5 47.5568 819.965 35.535 866.506 36.1324C913.047 36.7299 1043.63 90.4848 1090.17 91.0823C1136.71 91.6798 1199.2 67.7013 1245.74 68.2988C1292.28 68.8962 1374.46 117.403 1421 118C1467.54 118.597 1481.53 96.1063 1528.07 96.7038C1574.61 97.3013 1566.52 165.344 1589.58 165.64L1550.41 185.353L1552.43 28.6077Z" fill="url(#paint1_linear_1769_2)"/>
<defs>
<linearGradient id="paint0_linear_1769_2" x1="391.593" y1="6.04786" x2="389.474" y2="171.149" gradientUnits="userSpaceOnUse">
<stop offset="0.27" stop-color="white"/>
<stop offset="0.955" stop-color="white" stop-opacity="0"/>
</linearGradient>
<linearGradient id="paint1_linear_1769_2" x1="1141.77" y1="15.7726" x2="1139.66" y2="180.08" gradientUnits="userSpaceOnUse">
<stop offset="0.27" stop-color="white"/>
<stop offset="0.955" stop-color="white" stop-opacity="0"/>
</linearGradient>
</defs>
</svg>
